<svg viewBox="0 0 2801 1850" version="1.1" xmlns="http://www.w3.org/2000/svg" xmlns:xlink="http://www.w3.org/1999/xlink">
    <g stroke="none" stroke-width="1" fill="none" fill-rule="evenodd">
        <g id="maze_desktop">
            <g id="maze" fill="#A49D96" fill-rule="nonzero">
                <polygon class="maze" points="382.8 0 349.7 0 349.7 61.9 255.7 61.9 255.7 95 382.8 95"></polygon>
                <polygon class="maze" points="194.7 0 161.6 0 161.6 61.9 0 61.9 0 95 194.7 95"></polygon>
                <polygon class="maze" points="1196.2 283.1 1229.3 283.1 1229.3 189 1417.4 189 1417.4 61.9 1290.3 61.9 1290.3 95 1384.3 95 1384.3 156 1229.3 156 1229.3 0 1196.2 0 1196.2 156 1135.3 156 1135.3 61.9 1102.2 61.9 1102.2 189 1196.2 189"></polygon>
                <rect class="maze" x="1102.2" y="1753.7" width="33.1" height="96.2"></rect>
                <polygon class="maze" points="1290.3 1753.7 1196.2 1753.7 1196.2 1786.8 1290.3 1786.8 1290.3 1849.9 1323.4 1849.9 1323.4 1599.9 1384.3 1599.9 1384.3 1692.8 1417.4 1692.8 1417.4 1566.8 1290.3 1566.8"></polygon>
                <rect class="maze" x="1384.3" y="1753.7" width="33.1" height="96.2"></rect>
                <polygon class="maze" points="349.7 1660.9 194.7 1660.9 194.7 1411.8 288.8 1411.8 288.8 1378.7 194.7 1378.7 194.7 1317.7 349.7 1317.7 349.7 1411.8 382.8 1411.8 382.8 1284.6 67.6 1284.6 67.6 1505.8 100.6 1505.8 100.6 1317.7 161.6 1317.7 161.6 1786.8 194.7 1786.8 194.7 1693.9 349.7 1693.9 349.7 1753.7 255.7 1753.7 255.7 1849.9 288.8 1849.9 288.8 1786.8 382.8 1786.8 382.8 1599.9 476.9 1599.9 476.9 1566.8 349.7 1566.8"></polygon>
                <rect class="maze" x="443.8" y="1660.9" width="33.1" height="189.1"></rect>
                <polygon class="maze" points="947.1 61.9 853.1 61.9 853.1 0 820 0 820 95 947.1 95"></polygon>
                <polygon class="maze" points="100.6 250 67.6 250 67.6 344.1 0 344.1 0 377.2 100.6 377.2"></polygon>
                <polygon class="maze" points="100.6 438.1 67.6 438.1 67.6 532.2 0 532.2 0 565.3 100.6 565.3"></polygon>
                <rect class="maze" x="0" y="814.4" width="100.6" height="33.1"></rect>
                <polygon class="maze" points="726 1753.7 665 1753.7 665 1660.6 570.9 1660.6 570.9 1378.7 476.9 1378.7 476.9 1096.5 443.8 1096.5 443.8 1190.6 382.8 1190.6 382.8 1096.5 255.7 1096.5 255.7 1190.6 0 1190.6 0 1223.7 288.8 1223.7 288.8 1129.6 349.7 1129.6 349.7 1223.7 443.8 1223.7 443.8 1472.8 255.7 1472.8 255.7 1599.9 288.8 1599.9 288.8 1505.8 476.9 1505.8 476.9 1411.8 537.8 1411.5 537.8 1786.6 570.9 1786.8 570.9 1693.7 631.9 1693.7 631.9 1786.8 759 1786.8 759 1660.9 726 1660.9"></polygon>
                <polygon class="maze" points="67.6 1660.9 0 1660.9 0 1693.9 67.6 1693.9 67.6 1849.9 100.6 1849.9 100.6 1566.8 67.6 1566.8"></polygon>
                <polygon class="maze" points="2605.3 1411.8 2699.4 1411.8 2699.4 1472.8 2544.3 1472.8 2544.3 1378.7 2450.3 1378.7 2450.3 1190.6 2323.1 1190.6 2323.1 1284.6 2262.2 1284.6 2262.2 1190.6 2229.1 1190.6 2229.1 1411.8 2262.2 1411.8 2262.2 1317.7 2356.2 1317.7 2356.2 1223.7 2417.2 1223.7 2417.2 1411.8 2511.2 1411.8 2511.2 1472.8 2417.2 1472.8 2417.2 1566.8 2074 1566.8 2074 1284.6 1980 1284.6 1980 1129.6 2074 1129.6 2074 1096.5 1946.9 1096.5 1946.9 1317.7 2041 1317.7 2041 1660.9 1946.9 1660.9 1946.9 1754.9 1885.9 1754.9 1885.9 1472.8 1697.8 1472.8 1697.8 1378.7 1476.6 1378.7 1476.6 1411.8 1664.7 1411.8 1664.7 1505.8 1852.9 1505.8 1852.9 1788 1980 1788 1980 1693.9 2041 1693.9 2041 1753.7 2041 1753.7 2041 1849.9 2074 1849.9 2074 1788 2074 1753.7 2074 1599.9 2417.2 1599.9 2417.2 1660.9 2323.1 1660.9 2323.1 1693.9 2450.3 1693.9 2450.3 1505.8 2732.4 1505.8 2732.4 1378.7 2638.4 1378.7 2638.4 1317.7 2800 1317.7 2800 1284.6 2605.3 1284.6"></polygon>
                <polygon class="maze" points="2638.4 626.3 2544.3 626.3 2544.3 565.3 2732.4 565.3 2732.4 344.1 2699.4 344.1 2699.4 532.2 2511.2 532.2 2511.2 659.3 2605.3 659.3 2605.3 753.4 2699.4 753.4 2699.4 908.4 2450.3 908.4 2450.3 814.4 2229.1 814.4 2229.1 847.4 2417.2 847.4 2417.2 1035.6 2544.3 1035.6 2544.3 1002.5 2450.3 1002.5 2450.3 941.5 2732.4 941.5 2732.4 753.4 2800 753.4 2800 720.3 2638.4 720.3"></polygon>
                <rect class="maze" x="2699.4" y="626.3" width="100.6" height="33.1"></rect>
                <rect class="maze" x="2699.4" y="250" width="100.6" height="33.1"></rect>
                <polygon class="maze" points="2262.2 1660.9 2135 1660.9 2135 1788 2168.1 1788 2168.1 1693.9 2229.1 1693.9 2229.1 1849.9 2262.2 1849.9 2262.2 1788 2356.2 1788 2356.2 1754.9 2262.2 1754.9"></polygon>
                <polygon class="maze" points="2511.2 1693.9 2544.3 1693.9 2544.3 1599.9 2699.4 1599.9 2699.4 1660.9 2605.3 1660.9 2605.3 1754.9 2417.2 1754.9 2417.2 1849.9 2450.3 1849.9 2450.3 1788 2638.4 1788 2638.4 1693.9 2732.4 1693.9 2732.4 1566.8 2511.2 1566.8"></polygon>
                <rect class="maze" x="2699.4" y="1754.9" width="33.1" height="95"></rect>
                <polygon class="maze" points="2638.7 471.2 2450.3 471.2 2450.3 720.3 2544.3 720.3 2544.3 814.4 2638.4 814.4 2638.4 847.4 2511.2 847.4 2511.2 753.4 2168.1 753.4 2168.1 908.4 2356.2 908.4 2356.2 1096.5 2699.4 1096.5 2699.4 1035.6 2605.3 1035.6 2605.3 1002.5 2732.4 1002.5 2732.4 1223.7 2544.3 1223.7 2544.3 1317.7 2511.2 1317.7 2511.2 1190.6 2699.4 1190.6 2699.4 1129.6 2229.1 1129.6 2229.1 1096.5 2323.1 1096.5 2323.1 941.5 2262.2 941.5 2262.2 1035.6 2168.1 1035.6 2168.1 1472.8 2323.1 1472.8 2323.1 1378.7 2356.2 1378.7 2356.2 1505.8 2135 1505.8 2135 1223.7 2041 1223.7 2041 1190.6 2135 1190.6 2135 1035.6 1885.9 1035.6 1885.9 1317.7 1791.9 1317.7 1791.9 1378.7 1980 1378.7 1980 1599.9 1946.9 1599.9 1946.9 1411.8 1758.8 1411.8 1758.8 1317.7 1476.6 1317.7 1476.6 1129.6 1415.7 1129.6 1415.7 1472.8 1603.8 1472.8 1603.8 1566.8 1791.9 1566.8 1791.9 1788 1758.8 1788 1758.8 1599.9 1603.8 1599.9 1603.8 1660.9 1697.8 1660.9 1697.8 1849.9 1664.7 1849.9 1664.7 1693.9 1603.8 1693.9 1603.8 1788 1476.6 1788 1476.6 1660.9 1509.7 1660.9 1509.7 1754.9 1570.7 1754.9 1570.7 1505.8 1509.7 1505.8 1509.7 1599.9 1476.6 1599.9 1476.6 1505.8 1227.5 1505.8 1227.5 1693.9 1039.4 1693.9 1039.4 1788 912.3 1788 912.3 1505.8 724.2 1505.8 724.2 1472.8 945.4 1472.8 945.4 1754.9 1006.4 1754.9 1006.4 1660.9 1194.5 1660.9 1194.5 1505.8 1100.4 1505.8 1100.4 1472.8 1382.6 1472.8 1382.6 1223.7 1194.5 1223.7 1194.5 1096.5 1227.5 1096.5 1227.5 1190.6 1382.6 1190.6 1382.6 1035.6 1321.6 1035.6 1321.6 1129.6 1288.5 1129.6 1288.5 847.4 945.4 847.4 945.4 908.4 1039.4 908.4 1039.4 941.5 912.3 941.5 912.3 814.4 1006.4 814.4 1006.4 753.4 912.3 753.4 912.3 720.3 1039.4 720.3 1039.4 814.4 1321.6 814.4 1321.6 1002.5 1509.7 1002.5 1509.7 1035.6 1415.7 1035.6 1415.7 1096.5 1570.7 1096.5 1570.7 1002.5 1603.8 1002.5 1603.8 1129.6 1509.7 1129.6 1509.7 1284.6 1852.9 1284.6 1852.9 1035.6 1758.8 1035.6 1758.8 908.4 1852.9 908.4 1852.9 847.4 1570.7 847.4 1570.7 626.3 1791.9 626.3 1791.9 659.3 1603.8 659.3 1603.8 814.4 1885.9 814.4 1885.9 941.5 1791.9 941.5 1791.9 1002.5 2041 1002.5 2041 814.4 2074 814.4 2074 1002.5 2229.1 1002.5 2229.1 941.5 2135 941.5 2135 753.4 2041 753.4 2041 471.2 1980 471.2 1980 565.3 1946.9 565.3 1946.9 438.1 2074 438.1 2074 720.3 2417.2 720.3 2417.2 471.2 2229.1 471.2 2229.1 250 2262.2 250 2262.2 438.1 2605.7 438.1 2605.7 250 2638.7 250"></polygon>
                <polygon class="maze" points="2638.4 61.9 2638.4 0 2605.3 0 2605.3 95 2699.4 95 2699.4 156 2544.3 156 2544.3 61.9 2544.1 61.9 2544.1 61.9 2324.9 61.9 2324.9 156 2136.8 156 2136.8 344.1 2075.8 344.1 2075.8 95 2230.8 95 2263.9 95 2263.9 95 2263.9 0 2230.8 0 2230.8 61.9 2042.7 61.9 2042.7 156 1981.8 156 1981.8 0 1948.7 0 1948.7 189 2042.7 189 2042.7 344.1 1948.7 344.1 1948.7 377.2 2136.8 377.2 2136.8 659.3 2169.9 659.3 2169.9 565.3 2230.8 565.3 2230.8 659.3 2358 659.3 2358 532.2 2324.9 532.2 2324.9 626.2 2263.9 626.2 2263.9 532.2 2169.9 532.2 2169.9 189 2324.9 189 2324.9 377.2 2452 377.2 2452 283.1 2513 283.1 2513 377.2 2546.1 377.2 2546.1 250 2419 250 2419 344.1 2358 344.1 2358 95 2511.2 95 2511.2 156 2417.2 156 2417.2 189.1 2638.4 189.1 2732.4 189.1 2732.4 61.9"></polygon>
                <polygon class="maze" points="665 1317.7 726 1317.7 726 1411.8 1008.1 1411.8 1008.1 1599.9 1135.3 1599.9 1135.3 1566.8 1041.2 1566.8 1041.2 1411.8 1135.3 1411.8 1135.3 1317.7 1196.2 1317.7 1196.2 1411.8 1323.4 1411.8 1323.4 1284.6 1290.3 1284.6 1290.3 1378.7 1229.3 1378.7 1229.3 1284.6 1135.3 1284.6 1135.3 941.5 1196.2 941.5 1196.2 1035.6 1229.3 1035.6 1229.3 908.4 1102.2 908.4 1102.2 1002.5 853.1 1002.5 853.1 626.2 665 626.2 665 377.2 820 377.2 820 532.2 759 532.2 759 438.1 726 438.1 726 565.3 914.1 565.3 914.1 659.3 1102.2 659.3 1102.2 753.4 1135.3 753.4 1135.3 626.2 947.1 626.2 947.1 532.2 853.1 532.2 853.1 283.1 914.1 283.1 914.1 471.2 1008.1 471.2 1008.1 565.3 1196.2 565.3 1196.2 753.4 1384.3 753.4 1384.3 941.5 1666.5 941.5 1666.5 1129.6 1760.6 1129.6 1760.6 1190.6 1572.5 1190.6 1572.5 1223.7 1793.6 1223.7 1793.6 1096.5 1699.6 1096.5 1699.6 908.4 1417.4 908.4 1417.4 720.3 1229.3 720.3 1229.3 532.2 1135.3 532.2 1135.3 377.2 1196.2 377.2 1196.2 471.2 1290.3 471.2 1290.3 659.3 1478.4 659.3 1478.4 847.4 1511.5 847.4 1511.5 626.2 1323.4 626.2 1323.4 438.1 1229.3 438.1 1229.3 377.2 1323.4 377.2 1323.4 283.1 1478.4 283.1 1478.4 344.1 1384.3 344.1 1384.3 565.3 1605.5 565.3 1605.5 438.1 1478.4 438.1 1478.4 471.2 1572.5 471.2 1572.5 532.2 1417.4 532.2 1417.4 377.2 1666.5 377.2 1666.5 565.3 1854.6 565.3 1854.6 659.3 1948.7 659.3 1948.7 720.3 1666.5 720.3 1666.5 753.4 1948.7 753.4 1948.7 941.5 1981.8 941.5 1981.8 626.2 1887.7 626.2 1887.7 532.2 1699.6 532.2 1699.6 344.1 1511.5 344.1 1511.5 95 1572.5 95 1572.5 283.1 1760.6 283.1 1760.6 471.2 1887.7 471.2 1887.7 283.1 1981.8 283.1 1981.8 250 1887.7 250 1887.7 61.9 1760.6 61.9 1760.6 95 1854.6 95 1854.6 156 1699.6 156 1699.6 0 1666.5 0 1666.5 189 1854.6 189 1854.6 438.1 1793.6 438.1 1793.6 250 1605.5 250 1605.5 61.9 1478.4 61.9 1478.4 250 1290.3 250 1290.3 344.1 1102.2 344.1 1102.2 532.2 1041.2 532.2 1041.2 283.1 1135.3 283.1 1135.3 250 1041.2 250 1041.2 0 1008.1 0 1008.1 156 820 156 820 189 1008.1 189 1008.1 438.1 947.1 438.1 947.1 250 759 250 759 61.9 631.9 61.9 631.9 156 537.8 156 537.8 344.1 349.7 344.1 349.7 438.1 288.8 438.1 288.8 283.1 476.9 283.1 476.9 95 570.9 95 570.9 61.9 570.9 0 537.8 0 537.8 61.9 443.8 61.9 443.8 250 382.8 250 382.8 156 349.7 156 349.7 250 288.8 250 288.8 156 255.7 156 255.7 344.1 194.7 344.1 194.7 156 0 156 0 189 161.6 189 161.6 626.2 67.6 626.2 67.6 753.4 100.6 753.4 100.6 659.3 194.7 659.3 194.7 377.2 255.7 377.2 255.7 659.3 443.8 659.3 443.8 814.4 255.7 814.4 255.7 941.5 288.8 941.5 288.8 847.4 476.9 847.4 476.9 626.2 288.8 626.2 288.8 471.2 570.9 471.2 570.9 438.1 382.8 438.1 382.8 377.2 570.9 377.2 570.9 189 665 189 665 95 726 95 726 283.1 820 283.1 820 344.1 665 344.1 665 250 631.9 250 631.9 659.3 820 659.3 820 1002.5 631.9 1002.5 631.9 1129.6 665 1129.6 665 1035.6 1102.2 1035.6 1102.2 1378.7 759 1378.7 759 1284.6 570.9 1284.6 570.9 1223.7 759 1223.7 759 1129.6 914.1 1129.6 914.1 1190.6 820 1190.6 820 1317.7 1041.2 1317.7 1041.2 1190.6 1008.1 1190.6 1008.1 1284.6 853.1 1284.6 853.1 1223.7 947.1 1223.7 947.1 1129.6 1041.2 1129.6 1041.2 1096.5 726 1096.5 726 1190.6 570.9 1190.6 570.9 847.4 726 847.4 726 908.4 631.9 908.4 631.9 941.5 759 941.5 759 720.3 570.9 720.3 570.9 532.2 349.7 532.2 349.7 565.3 537.8 565.3 537.8 753.4 726 753.4 726 814.4 537.8 814.4 537.8 908.4 443.8 908.4 443.8 1002.5 382.8 1002.5 382.8 908.4 349.7 908.4 349.7 1002.5 194.7 1002.5 194.7 753.4 382.8 753.4 382.8 720.3 161.6 720.3 161.6 1002.5 100.6 1002.5 100.6 908.4 67.6 908.4 67.6 1129.6 194.7 1129.6 194.7 1096.5 100.6 1096.5 100.6 1035.6 476.9 1035.6 476.9 941.5 537.8 941.5 537.8 1317.7 631.9 1317.7 631.9 1599.9 820 1599.9 820 1849.9 853.1 1849.9 853.1 1566.8 665 1566.8"></polygon>
            </g>
            <polyline id="solution" stroke="#7352ad" stroke-width="9.2248" points="882.5 1849.9 882.5 1538.8 694 1538.8 694 1444.6 976.7 1444.6 976.7 1633.1 1165.2 1633.1 1165.2 1538.8 1071 1538.8 1071 1444.6 1353.8 1444.6 1353.8 1256 1165.2 1256 1165.2 1067.5 1259.5 1067.5 1259.5 879 1071 879 1071 973.3 882.5 973.3 882.5 690.5 1070.3 690.5 1070.3 784.8 1353.8 784.8 1353.8 973.3 1636.5 973.3 1636.5 1162.5 1542.3 1162.5 1542.3 1256 1825 1256 1825 1067.5 1730.8 1067.5 1730.8 879 1542.3 879 1542.3 596.2 1824 596.2 1824 690.5 1637 690.5 1637 784.8 1918.2 784.8 1918.2 973.3 2012.2 973.3 2012.2 596.9 1918.2 596.9 1918.2 408.8 2107 408.8 2107 690.9 2388.5 690.9 2388.5 502.9 2200.6 502.9 2200.6 221.1 2294.9 221.1 2294.9 408.8 2577.1 408.8 2577.1 220.2 2800.7 220.2"></polyline>
        </g>
    </g>
</svg>