<?xml version="1.0" encoding="utf-8"?>
<!-- Generator: Adobe Illustrator 23.0.1, SVG Export Plug-In . SVG Version: 6.00 Build 0)  -->
<svg version="1.1" xmlns="http://www.w3.org/2000/svg" xmlns:xlink="http://www.w3.org/1999/xlink" x="0px" y="0px" width="1850px"
	 height="1850px" viewBox="0 0 1850 1850" style="enable-background:new 0 0 1850 1850;" xml:space="preserve">
<style type="text/css">
	.st0{fill:#A49D96;}
	.st1{fill:#7352AD;}
</style>
<g id="maze">
	<g>
		<g>
			<polygon class="st0" points="627.5,282.3 660.6,282.3 660.6,188.2 848.7,188.2 848.7,60.9 721.6,60.9 721.6,94 815.6,94 
				815.6,155.1 660.6,155.1 660.6,0 627.5,0 627.5,155.1 566.6,155.1 566.6,60.9 533.5,60.9 533.5,188.2 627.5,188.2 			"/>
			<polygon class="st0" points="1507.1,376.4 1507.1,155.1 1413.1,155.1 1413.1,0 1380,0 1380,188.2 1474,188.2 1474,343.3 
				1380,343.3 1380,376.4 			"/>
			<polygon class="st0" points="1568.1,658.7 1601.2,658.7 1601.2,564.6 1662.1,564.6 1662.1,658.7 1789.3,658.7 1789.3,531.5 
				1756.2,531.5 1756.2,625.6 1695.2,625.6 1695.2,531.5 1601.2,531.5 1601.2,188.2 1756.2,188.2 1756.2,376.4 1850,376.4 
				1850,343.3 1789.3,343.3 1789.3,94 1850,94 1850,60.9 1756.2,60.9 1756.2,155.1 1568.1,155.1 			"/>
			<rect x="533.5" y="1753.8" class="st0" width="33.1" height="96.2"/>
			<polygon class="st0" points="721.6,1753.8 627.5,1753.8 627.5,1786.9 721.6,1786.9 721.6,1850 754.7,1850 754.7,1599.8 
				815.6,1599.8 815.6,1692.8 848.7,1692.8 848.7,1566.7 721.6,1566.7 			"/>
			<rect x="815.6" y="1753.8" class="st0" width="33.1" height="96.2"/>
			<polygon class="st0" points="378.4,60.9 284.4,60.9 284.4,0 251.3,0 251.3,94 378.4,94 			"/>
			<polygon class="st0" points="0,1693.7 63.2,1693.7 63.2,1786.9 190.3,1786.9 190.3,1660.8 157.2,1660.8 157.2,1753.8 
				96.3,1753.8 96.3,1660.6 0,1660.6 			"/>
			<polygon class="st0" points="1850,1599.8 1505.3,1599.8 1505.3,1753.8 1505.3,1788.1 1505.3,1850 1472.3,1850 1472.3,1753.8 
				1472.3,1753.8 1472.3,1693.9 1411.3,1693.9 1411.3,1788.1 1284.2,1788.1 1284.2,1505.7 1096,1505.7 1096,1411.6 907.9,1411.6 
				907.9,1378.5 1129.1,1378.5 1129.1,1472.6 1317.2,1472.6 1317.2,1755 1378.2,1755 1378.2,1660.8 1472.3,1660.8 1472.3,1317.5 
				1378.2,1317.5 1378.2,1096.2 1505.3,1096.2 1505.3,1129.3 1411.3,1129.3 1411.3,1284.4 1505.3,1284.4 1505.3,1566.7 1850,1566.7 
							"/>
			<polygon class="st0" points="1850,1223.4 1787.5,1223.4 1787.5,1317.5 1693.5,1317.5 1693.5,1411.6 1660.4,1411.6 1660.4,1190.3 
				1693.5,1190.3 1693.5,1284.4 1754.4,1284.4 1754.4,1190.3 1850,1190.3 			"/>
			<rect x="1754.4" y="1660.8" class="st0" width="95.6" height="33.1"/>
			<rect x="1660.4" y="813.8" class="st0" width="189.6" height="33.1"/>
			<polygon class="st0" points="1693.5,1660.8 1566.3,1660.8 1566.3,1788.1 1599.4,1788.1 1599.4,1693.9 1660.4,1693.9 1660.4,1850 
				1693.5,1850 1693.5,1788.1 1787.5,1788.1 1787.5,1755 1693.5,1755 			"/>
			<polygon class="st0" points="1850,752.8 1599.4,752.8 1599.4,908 1787.5,908 1787.5,1096.2 1850,1096.2 1850,1129.3 
				1660.4,1129.3 1660.4,1096.2 1754.4,1096.2 1754.4,941.1 1693.5,941.1 1693.5,1035.2 1599.4,1035.2 1599.4,1472.6 1754.4,1472.6 
				1754.4,1378.5 1787.5,1378.5 1787.5,1505.7 1566.3,1505.7 1566.3,1223.4 1472.3,1223.4 1472.3,1190.3 1566.3,1190.3 
				1566.3,1035.2 1317.2,1035.2 1317.2,1317.5 1223.2,1317.5 1223.2,1378.5 1411.3,1378.5 1411.3,1599.8 1378.2,1599.8 
				1378.2,1411.6 1190.1,1411.6 1190.1,1317.5 907.9,1317.5 907.9,1129.3 847,1129.3 847,1472.6 1035.1,1472.6 1035.1,1566.7 
				1223.2,1566.7 1223.2,1788.1 1190.1,1788.1 1190.1,1599.8 1035.1,1599.8 1035.1,1660.8 1129.1,1660.8 1129.1,1850 1096,1850 
				1096,1693.9 1035.1,1693.9 1035.1,1788.1 907.9,1788.1 907.9,1660.8 941,1660.8 941,1755 1002,1755 1002,1505.7 941,1505.7 
				941,1599.8 907.9,1599.8 907.9,1505.7 658.8,1505.7 658.8,1693.9 470.7,1693.9 470.7,1788.1 343.6,1788.1 343.6,1505.7 
				155.5,1505.7 155.5,1472.6 376.7,1472.6 376.7,1755 437.6,1755 437.6,1660.8 625.8,1660.8 625.8,1505.7 531.7,1505.7 
				531.7,1472.6 813.9,1472.6 813.9,1223.4 625.8,1223.4 625.8,1096.2 658.8,1096.2 658.8,1190.3 813.9,1190.3 813.9,1035.2 
				752.9,1035.2 752.9,1129.3 719.8,1129.3 719.8,846.9 376.7,846.9 376.7,908 470.7,908 470.7,941.1 343.6,941.1 343.6,813.8 
				437.6,813.8 437.6,752.8 343.6,752.8 343.6,719.7 470.7,719.7 470.7,813.8 752.9,813.8 752.9,1002.1 941,1002.1 941,1035.2 
				847,1035.2 847,1096.2 1002,1096.2 1002,1002.1 1035.1,1002.1 1035.1,1129.3 941,1129.3 941,1284.4 1284.2,1284.4 1284.2,1035.2 
				1190.1,1035.2 1190.1,908 1284.2,908 1284.2,846.9 1002,846.9 1002,625.6 1223.2,625.6 1223.2,658.7 1035.1,658.7 1035.1,813.8 
				1317.2,813.8 1317.2,941.1 1223.2,941.1 1223.2,1002.1 1472.3,1002.1 1472.3,813.8 1505.3,813.8 1505.3,1002.1 1660.4,1002.1 
				1660.4,941.1 1566.3,941.1 1566.3,752.8 1472.3,752.8 1472.3,470.5 1411.3,470.5 1411.3,564.6 1378.2,564.6 1378.2,437.4 
				1505.3,437.4 1505.3,719.7 1850,719.7 			"/>
			<polygon class="st0" points="1850,470.5 1660.4,470.5 1660.4,249.2 1693.5,249.2 1693.5,437.4 1850,437.4 			"/>
			<polygon class="st0" points="0,846.9 157.2,846.9 157.2,907.9 63.2,907.9 63.2,941 190.3,941 190.3,719.7 0,719.7 0,752.8 
				157.2,752.8 157.2,813.8 0,813.8 			"/>
			<polygon class="st0" points="0,1223.4 190.3,1223.4 190.3,1129.3 345.4,1129.3 345.4,1190.3 251.3,1190.3 251.3,1317.5 
				472.5,1317.5 472.5,1190.3 439.4,1190.3 439.4,1284.4 284.4,1284.4 284.4,1223.4 378.4,1223.4 378.4,1129.3 472.5,1129.3 
				472.5,1096.2 157.2,1096.2 157.2,1190.3 0,1190.3 			"/>
			<polygon class="st0" points="0,188.2 96.3,188.2 96.3,94 157.2,94 157.2,282.3 251.3,282.3 251.3,343.3 96.3,343.3 96.3,249.2 
				63.2,249.2 63.2,658.7 251.3,658.7 251.3,1002.1 63.2,1002.1 63.2,1129.3 96.3,1129.3 96.3,1035.2 533.5,1035.2 533.5,1378.5 
				190.3,1378.5 190.3,1284.4 0,1284.4 0,1317.5 63.2,1317.5 63.2,1599.8 251.3,1599.8 251.3,1850 284.4,1850 284.4,1566.7 
				96.3,1566.7 96.3,1317.5 157.2,1317.5 157.2,1411.6 439.4,1411.6 439.4,1599.8 566.6,1599.8 566.6,1566.7 472.5,1566.7 
				472.5,1411.6 566.6,1411.6 566.6,1317.5 627.5,1317.5 627.5,1411.6 754.7,1411.6 754.7,1284.4 721.6,1284.4 721.6,1378.5 
				660.6,1378.5 660.6,1284.4 566.6,1284.4 566.6,941 627.5,941 627.5,1035.2 660.6,1035.2 660.6,907.9 533.5,907.9 533.5,1002.1 
				284.4,1002.1 284.4,625.6 96.3,625.6 96.3,376.4 251.3,376.4 251.3,531.5 190.3,531.5 190.3,437.4 157.2,437.4 157.2,564.6 
				345.4,564.6 345.4,658.7 533.5,658.7 533.5,752.8 566.6,752.8 566.6,625.6 378.4,625.6 378.4,531.5 284.4,531.5 284.4,282.3 
				345.4,282.3 345.4,470.5 439.4,470.5 439.4,564.6 627.5,564.6 627.5,752.8 815.6,752.8 815.6,941 1097.8,941 1097.8,1129.3 
				1191.9,1129.3 1191.9,1190.3 1003.8,1190.3 1003.8,1223.4 1224.9,1223.4 1224.9,1096.2 1130.9,1096.2 1130.9,907.9 848.7,907.9 
				848.7,719.7 660.6,719.7 660.6,531.5 566.6,531.5 566.6,376.4 627.5,376.4 627.5,470.5 721.6,470.5 721.6,658.7 909.7,658.7 
				909.7,846.9 942.8,846.9 942.8,625.6 754.7,625.6 754.7,437.4 660.6,437.4 660.6,376.4 754.7,376.4 754.7,282.3 909.7,282.3 
				909.7,343.3 815.6,343.3 815.6,564.6 1036.8,564.6 1036.8,437.4 909.7,437.4 909.7,470.5 1003.8,470.5 1003.8,531.5 848.7,531.5 
				848.7,376.4 1097.8,376.4 1097.8,564.6 1285.9,564.6 1285.9,658.7 1380,658.7 1380,719.7 1097.8,719.7 1097.8,752.8 1380,752.8 
				1380,941 1413.1,941 1413.1,625.6 1319,625.6 1319,531.5 1130.9,531.5 1130.9,343.3 942.8,343.3 942.8,94 1003.8,94 
				1003.8,282.3 1191.9,282.3 1191.9,470.5 1319,470.5 1319,282.3 1413.1,282.3 1413.1,249.2 1319,249.2 1319,60.9 1191.9,60.9 
				1191.9,94 1285.9,94 1285.9,155.1 1130.9,155.1 1130.9,0 1097.8,0 1097.8,188.2 1285.9,188.2 1285.9,437.4 1224.9,437.4 
				1224.9,249.2 1036.8,249.2 1036.8,60.9 909.7,60.9 909.7,249.2 721.6,249.2 721.6,343.3 533.5,343.3 533.5,531.5 472.5,531.5 
				472.5,282.3 566.6,282.3 566.6,249.2 472.5,249.2 472.5,0 439.4,0 439.4,155.1 251.3,155.1 251.3,188.2 439.4,188.2 439.4,437.4 
				378.4,437.4 378.4,249.2 190.3,249.2 190.3,60.9 63.2,60.9 63.2,155.1 0,155.1 			"/>
		</g>
		<polygon class="st0" points="1695.2,94 1507.1,94 1474,94 1474,94 1474,0 1507.1,0 1507.1,60.9 1695.2,60.9 		"/>
	</g>
</g>
<g id="solutionn">
	<g>
		<g>
			<g>
				<g>
					<g>
						<g>
							<path class="st1" d="M313.8,1543.7c-1.3,0-2.6-0.5-3.5-1.5c-0.2-0.2-0.4-0.5-0.6-0.8c-0.2-0.3-0.3-0.6-0.5-0.9
								c-0.1-0.3-0.2-0.6-0.3-0.9c-0.1-0.3-0.1-0.6-0.1-1s0-0.7,0.1-1c0.1-0.3,0.2-0.6,0.3-0.9c0.1-0.3,0.3-0.6,0.5-0.9
								c0.2-0.3,0.4-0.5,0.6-0.8c0.2-0.2,0.5-0.4,0.8-0.6c0.3-0.2,0.6-0.3,0.9-0.5c0.3-0.1,0.6-0.2,0.9-0.3c0.6-0.1,1.3-0.1,1.9,0
								c0.3,0.1,0.6,0.2,0.9,0.3c0.3,0.1,0.6,0.3,0.9,0.5s0.5,0.4,0.8,0.6c0.2,0.2,0.4,0.5,0.6,0.8c0.2,0.3,0.3,0.6,0.5,0.9
								c0.1,0.3,0.2,0.6,0.3,0.9c0.1,0.3,0.1,0.7,0.1,1s0,0.6-0.1,1c-0.1,0.3-0.2,0.6-0.3,0.9c-0.1,0.3-0.3,0.6-0.5,0.9
								c-0.2,0.3-0.4,0.5-0.6,0.8C316.4,1543.2,315.1,1543.7,313.8,1543.7z"/>
						</g>
						<g>
							<path class="st1" d="M287.8,1538.7c0-2.8,2.2-5,5-5l0,0c2.8,0,5,2.2,5,5l0,0c0,2.8-2.2,5-5,5l0,0
								C290.1,1543.7,287.8,1541.5,287.8,1538.7z M266.9,1538.7c0-2.8,2.2-5,5-5l0,0c2.8,0,5,2.2,5,5l0,0c0,2.8-2.2,5-5,5l0,0
								C269.1,1543.7,266.9,1541.5,266.9,1538.7z M245.9,1538.7c0-2.8,2.2-5,5-5l0,0c2.8,0,5,2.2,5,5l0,0c0,2.8-2.2,5-5,5l0,0
								C248.2,1543.7,245.9,1541.5,245.9,1538.7z M225,1538.7c0-2.8,2.2-5,5-5l0,0c2.8,0,5,2.2,5,5l0,0c0,2.8-2.2,5-5,5l0,0
								C227.2,1543.7,225,1541.5,225,1538.7z M204,1538.7c0-2.8,2.2-5,5-5l0,0c2.8,0,5,2.2,5,5l0,0c0,2.8-2.2,5-5,5l0,0
								C206.3,1543.7,204,1541.5,204,1538.7z M183.1,1538.7c0-2.8,2.2-5,5-5l0,0c2.8,0,5,2.2,5,5l0,0c0,2.8-2.2,5-5,5l0,0
								C185.3,1543.7,183.1,1541.5,183.1,1538.7z M162.1,1538.7c0-2.8,2.2-5,5-5l0,0c2.8,0,5,2.2,5,5l0,0c0,2.8-2.2,5-5,5l0,0
								C164.4,1543.7,162.1,1541.5,162.1,1538.7z M141.2,1538.7c0-2.8,2.2-5,5-5l0,0c2.8,0,5,2.2,5,5l0,0c0,2.8-2.2,5-5,5l0,0
								C143.4,1543.7,141.2,1541.5,141.2,1538.7z"/>
						</g>
						<g>
							<path class="st1" d="M125.2,1543.7c-1.3,0-2.6-0.5-3.5-1.5c-0.2-0.2-0.4-0.5-0.6-0.8c-0.2-0.3-0.3-0.6-0.5-0.9
								c-0.1-0.3-0.2-0.6-0.3-0.9c-0.1-0.3-0.1-0.6-0.1-1s0-0.7,0.1-1c0.1-0.3,0.2-0.6,0.3-0.9c0.1-0.3,0.3-0.6,0.5-0.9
								c0.2-0.3,0.4-0.5,0.6-0.8c0.2-0.2,0.5-0.4,0.8-0.6s0.6-0.3,0.9-0.5c0.3-0.1,0.6-0.2,0.9-0.3c1.6-0.3,3.3,0.2,4.5,1.4
								c0.2,0.2,0.4,0.5,0.6,0.8c0.2,0.3,0.3,0.6,0.5,0.9c0.1,0.3,0.2,0.6,0.3,0.9c0.1,0.3,0.1,0.7,0.1,1s0,0.6-0.1,1
								c-0.1,0.3-0.2,0.6-0.3,0.9c-0.1,0.3-0.3,0.6-0.5,0.9c-0.2,0.3-0.4,0.5-0.6,0.8C127.8,1543.2,126.6,1543.7,125.2,1543.7z"/>
						</g>
						<g>
							<path class="st1" d="M120.2,1519.8c0-2.8,2.2-5,5-5l0,0c2.8,0,5,2.2,5,5l0,0c0,2.8-2.2,5-5,5l0,0
								C122.5,1524.8,120.2,1522.6,120.2,1519.8z M120.2,1501c0-2.8,2.2-5,5-5l0,0c2.8,0,5,2.2,5,5l0,0c0,2.8-2.2,5-5,5l0,0
								C122.5,1506,120.2,1503.7,120.2,1501z M120.2,1482.1c0-2.8,2.2-5,5-5l0,0c2.8,0,5,2.2,5,5l0,0c0,2.8-2.2,5-5,5l0,0
								C122.5,1487.1,120.2,1484.9,120.2,1482.1z M120.2,1463.3c0-2.8,2.2-5,5-5l0,0c2.8,0,5,2.2,5,5l0,0c0,2.8-2.2,5-5,5l0,0
								C122.5,1468.3,120.2,1466,120.2,1463.3z"/>
						</g>
						<g>
							<path class="st1" d="M125.2,1449.4c-0.3,0-0.7,0-1-0.1c-0.3-0.1-0.6-0.2-0.9-0.3c-0.3-0.1-0.6-0.3-0.9-0.5s-0.5-0.4-0.8-0.6
								c-0.2-0.2-0.4-0.5-0.6-0.8c-0.2-0.3-0.3-0.6-0.5-0.9c-0.1-0.3-0.2-0.6-0.3-0.9c-0.1-0.3-0.1-0.7-0.1-1c0-0.3,0-0.7,0.1-1
								c0.1-0.3,0.2-0.6,0.3-0.9c0.1-0.3,0.3-0.6,0.5-0.9c0.2-0.3,0.4-0.5,0.6-0.8c0.2-0.2,0.5-0.4,0.8-0.6c0.3-0.2,0.6-0.3,0.9-0.5
								c0.3-0.1,0.6-0.2,0.9-0.3c0.6-0.1,1.3-0.1,1.9,0c0.3,0.1,0.6,0.2,0.9,0.3c0.3,0.1,0.6,0.3,0.9,0.5c0.3,0.2,0.5,0.4,0.8,0.6
								c0.9,0.9,1.5,2.2,1.5,3.5c0,0.3,0,0.7-0.1,1c-0.1,0.3-0.2,0.6-0.3,0.9c-0.1,0.3-0.3,0.6-0.5,0.9c-0.2,0.3-0.4,0.5-0.6,0.8
								C127.8,1448.9,126.6,1449.4,125.2,1449.4z"/>
						</g>
						<g>
							<path class="st1" d="M382.8,1444.4c0-2.8,2.2-5,5-5l0,0c2.8,0,5,2.2,5,5l0,0c0,2.8-2.2,5-5,5l0,0
								C385.1,1449.4,382.8,1447.2,382.8,1444.4z M362.6,1444.4c0-2.8,2.2-5,5-5l0,0c2.8,0,5,2.2,5,5l0,0c0,2.8-2.2,5-5,5l0,0
								C364.9,1449.4,362.6,1447.2,362.6,1444.4z M342.4,1444.4c0-2.8,2.2-5,5-5l0,0c2.8,0,5,2.2,5,5l0,0c0,2.8-2.2,5-5,5l0,0
								C344.7,1449.4,342.4,1447.2,342.4,1444.4z M322.2,1444.4c0-2.8,2.2-5,5-5l0,0c2.8,0,5,2.2,5,5l0,0c0,2.8-2.2,5-5,5l0,0
								C324.5,1449.4,322.2,1447.2,322.2,1444.4z M302,1444.4c0-2.8,2.2-5,5-5l0,0c2.8,0,5,2.2,5,5l0,0c0,2.8-2.2,5-5,5l0,0
								C304.3,1449.4,302,1447.2,302,1444.4z M281.8,1444.4c0-2.8,2.2-5,5-5l0,0c2.8,0,5,2.2,5,5l0,0c0,2.8-2.2,5-5,5l0,0
								C284.1,1449.4,281.8,1447.2,281.8,1444.4z M261.6,1444.4c0-2.8,2.2-5,5-5l0,0c2.8,0,5,2.2,5,5l0,0c0,2.8-2.2,5-5,5l0,0
								C263.9,1449.4,261.6,1447.2,261.6,1444.4z M241.4,1444.4c0-2.8,2.2-5,5-5l0,0c2.8,0,5,2.2,5,5l0,0c0,2.8-2.2,5-5,5l0,0
								C243.7,1449.4,241.4,1447.2,241.4,1444.4z M221.2,1444.4c0-2.8,2.2-5,5-5l0,0c2.8,0,5,2.2,5,5l0,0c0,2.8-2.2,5-5,5l0,0
								C223.5,1449.4,221.2,1447.2,221.2,1444.4z M201,1444.4c0-2.8,2.2-5,5-5l0,0c2.8,0,5,2.2,5,5l0,0c0,2.8-2.2,5-5,5l0,0
								C203.3,1449.4,201,1447.2,201,1444.4z M180.8,1444.4c0-2.8,2.2-5,5-5l0,0c2.8,0,5,2.2,5,5l0,0c0,2.8-2.2,5-5,5l0,0
								C183.1,1449.4,180.8,1447.2,180.8,1444.4z M160.6,1444.4c0-2.8,2.2-5,5-5l0,0c2.8,0,5,2.2,5,5l0,0c0,2.8-2.2,5-5,5l0,0
								C162.9,1449.4,160.6,1447.2,160.6,1444.4z M140.4,1444.4c0-2.8,2.2-5,5-5l0,0c2.8,0,5,2.2,5,5l0,0c0,2.8-2.2,5-5,5l0,0
								C142.7,1449.4,140.4,1447.2,140.4,1444.4z"/>
						</g>
						<g>
							<path class="st1" d="M408,1449.4c-0.3,0-0.7,0-1-0.1c-0.3-0.1-0.6-0.2-0.9-0.3c-0.3-0.1-0.6-0.3-0.9-0.5
								c-0.3-0.2-0.5-0.4-0.8-0.6c-0.2-0.2-0.4-0.5-0.6-0.8c-0.2-0.3-0.3-0.6-0.5-0.9c-0.1-0.3-0.2-0.6-0.3-0.9
								c-0.1-0.3-0.1-0.7-0.1-1c0-0.3,0-0.7,0.1-1c0.1-0.3,0.2-0.6,0.3-0.9c0.1-0.3,0.3-0.6,0.5-0.9c0.2-0.3,0.4-0.5,0.6-0.8
								c0.2-0.2,0.5-0.4,0.8-0.6c0.3-0.2,0.6-0.3,0.9-0.5c0.3-0.1,0.6-0.2,0.9-0.3c1.6-0.3,3.3,0.2,4.5,1.4c0.2,0.2,0.4,0.5,0.6,0.8
								c0.2,0.3,0.3,0.6,0.5,0.9c0.1,0.3,0.2,0.6,0.3,0.9c0.1,0.3,0.1,0.6,0.1,1c0,0.3,0,0.7-0.1,1c-0.1,0.3-0.2,0.6-0.3,0.9
								c-0.1,0.3-0.3,0.6-0.5,0.9c-0.2,0.3-0.4,0.5-0.6,0.8C410.6,1448.9,409.3,1449.4,408,1449.4z"/>
						</g>
						<g>
							<path class="st1" d="M403,1612.1c0-2.8,2.2-5,5-5l0,0c2.8,0,5,2.2,5,5l0,0c0,2.8-2.2,5-5,5l0,0
								C405.3,1617.1,403,1614.8,403,1612.1z M403,1591.1c0-2.8,2.2-5,5-5l0,0c2.8,0,5,2.2,5,5l0,0c0,2.8-2.2,5-5,5l0,0
								C405.3,1596.1,403,1593.9,403,1591.1z M403,1570.1c0-2.8,2.2-5,5-5l0,0c2.8,0,5,2.2,5,5l0,0c0,2.8-2.2,5-5,5l0,0
								C405.3,1575.1,403,1572.9,403,1570.1z M403,1549.2c0-2.8,2.2-5,5-5l0,0c2.8,0,5,2.2,5,5l0,0c0,2.8-2.2,5-5,5l0,0
								C405.3,1554.2,403,1552,403,1549.2z M403,1528.2c0-2.8,2.2-5,5-5l0,0c2.8,0,5,2.2,5,5l0,0c0,2.8-2.2,5-5,5l0,0
								C405.3,1533.2,403,1531,403,1528.2z M403,1507.3c0-2.8,2.2-5,5-5l0,0c2.8,0,5,2.2,5,5l0,0c0,2.8-2.2,5-5,5l0,0
								C405.3,1512.3,403,1510,403,1507.3z M403,1486.3c0-2.8,2.2-5,5-5l0,0c2.8,0,5,2.2,5,5l0,0c0,2.8-2.2,5-5,5l0,0
								C405.3,1491.3,403,1489.1,403,1486.3z M403,1465.4c0-2.8,2.2-5,5-5l0,0c2.8,0,5,2.2,5,5l0,0c0,2.8-2.2,5-5,5l0,0
								C405.3,1470.4,403,1468.1,403,1465.4z"/>
						</g>
						<g>
							<path class="st1" d="M408,1638c-1.3,0-2.6-0.5-3.5-1.5c-0.2-0.2-0.4-0.5-0.6-0.8c-0.2-0.3-0.3-0.6-0.5-0.9
								c-0.1-0.3-0.2-0.6-0.3-0.9c-0.1-0.3-0.1-0.7-0.1-1c0-1.3,0.5-2.6,1.5-3.5c1.2-1.2,2.9-1.7,4.5-1.4c0.3,0.1,0.6,0.2,0.9,0.3
								c0.3,0.1,0.6,0.3,0.9,0.4c0.3,0.2,0.5,0.4,0.8,0.6c0.9,0.9,1.5,2.2,1.5,3.5c0,0.3,0,0.7-0.1,1c-0.1,0.3-0.2,0.6-0.3,0.9
								c-0.1,0.3-0.3,0.6-0.5,0.9c-0.2,0.3-0.4,0.5-0.6,0.8c-0.2,0.2-0.5,0.4-0.8,0.6s-0.6,0.3-0.9,0.5c-0.3,0.1-0.6,0.2-0.9,0.3
								C408.7,1638,408.3,1638,408,1638z"/>
						</g>
						<g>
							<path class="st1" d="M570.6,1633c0-2.8,2.2-5,5-5l0,0c2.8,0,5,2.2,5,5l0,0c0,2.8-2.2,5-5,5l0,0
								C572.8,1638,570.6,1635.8,570.6,1633z M549.6,1633c0-2.8,2.2-5,5-5l0,0c2.8,0,5,2.2,5,5l0,0c0,2.8-2.2,5-5,5l0,0
								C551.9,1638,549.6,1635.8,549.6,1633z M528.7,1633c0-2.8,2.2-5,5-5l0,0c2.8,0,5,2.2,5,5l0,0c0,2.8-2.2,5-5,5l0,0
								C530.9,1638,528.7,1635.8,528.7,1633z M507.8,1633c0-2.8,2.2-5,5-5l0,0c2.8,0,5,2.2,5,5l0,0c0,2.8-2.2,5-5,5l0,0
								C510,1638,507.8,1635.8,507.8,1633z M486.8,1633c0-2.8,2.2-5,5-5l0,0c2.8,0,5,2.2,5,5l0,0c0,2.8-2.2,5-5,5l0,0
								C489,1638,486.8,1635.8,486.8,1633z M465.9,1633c0-2.8,2.2-5,5-5l0,0c2.8,0,5,2.2,5,5l0,0c0,2.8-2.2,5-5,5l0,0
								C468.1,1638,465.9,1635.8,465.9,1633z M444.9,1633c0-2.8,2.2-5,5-5l0,0c2.8,0,5,2.2,5,5l0,0c0,2.8-2.2,5-5,5l0,0
								C447.1,1638,444.9,1635.8,444.9,1633z M424,1633c0-2.8,2.2-5,5-5l0,0c2.8,0,5,2.2,5,5l0,0c0,2.8-2.2,5-5,5l0,0
								C426.2,1638,424,1635.8,424,1633z"/>
						</g>
						<g>
							<path class="st1" d="M596.5,1638c-1.3,0-2.6-0.5-3.5-1.5c-0.2-0.2-0.4-0.5-0.6-0.8s-0.3-0.6-0.5-0.9
								c-0.1-0.3-0.2-0.6-0.3-0.9c-0.1-0.3-0.1-0.7-0.1-1c0-0.3,0-0.6,0.1-1c0.1-0.3,0.2-0.6,0.3-0.9c0.1-0.3,0.3-0.6,0.5-0.9
								c0.2-0.3,0.4-0.5,0.6-0.8c0.2-0.2,0.5-0.4,0.8-0.6c0.3-0.2,0.6-0.3,0.9-0.4c0.3-0.1,0.6-0.2,0.9-0.3c0.6-0.1,1.3-0.1,1.9,0
								c0.3,0.1,0.6,0.2,0.9,0.3c0.3,0.1,0.6,0.3,0.9,0.4c0.3,0.2,0.5,0.4,0.8,0.6c0.9,0.9,1.5,2.2,1.5,3.5c0,0.3,0,0.7-0.1,1
								c-0.1,0.3-0.2,0.6-0.3,0.9c-0.1,0.3-0.3,0.6-0.5,0.9c-0.2,0.3-0.4,0.5-0.6,0.8c-0.2,0.2-0.5,0.4-0.8,0.6
								c-0.3,0.2-0.6,0.3-0.9,0.5c-0.3,0.1-0.6,0.2-0.9,0.3C597.2,1638,596.9,1638,596.5,1638z"/>
						</g>
						<g>
							<path class="st1" d="M591.5,1614.2c0-2.8,2.2-5,5-5l0,0c2.8,0,5,2.2,5,5l0,0c0,2.8-2.2,5-5,5l0,0
								C593.8,1619.2,591.5,1616.9,591.5,1614.2z M591.5,1595.3c0-2.8,2.2-5,5-5l0,0c2.8,0,5,2.2,5,5l0,0c0,2.8-2.2,5-5,5l0,0
								C593.8,1600.3,591.5,1598.1,591.5,1595.3z M591.5,1576.4c0-2.8,2.2-5,5-5l0,0c2.8,0,5,2.2,5,5l0,0c0,2.8-2.2,5-5,5l0,0
								C593.8,1581.4,591.5,1579.2,591.5,1576.4z M591.5,1557.6c0-2.8,2.2-5,5-5l0,0c2.8,0,5,2.2,5,5l0,0c0,2.8-2.2,5-5,5l0,0
								C593.8,1562.6,591.5,1560.3,591.5,1557.6z"/>
						</g>
						<g>
							<path class="st1" d="M596.5,1543.7c-1.3,0-2.6-0.5-3.5-1.5c-0.2-0.2-0.4-0.5-0.6-0.8c-0.2-0.3-0.3-0.6-0.5-0.9
								c-0.1-0.3-0.2-0.6-0.3-0.9c-0.1-0.3-0.1-0.6-0.1-1s0-0.7,0.1-1c0.1-0.3,0.2-0.6,0.3-0.9c0.1-0.3,0.3-0.6,0.5-0.9
								c0.2-0.3,0.4-0.5,0.6-0.8c1.2-1.2,2.9-1.7,4.5-1.4c0.3,0.1,0.6,0.2,0.9,0.3c0.3,0.1,0.6,0.3,0.9,0.5c0.3,0.2,0.5,0.4,0.8,0.6
								c0.2,0.2,0.4,0.5,0.6,0.8c0.2,0.3,0.3,0.6,0.5,0.9c0.1,0.3,0.2,0.6,0.3,0.9c0.1,0.3,0.1,0.7,0.1,1s0,0.6-0.1,1
								c-0.1,0.3-0.2,0.6-0.3,0.9c-0.1,0.3-0.3,0.6-0.5,0.9c-0.2,0.3-0.4,0.5-0.6,0.8C599.1,1543.2,597.8,1543.7,596.5,1543.7z"/>
						</g>
						<g>
							<path class="st1" d="M572.7,1538.7c0-2.8,2.2-5,5-5l0,0c2.8,0,5,2.2,5,5l0,0c0,2.8-2.2,5-5,5l0,0
								C574.9,1543.7,572.7,1541.5,572.7,1538.7z M553.8,1538.7c0-2.8,2.2-5,5-5l0,0c2.8,0,5,2.2,5,5l0,0c0,2.8-2.2,5-5,5l0,0
								C556.1,1543.7,553.8,1541.5,553.8,1538.7z M535,1538.7c0-2.8,2.2-5,5-5l0,0c2.8,0,5,2.2,5,5l0,0c0,2.8-2.2,5-5,5l0,0
								C537.2,1543.7,535,1541.5,535,1538.7z M516.1,1538.7c0-2.8,2.2-5,5-5l0,0c2.8,0,5,2.2,5,5l0,0c0,2.8-2.2,5-5,5l0,0
								C518.4,1543.7,516.1,1541.5,516.1,1538.7z"/>
						</g>
						<g>
							<path class="st1" d="M502.3,1543.7c-1.3,0-2.6-0.5-3.5-1.5c-0.2-0.2-0.4-0.5-0.6-0.8c-0.2-0.3-0.3-0.6-0.5-0.9
								c-0.1-0.3-0.2-0.6-0.3-0.9c-0.1-0.3-0.1-0.6-0.1-1s0-0.7,0.1-1c0.1-0.3,0.2-0.6,0.3-0.9c0.1-0.3,0.3-0.6,0.5-0.9
								c0.2-0.3,0.4-0.5,0.6-0.8c0.2-0.2,0.5-0.4,0.8-0.6s0.6-0.3,0.9-0.5c0.3-0.1,0.6-0.2,0.9-0.3c1.6-0.3,3.4,0.2,4.5,1.4
								c0.2,0.2,0.4,0.5,0.6,0.8c0.2,0.3,0.3,0.6,0.5,0.9c0.1,0.3,0.2,0.6,0.3,0.9c0.1,0.3,0.1,0.7,0.1,1s0,0.6-0.1,1
								c-0.1,0.3-0.2,0.6-0.3,0.9c-0.1,0.3-0.3,0.6-0.5,0.9c-0.2,0.3-0.4,0.5-0.6,0.8C504.9,1543.2,503.6,1543.7,502.3,1543.7z"/>
						</g>
						<g>
							<path class="st1" d="M497.3,1519.8c0-2.8,2.2-5,5-5l0,0c2.8,0,5,2.2,5,5l0,0c0,2.8-2.2,5-5,5l0,0
								C499.5,1524.8,497.3,1522.6,497.3,1519.8z M497.3,1501c0-2.8,2.2-5,5-5l0,0c2.8,0,5,2.2,5,5l0,0c0,2.8-2.2,5-5,5l0,0
								C499.5,1506,497.3,1503.7,497.3,1501z M497.3,1482.1c0-2.8,2.2-5,5-5l0,0c2.8,0,5,2.2,5,5l0,0c0,2.8-2.2,5-5,5l0,0
								C499.5,1487.1,497.3,1484.9,497.3,1482.1z M497.3,1463.3c0-2.8,2.2-5,5-5l0,0c2.8,0,5,2.2,5,5l0,0c0,2.8-2.2,5-5,5l0,0
								C499.5,1468.3,497.3,1466,497.3,1463.3z"/>
						</g>
						<g>
							<path class="st1" d="M502.3,1449.4c-0.3,0-0.7,0-1-0.1c-0.3-0.1-0.6-0.2-0.9-0.3c-0.3-0.1-0.6-0.3-0.9-0.5s-0.5-0.4-0.8-0.6
								c-0.2-0.2-0.4-0.5-0.6-0.8c-0.2-0.3-0.3-0.6-0.5-0.9c-0.1-0.3-0.2-0.6-0.3-0.9c-0.1-0.3-0.1-0.7-0.1-1c0-0.3,0-0.7,0.1-1
								c0.1-0.3,0.2-0.6,0.3-0.9c0.1-0.3,0.3-0.6,0.5-0.9c0.2-0.3,0.4-0.5,0.6-0.8c0.2-0.2,0.5-0.4,0.8-0.6c0.3-0.2,0.6-0.3,0.9-0.5
								c0.3-0.1,0.6-0.2,0.9-0.3c0.6-0.1,1.3-0.1,2,0c0.3,0.1,0.6,0.2,0.9,0.3c0.3,0.1,0.6,0.3,0.9,0.5c0.3,0.2,0.5,0.4,0.8,0.6
								c0.2,0.2,0.4,0.5,0.6,0.8c0.2,0.3,0.3,0.6,0.5,0.9c0.1,0.3,0.2,0.6,0.3,0.9c0.1,0.3,0.1,0.6,0.1,1c0,0.3,0,0.7-0.1,1
								c-0.1,0.3-0.2,0.6-0.3,0.9c-0.1,0.3-0.3,0.6-0.5,0.9c-0.2,0.3-0.4,0.5-0.6,0.8C504.9,1448.9,503.6,1449.4,502.3,1449.4z"/>
						</g>
						<g>
							<path class="st1" d="M759.8,1444.4c0-2.8,2.2-5,5-5l0,0c2.8,0,5,2.2,5,5l0,0c0,2.8-2.2,5-5,5l0,0
								C762.1,1449.4,759.8,1447.2,759.8,1444.4z M739.6,1444.4c0-2.8,2.2-5,5-5l0,0c2.8,0,5,2.2,5,5l0,0c0,2.8-2.2,5-5,5l0,0
								C741.9,1449.4,739.6,1447.2,739.6,1444.4z M719.5,1444.4c0-2.8,2.2-5,5-5l0,0c2.8,0,5,2.2,5,5l0,0c0,2.8-2.2,5-5,5l0,0
								C721.7,1449.4,719.5,1447.2,719.5,1444.4z M699.3,1444.4c0-2.8,2.2-5,5-5l0,0c2.8,0,5,2.2,5,5l0,0c0,2.8-2.2,5-5,5l0,0
								C701.5,1449.4,699.3,1447.2,699.3,1444.4z M679.1,1444.4c0-2.8,2.2-5,5-5l0,0c2.8,0,5,2.2,5,5l0,0c0,2.8-2.2,5-5,5l0,0
								C681.3,1449.4,679.1,1447.2,679.1,1444.4z M658.9,1444.4c0-2.8,2.2-5,5-5l0,0c2.8,0,5,2.2,5,5l0,0c0,2.8-2.2,5-5,5l0,0
								C661.1,1449.4,658.9,1447.2,658.9,1444.4z M638.7,1444.4c0-2.8,2.2-5,5-5l0,0c2.8,0,5,2.2,5,5l0,0c0,2.8-2.2,5-5,5l0,0
								C640.9,1449.4,638.7,1447.2,638.7,1444.4z M618.5,1444.4c0-2.8,2.2-5,5-5l0,0c2.8,0,5,2.2,5,5l0,0c0,2.8-2.2,5-5,5l0,0
								C620.7,1449.4,618.5,1447.2,618.5,1444.4z M598.3,1444.4c0-2.8,2.2-5,5-5l0,0c2.8,0,5,2.2,5,5l0,0c0,2.8-2.2,5-5,5l0,0
								C600.5,1449.4,598.3,1447.2,598.3,1444.4z M578.1,1444.4c0-2.8,2.2-5,5-5l0,0c2.8,0,5,2.2,5,5l0,0c0,2.8-2.2,5-5,5l0,0
								C580.3,1449.4,578.1,1447.2,578.1,1444.4z M557.9,1444.4c0-2.8,2.2-5,5-5l0,0c2.8,0,5,2.2,5,5l0,0c0,2.8-2.2,5-5,5l0,0
								C560.1,1449.4,557.9,1447.2,557.9,1444.4z M537.7,1444.4c0-2.8,2.2-5,5-5l0,0c2.8,0,5,2.2,5,5l0,0c0,2.8-2.2,5-5,5l0,0
								C539.9,1449.4,537.7,1447.2,537.7,1444.4z M517.5,1444.4c0-2.8,2.2-5,5-5l0,0c2.8,0,5,2.2,5,5l0,0c0,2.8-2.2,5-5,5l0,0
								C519.7,1449.4,517.5,1447.2,517.5,1444.4z"/>
						</g>
						<g>
							<path class="st1" d="M785,1449.4c-0.3,0-0.7,0-1-0.1c-0.3-0.1-0.6-0.2-0.9-0.3c-0.3-0.1-0.6-0.3-0.9-0.5s-0.5-0.4-0.8-0.6
								c-0.2-0.2-0.4-0.5-0.6-0.8c-0.2-0.3-0.3-0.6-0.5-0.9c-0.1-0.3-0.2-0.6-0.3-0.9c-0.1-0.3-0.1-0.7-0.1-1c0-0.3,0-0.7,0.1-1
								c0.1-0.3,0.2-0.6,0.3-0.9c0.1-0.3,0.3-0.6,0.5-0.9c0.2-0.3,0.4-0.5,0.6-0.8c0.2-0.2,0.5-0.4,0.8-0.6c0.3-0.2,0.6-0.3,0.9-0.5
								c0.3-0.1,0.6-0.2,0.9-0.3c0.6-0.1,1.3-0.1,2,0c0.3,0.1,0.6,0.2,0.9,0.3c0.3,0.1,0.6,0.3,0.9,0.5c0.3,0.2,0.5,0.4,0.8,0.6
								c0.2,0.2,0.4,0.5,0.6,0.8c0.2,0.3,0.3,0.6,0.5,0.9c0.1,0.3,0.2,0.6,0.3,0.9c0.1,0.3,0.1,0.6,0.1,1c0,0.3,0,0.7-0.1,1
								c-0.1,0.3-0.2,0.6-0.3,0.9c-0.1,0.3-0.3,0.6-0.5,0.9c-0.2,0.3-0.4,0.5-0.6,0.8c-0.2,0.2-0.5,0.4-0.8,0.6
								c-0.3,0.2-0.6,0.3-0.9,0.5c-0.3,0.1-0.6,0.2-0.9,0.3C785.7,1449.4,785.4,1449.4,785,1449.4z"/>
						</g>
						<g>
							<path class="st1" d="M780,1423.4c0-2.8,2.2-5,5-5l0,0c2.8,0,5,2.2,5,5l0,0c0,2.8-2.2,5-5,5l0,0
								C782.3,1428.4,780,1426.2,780,1423.4z M780,1402.5c0-2.8,2.2-5,5-5l0,0c2.8,0,5,2.2,5,5l0,0c0,2.8-2.2,5-5,5l0,0
								C782.3,1407.5,780,1405.2,780,1402.5z M780,1381.5c0-2.8,2.2-5,5-5l0,0c2.8,0,5,2.2,5,5l0,0c0,2.8-2.2,5-5,5l0,0
								C782.3,1386.5,780,1384.3,780,1381.5z M780,1360.6c0-2.8,2.2-5,5-5l0,0c2.8,0,5,2.2,5,5l0,0c0,2.8-2.2,5-5,5l0,0
								C782.3,1365.6,780,1363.3,780,1360.6z M780,1339.6c0-2.8,2.2-5,5-5l0,0c2.8,0,5,2.2,5,5l0,0c0,2.8-2.2,5-5,5l0,0
								C782.3,1344.6,780,1342.4,780,1339.6z M780,1318.6c0-2.8,2.2-5,5-5l0,0c2.8,0,5,2.2,5,5l0,0c0,2.8-2.2,5-5,5l0,0
								C782.3,1323.6,780,1321.4,780,1318.6z M780,1297.7c0-2.8,2.2-5,5-5l0,0c2.8,0,5,2.2,5,5l0,0c0,2.8-2.2,5-5,5l0,0
								C782.3,1302.7,780,1300.5,780,1297.7z M780,1276.7c0-2.8,2.2-5,5-5l0,0c2.8,0,5,2.2,5,5l0,0c0,2.8-2.2,5-5,5l0,0
								C782.3,1281.7,780,1279.5,780,1276.7z"/>
						</g>
						<g>
							<path class="st1" d="M785,1260.8c-1.3,0-2.6-0.5-3.5-1.5c-0.2-0.2-0.4-0.5-0.6-0.8c-0.2-0.3-0.3-0.6-0.5-0.9
								c-0.1-0.3-0.2-0.6-0.3-0.9c-0.1-0.3-0.1-0.7-0.1-1c0-0.3,0-0.6,0.1-1c0.1-0.3,0.2-0.6,0.3-0.9c0.1-0.3,0.3-0.6,0.5-0.9
								c0.2-0.3,0.4-0.5,0.6-0.8c0.9-0.9,2.2-1.5,3.5-1.5s2.6,0.5,3.5,1.5c0.9,0.9,1.5,2.2,1.5,3.5c0,1.3-0.5,2.6-1.5,3.5
								C787.7,1260.2,786.4,1260.8,785,1260.8z"/>
						</g>
						<g>
							<path class="st1" d="M759.1,1255.8c0-2.8,2.2-5,5-5l0,0c2.8,0,5,2.2,5,5l0,0c0,2.8-2.2,5-5,5l0,0
								C761.3,1260.8,759.1,1258.5,759.1,1255.8z M738.2,1255.8c0-2.8,2.2-5,5-5l0,0c2.8,0,5,2.2,5,5l0,0c0,2.8-2.2,5-5,5l0,0
								C740.4,1260.8,738.2,1258.5,738.2,1255.8z M717.2,1255.8c0-2.8,2.2-5,5-5l0,0c2.8,0,5,2.2,5,5l0,0c0,2.8-2.2,5-5,5l0,0
								C719.4,1260.8,717.2,1258.5,717.2,1255.8z M696.3,1255.8c0-2.8,2.2-5,5-5l0,0c2.8,0,5,2.2,5,5l0,0c0,2.8-2.2,5-5,5l0,0
								C698.5,1260.8,696.3,1258.5,696.3,1255.8z M675.3,1255.8c0-2.8,2.2-5,5-5l0,0c2.8,0,5,2.2,5,5l0,0c0,2.8-2.2,5-5,5l0,0
								C677.6,1260.8,675.3,1258.5,675.3,1255.8z M654.4,1255.8c0-2.8,2.2-5,5-5l0,0c2.8,0,5,2.2,5,5l0,0c0,2.8-2.2,5-5,5l0,0
								C656.6,1260.8,654.4,1258.5,654.4,1255.8z M633.4,1255.8c0-2.8,2.2-5,5-5l0,0c2.8,0,5,2.2,5,5l0,0c0,2.8-2.2,5-5,5l0,0
								C635.7,1260.8,633.4,1258.5,633.4,1255.8z M612.5,1255.8c0-2.8,2.2-5,5-5l0,0c2.8,0,5,2.2,5,5l0,0c0,2.8-2.2,5-5,5l0,0
								C614.7,1260.8,612.5,1258.5,612.5,1255.8z"/>
						</g>
						<g>
							<path class="st1" d="M596.5,1260.8c-1.3,0-2.6-0.5-3.5-1.5c-0.9-0.9-1.5-2.2-1.5-3.5c0-1.3,0.5-2.6,1.5-3.5
								c0.9-0.9,2.2-1.5,3.5-1.5c1.3,0,2.6,0.5,3.5,1.5c0.2,0.2,0.4,0.5,0.6,0.8c0.2,0.3,0.3,0.6,0.5,0.9c0.1,0.3,0.2,0.6,0.3,0.9
								c0.1,0.3,0.1,0.7,0.1,1c0,0.3,0,0.7-0.1,1c-0.1,0.3-0.2,0.6-0.3,0.9c-0.1,0.3-0.3,0.6-0.5,0.9c-0.2,0.3-0.4,0.5-0.6,0.8
								C599.1,1260.2,597.8,1260.8,596.5,1260.8z"/>
						</g>
						<g>
							<path class="st1" d="M591.5,1234.8c0-2.8,2.2-5,5-5l0,0c2.8,0,5,2.2,5,5l0,0c0,2.8-2.2,5-5,5l0,0
								C593.8,1239.8,591.5,1237.6,591.5,1234.8z M591.5,1213.9c0-2.8,2.2-5,5-5l0,0c2.8,0,5,2.2,5,5l0,0c0,2.8-2.2,5-5,5l0,0
								C593.8,1218.9,591.5,1216.6,591.5,1213.9z M591.5,1192.9c0-2.8,2.2-5,5-5l0,0c2.8,0,5,2.2,5,5l0,0c0,2.8-2.2,5-5,5l0,0
								C593.8,1197.9,591.5,1195.7,591.5,1192.9z M591.5,1171.9c0-2.8,2.2-5,5-5l0,0c2.8,0,5,2.2,5,5l0,0c0,2.8-2.2,5-5,5l0,0
								C593.8,1176.9,591.5,1174.7,591.5,1171.9z M591.5,1151c0-2.8,2.2-5,5-5l0,0c2.8,0,5,2.2,5,5l0,0c0,2.8-2.2,5-5,5l0,0
								C593.8,1156,591.5,1153.7,591.5,1151z M591.5,1130c0-2.8,2.2-5,5-5l0,0c2.8,0,5,2.2,5,5l0,0c0,2.8-2.2,5-5,5l0,0
								C593.8,1135,591.5,1132.8,591.5,1130z M591.5,1109.1c0-2.8,2.2-5,5-5l0,0c2.8,0,5,2.2,5,5l0,0c0,2.8-2.2,5-5,5l0,0
								C593.8,1114.1,591.5,1111.8,591.5,1109.1z M591.5,1088.1c0-2.8,2.2-5,5-5l0,0c2.8,0,5,2.2,5,5l0,0c0,2.8-2.2,5-5,5l0,0
								C593.8,1093.1,591.5,1090.9,591.5,1088.1z"/>
						</g>
						<g>
							<path class="st1" d="M596.5,1072.1c-0.3,0-0.6,0-1-0.1c-0.3-0.1-0.6-0.2-0.9-0.3c-0.3-0.1-0.6-0.3-0.9-0.5
								c-0.3-0.2-0.5-0.4-0.8-0.6c-0.2-0.2-0.4-0.5-0.6-0.8c-0.2-0.3-0.3-0.6-0.5-0.9c-0.1-0.3-0.2-0.6-0.3-0.9
								c-0.1-0.3-0.1-0.7-0.1-1s0-0.7,0.1-1c0.1-0.3,0.2-0.6,0.3-0.9c0.1-0.3,0.3-0.6,0.5-0.9c0.2-0.3,0.4-0.5,0.6-0.8
								c0.2-0.2,0.5-0.4,0.8-0.6c0.3-0.2,0.6-0.3,0.9-0.5c0.3-0.1,0.6-0.2,0.9-0.3c0.6-0.1,1.3-0.1,1.9,0c0.3,0.1,0.6,0.2,0.9,0.3
								c0.3,0.1,0.6,0.3,0.9,0.5c0.3,0.2,0.5,0.4,0.8,0.6c0.2,0.2,0.4,0.5,0.6,0.8c0.2,0.3,0.3,0.6,0.5,0.9c0.1,0.3,0.2,0.6,0.3,0.9
								c0.1,0.3,0.1,0.6,0.1,1s0,0.7-0.1,1c-0.1,0.3-0.2,0.6-0.3,0.9c-0.1,0.3-0.3,0.6-0.5,0.9c-0.2,0.3-0.4,0.5-0.6,0.8
								c-0.2,0.2-0.5,0.4-0.8,0.6c-0.3,0.2-0.6,0.3-0.9,0.5c-0.3,0.1-0.6,0.2-0.9,0.3C597.2,1072.1,596.9,1072.1,596.5,1072.1z"/>
						</g>
						<g>
							<path class="st1" d="M666.9,1067.1c0-2.8,2.2-5,5-5l0,0c2.8,0,5,2.2,5,5l0,0c0,2.8-2.2,5-5,5l0,0
								C669.2,1072.1,666.9,1069.9,666.9,1067.1z M648.1,1067.1c0-2.8,2.2-5,5-5l0,0c2.8,0,5,2.2,5,5l0,0c0,2.8-2.2,5-5,5l0,0
								C650.3,1072.1,648.1,1069.9,648.1,1067.1z M629.2,1067.1c0-2.8,2.2-5,5-5l0,0c2.8,0,5,2.2,5,5l0,0c0,2.8-2.2,5-5,5l0,0
								C631.5,1072.1,629.2,1069.9,629.2,1067.1z M610.4,1067.1c0-2.8,2.2-5,5-5l0,0c2.8,0,5,2.2,5,5l0,0c0,2.8-2.2,5-5,5l0,0
								C612.6,1072.1,610.4,1069.9,610.4,1067.1z"/>
						</g>
						<g>
							<path class="st1" d="M690.8,1072.1c-0.3,0-0.7,0-1-0.1c-0.3-0.1-0.6-0.2-0.9-0.3c-0.3-0.1-0.6-0.3-0.9-0.5
								c-0.3-0.2-0.5-0.4-0.8-0.6c-0.2-0.2-0.4-0.5-0.6-0.8c-0.2-0.3-0.3-0.6-0.5-0.9c-0.1-0.3-0.2-0.6-0.3-0.9
								c-0.1-0.3-0.1-0.7-0.1-1s0-0.7,0.1-1c0.1-0.3,0.2-0.6,0.3-0.9c0.1-0.3,0.3-0.6,0.5-0.9c0.2-0.3,0.4-0.5,0.6-0.8
								c0.2-0.2,0.5-0.4,0.8-0.6c0.3-0.2,0.6-0.3,0.9-0.5c0.3-0.1,0.6-0.2,0.9-0.3c0.6-0.1,1.3-0.1,2,0c0.3,0.1,0.6,0.2,0.9,0.3
								c0.3,0.1,0.6,0.3,0.9,0.5c0.3,0.2,0.5,0.4,0.8,0.6c0.2,0.2,0.4,0.5,0.6,0.8c0.2,0.3,0.3,0.6,0.5,0.9c0.1,0.3,0.2,0.6,0.3,0.9
								c0.1,0.3,0.1,0.6,0.1,1s0,0.7-0.1,1c-0.1,0.3-0.2,0.6-0.3,0.9c-0.1,0.3-0.3,0.6-0.5,0.9c-0.2,0.3-0.4,0.5-0.6,0.8
								c-0.2,0.2-0.5,0.4-0.8,0.6c-0.3,0.2-0.6,0.3-0.9,0.5c-0.3,0.1-0.6,0.2-0.9,0.3C691.4,1072.1,691.1,1072.1,690.8,1072.1z"/>
						</g>
						<g>
							<path class="st1" d="M685.8,1046.2c0-2.8,2.2-5,5-5l0,0c2.8,0,5,2.2,5,5l0,0c0,2.8-2.2,5-5,5l0,0
								C688,1051.2,685.8,1049,685.8,1046.2z M685.8,1025.2c0-2.8,2.2-5,5-5l0,0c2.8,0,5,2.2,5,5l0,0c0,2.8-2.2,5-5,5l0,0
								C688,1030.2,685.8,1028,685.8,1025.2z M685.8,1004.3c0-2.8,2.2-5,5-5l0,0c2.8,0,5,2.2,5,5l0,0c0,2.8-2.2,5-5,5l0,0
								C688,1009.3,685.8,1007,685.8,1004.3z M685.8,983.3c0-2.8,2.2-5,5-5l0,0c2.8,0,5,2.2,5,5l0,0c0,2.8-2.2,5-5,5l0,0
								C688,988.3,685.8,986.1,685.8,983.3z M685.8,962.4c0-2.8,2.2-5,5-5l0,0c2.8,0,5,2.2,5,5l0,0c0,2.8-2.2,5-5,5l0,0
								C688,967.4,685.8,965.1,685.8,962.4z M685.8,941.4c0-2.8,2.2-5,5-5l0,0c2.8,0,5,2.2,5,5l0,0c0,2.8-2.2,5-5,5l0,0
								C688,946.4,685.8,944.2,685.8,941.4z M685.8,920.4c0-2.8,2.2-5,5-5l0,0c2.8,0,5,2.2,5,5l0,0c0,2.8-2.2,5-5,5l0,0
								C688,925.4,685.8,923.2,685.8,920.4z M685.8,899.5c0-2.8,2.2-5,5-5l0,0c2.8,0,5,2.2,5,5l0,0c0,2.8-2.2,5-5,5l0,0
								C688,904.5,685.8,902.2,685.8,899.5z"/>
						</g>
						<g>
							<path class="st1" d="M690.8,883.5c-1.3,0-2.6-0.5-3.5-1.5c-0.2-0.2-0.4-0.5-0.6-0.8c-0.2-0.3-0.3-0.6-0.5-0.9
								c-0.1-0.3-0.2-0.6-0.3-0.9c-0.1-0.3-0.1-0.7-0.1-1c0-1.3,0.5-2.6,1.5-3.5c1.2-1.2,2.9-1.7,4.5-1.4c0.3,0.1,0.6,0.2,0.9,0.3
								c0.3,0.1,0.6,0.3,0.9,0.5c0.3,0.2,0.5,0.4,0.8,0.6c0.9,0.9,1.5,2.2,1.5,3.5c0,0.3,0,0.7-0.1,1c-0.1,0.3-0.2,0.6-0.3,0.9
								c-0.1,0.3-0.3,0.6-0.5,0.9c-0.2,0.3-0.4,0.5-0.6,0.8c-0.2,0.2-0.5,0.4-0.8,0.6s-0.6,0.3-0.9,0.5c-0.3,0.1-0.6,0.2-0.9,0.3
								C691.4,883.5,691.1,883.5,690.8,883.5z"/>
						</g>
						<g>
							<path class="st1" d="M664.8,878.5c0-2.8,2.2-5,5-5l0,0c2.8,0,5,2.2,5,5l0,0c0,2.8-2.2,5-5,5l0,0
								C667.1,883.5,664.8,881.3,664.8,878.5z M643.9,878.5c0-2.8,2.2-5,5-5l0,0c2.8,0,5,2.2,5,5l0,0c0,2.8-2.2,5-5,5l0,0
								C646.1,883.5,643.9,881.3,643.9,878.5z M622.9,878.5c0-2.8,2.2-5,5-5l0,0c2.8,0,5,2.2,5,5l0,0c0,2.8-2.2,5-5,5l0,0
								C625.2,883.5,622.9,881.3,622.9,878.5z M602,878.5c0-2.8,2.2-5,5-5l0,0c2.8,0,5,2.2,5,5l0,0c0,2.8-2.2,5-5,5l0,0
								C604.2,883.5,602,881.3,602,878.5z M581.1,878.5c0-2.8,2.2-5,5-5l0,0c2.8,0,5,2.2,5,5l0,0c0,2.8-2.2,5-5,5l0,0
								C583.3,883.5,581.1,881.3,581.1,878.5z M560.1,878.5c0-2.8,2.2-5,5-5l0,0c2.8,0,5,2.2,5,5l0,0c0,2.8-2.2,5-5,5l0,0
								C562.3,883.5,560.1,881.3,560.1,878.5z M539.2,878.5c0-2.8,2.2-5,5-5l0,0c2.8,0,5,2.2,5,5l0,0c0,2.8-2.2,5-5,5l0,0
								C541.4,883.5,539.2,881.3,539.2,878.5z M518.2,878.5c0-2.8,2.2-5,5-5l0,0c2.8,0,5,2.2,5,5l0,0c0,2.8-2.2,5-5,5l0,0
								C520.5,883.5,518.2,881.3,518.2,878.5z"/>
						</g>
						<g>
							<path class="st1" d="M502.3,883.5c-0.3,0-0.7,0-1-0.1c-0.3-0.1-0.6-0.2-0.9-0.3c-0.3-0.1-0.6-0.3-0.9-0.5s-0.5-0.4-0.8-0.6
								c-0.2-0.2-0.4-0.5-0.6-0.8c-0.2-0.3-0.3-0.6-0.5-0.9c-0.1-0.3-0.2-0.6-0.3-0.9c-0.1-0.3-0.1-0.7-0.1-1c0-1.3,0.5-2.6,1.5-3.5
								c1.2-1.2,2.9-1.7,4.5-1.4c0.3,0.1,0.6,0.2,0.9,0.3c0.3,0.1,0.6,0.3,0.9,0.5c0.3,0.2,0.5,0.4,0.8,0.6c0.9,0.9,1.5,2.2,1.5,3.5
								c0,0.3,0,0.7-0.1,1c-0.1,0.3-0.2,0.6-0.3,0.9c-0.1,0.3-0.3,0.6-0.5,0.9c-0.2,0.3-0.4,0.5-0.6,0.8c-0.2,0.2-0.5,0.4-0.8,0.6
								c-0.3,0.2-0.6,0.3-0.9,0.5c-0.3,0.1-0.6,0.2-0.9,0.3C502.9,883.5,502.6,883.5,502.3,883.5z"/>
						</g>
						<g>
							<path class="st1" d="M497.3,954c0-2.8,2.2-5,5-5l0,0c2.8,0,5,2.2,5,5l0,0c0,2.8-2.2,5-5,5l0,0
								C499.5,959,497.3,956.7,497.3,954z M497.3,935.1c0-2.8,2.2-5,5-5l0,0c2.8,0,5,2.2,5,5l0,0c0,2.8-2.2,5-5,5l0,0
								C499.5,940.1,497.3,937.9,497.3,935.1z M497.3,916.2c0-2.8,2.2-5,5-5l0,0c2.8,0,5,2.2,5,5l0,0c0,2.8-2.2,5-5,5l0,0
								C499.5,921.2,497.3,919,497.3,916.2z M497.3,897.4c0-2.8,2.2-5,5-5l0,0c2.8,0,5,2.2,5,5l0,0c0,2.8-2.2,5-5,5l0,0
								C499.5,902.4,497.3,900.1,497.3,897.4z"/>
						</g>
						<g>
							<path class="st1" d="M502.3,977.8c-1.3,0-2.6-0.5-3.5-1.5c-0.9-0.9-1.5-2.2-1.5-3.5c0-0.3,0-0.7,0.1-1
								c0.1-0.3,0.2-0.6,0.3-0.9c0.1-0.3,0.3-0.6,0.5-0.9c0.2-0.3,0.4-0.5,0.6-0.8s0.5-0.4,0.8-0.6s0.6-0.3,0.9-0.5
								c0.3-0.1,0.6-0.2,0.9-0.3c0.6-0.1,1.3-0.1,2,0c0.3,0.1,0.6,0.2,0.9,0.3c0.3,0.1,0.6,0.3,0.9,0.5c0.3,0.2,0.5,0.4,0.8,0.6
								c0.2,0.2,0.4,0.5,0.6,0.8c0.2,0.3,0.3,0.6,0.5,0.9c0.1,0.3,0.2,0.6,0.3,0.9c0.1,0.3,0.1,0.7,0.1,1c0,1.3-0.5,2.6-1.5,3.5
								c-0.2,0.2-0.5,0.4-0.8,0.6c-0.3,0.2-0.6,0.3-0.9,0.5c-0.3,0.1-0.6,0.2-0.9,0.3C502.9,977.8,502.6,977.8,502.3,977.8z"/>
						</g>
						<g>
							<path class="st1" d="M476.3,972.8c0-2.8,2.2-5,5-5l0,0c2.8,0,5,2.2,5,5l0,0c0,2.8-2.2,5-5,5l0,0
								C478.6,977.8,476.3,975.6,476.3,972.8z M455.4,972.8c0-2.8,2.2-5,5-5l0,0c2.8,0,5,2.2,5,5l0,0c0,2.8-2.2,5-5,5l0,0
								C457.6,977.8,455.4,975.6,455.4,972.8z M434.4,972.8c0-2.8,2.2-5,5-5l0,0c2.8,0,5,2.2,5,5l0,0c0,2.8-2.2,5-5,5l0,0
								C436.7,977.8,434.4,975.6,434.4,972.8z M413.5,972.8c0-2.8,2.2-5,5-5l0,0c2.8,0,5,2.2,5,5l0,0c0,2.8-2.2,5-5,5l0,0
								C415.7,977.8,413.5,975.6,413.5,972.8z M392.5,972.8c0-2.8,2.2-5,5-5l0,0c2.8,0,5,2.2,5,5l0,0c0,2.8-2.2,5-5,5l0,0
								C394.8,977.8,392.5,975.6,392.5,972.8z M371.6,972.8c0-2.8,2.2-5,5-5l0,0c2.8,0,5,2.2,5,5l0,0c0,2.8-2.2,5-5,5l0,0
								C373.8,977.8,371.6,975.6,371.6,972.8z M350.6,972.8c0-2.8,2.2-5,5-5l0,0c2.8,0,5,2.2,5,5l0,0c0,2.8-2.2,5-5,5l0,0
								C352.9,977.8,350.6,975.6,350.6,972.8z M329.7,972.8c0-2.8,2.2-5,5-5l0,0c2.8,0,5,2.2,5,5l0,0c0,2.8-2.2,5-5,5l0,0
								C331.9,977.8,329.7,975.6,329.7,972.8z"/>
						</g>
						<g>
							<path class="st1" d="M313.8,977.8c-0.3,0-0.6,0-1-0.1c-0.3-0.1-0.6-0.2-0.9-0.3c-0.3-0.1-0.6-0.3-0.9-0.5
								c-0.3-0.2-0.5-0.4-0.8-0.6c-0.2-0.2-0.4-0.5-0.6-0.8c-0.2-0.3-0.3-0.6-0.5-0.9c-0.1-0.3-0.2-0.6-0.3-0.9
								c-0.1-0.3-0.1-0.6-0.1-1c0-0.3,0-0.7,0.1-1c0.1-0.3,0.2-0.6,0.3-0.9c0.1-0.3,0.3-0.6,0.4-0.9c0.2-0.3,0.4-0.5,0.6-0.8
								s0.5-0.4,0.8-0.6c0.3-0.2,0.6-0.3,0.9-0.5c0.3-0.1,0.6-0.2,0.9-0.3c1.6-0.3,3.3,0.2,4.5,1.4c0.2,0.2,0.4,0.5,0.6,0.8
								c0.2,0.3,0.3,0.6,0.5,0.9c0.1,0.3,0.2,0.6,0.3,0.9c0.1,0.3,0.1,0.7,0.1,1c0,1.3-0.5,2.6-1.5,3.5
								C316.4,977.3,315.1,977.8,313.8,977.8z"/>
						</g>
						<g>
							<path class="st1" d="M308.8,952.6c0-2.8,2.2-5,5-5l0,0c2.8,0,5,2.2,5,5l0,0c0,2.8-2.2,5-5,5l0,0
								C311,957.6,308.8,955.4,308.8,952.6z M308.8,932.4c0-2.8,2.2-5,5-5l0,0c2.8,0,5,2.2,5,5l0,0c0,2.8-2.2,5-5,5l0,0
								C311,937.4,308.8,935.2,308.8,932.4z M308.8,912.2c0-2.8,2.2-5,5-5l0,0c2.8,0,5,2.2,5,5l0,0c0,2.8-2.2,5-5,5l0,0
								C311,917.2,308.8,915,308.8,912.2z M308.8,892c0-2.8,2.2-5,5-5l0,0c2.8,0,5,2.2,5,5l0,0c0,2.8-2.2,5-5,5l0,0
								C311,897,308.8,894.8,308.8,892z M308.8,871.8c0-2.8,2.2-5,5-5l0,0c2.8,0,5,2.2,5,5l0,0c0,2.8-2.2,5-5,5l0,0
								C311,876.8,308.8,874.5,308.8,871.8z M308.8,851.6c0-2.8,2.2-5,5-5l0,0c2.8,0,5,2.2,5,5l0,0c0,2.8-2.2,5-5,5l0,0
								C311,856.6,308.8,854.3,308.8,851.6z M308.8,831.4c0-2.8,2.2-5,5-5l0,0c2.8,0,5,2.2,5,5l0,0c0,2.8-2.2,5-5,5l0,0
								C311,836.4,308.8,834.1,308.8,831.4z M308.8,811.2c0-2.8,2.2-5,5-5l0,0c2.8,0,5,2.2,5,5l0,0c0,2.8-2.2,5-5,5l0,0
								C311,816.1,308.8,813.9,308.8,811.2z M308.8,790.9c0-2.8,2.2-5,5-5l0,0c2.8,0,5,2.2,5,5l0,0c0,2.8-2.2,5-5,5l0,0
								C311,796,308.8,793.7,308.8,790.9z M308.8,770.7c0-2.8,2.2-5,5-5l0,0c2.8,0,5,2.2,5,5l0,0c0,2.8-2.2,5-5,5l0,0
								C311,775.7,308.8,773.5,308.8,770.7z M308.8,750.5c0-2.8,2.2-5,5-5l0,0c2.8,0,5,2.2,5,5l0,0c0,2.8-2.2,5-5,5l0,0
								C311,755.5,308.8,753.3,308.8,750.5z M308.8,730.3c0-2.8,2.2-5,5-5l0,0c2.8,0,5,2.2,5,5l0,0c0,2.8-2.2,5-5,5l0,0
								C311,735.3,308.8,733.1,308.8,730.3z M308.8,710.1c0-2.8,2.2-5,5-5l0,0c2.8,0,5,2.2,5,5l0,0c0,2.8-2.2,5-5,5l0,0
								C311,715.1,308.8,712.9,308.8,710.1z"/>
						</g>
						<g>
							<path class="st1" d="M313.8,694.9c-0.3,0-0.6,0-1-0.1c-0.3-0.1-0.6-0.2-0.9-0.3c-0.3-0.1-0.6-0.3-0.9-0.5
								c-0.3-0.2-0.5-0.4-0.8-0.6c-0.2-0.2-0.4-0.5-0.6-0.8c-0.2-0.3-0.3-0.6-0.5-0.9c-0.1-0.3-0.2-0.6-0.3-0.9
								c-0.1-0.3-0.1-0.7-0.1-1c0-0.3,0-0.7,0.1-1c0.1-0.3,0.2-0.6,0.3-0.9c0.1-0.3,0.3-0.6,0.5-0.9c0.2-0.3,0.4-0.5,0.6-0.8
								c0.2-0.2,0.5-0.4,0.8-0.6c0.3-0.2,0.6-0.3,0.9-0.5c0.3-0.1,0.6-0.2,0.9-0.3c0.6-0.1,1.3-0.1,1.9,0c0.3,0.1,0.6,0.2,0.9,0.3
								c0.3,0.1,0.6,0.3,0.9,0.5c0.3,0.2,0.5,0.4,0.8,0.6c0.2,0.2,0.4,0.5,0.6,0.8c0.2,0.3,0.3,0.6,0.5,0.9c0.1,0.3,0.2,0.6,0.3,0.9
								c0.1,0.3,0.1,0.6,0.1,1c0,0.3,0,0.7-0.1,1c-0.1,0.3-0.2,0.6-0.3,0.9c-0.1,0.3-0.3,0.6-0.5,0.9c-0.2,0.3-0.4,0.5-0.6,0.8
								C316.4,694.4,315.1,694.9,313.8,694.9z"/>
						</g>
						<g>
							<path class="st1" d="M475.7,689.9c0-2.8,2.2-5,5-5l0,0c2.8,0,5,2.2,5,5l0,0c0,2.8-2.2,5-5,5l0,0
								C477.9,694.9,475.7,692.7,475.7,689.9z M454.8,689.9c0-2.8,2.2-5,5-5l0,0c2.8,0,5,2.2,5,5l0,0c0,2.8-2.2,5-5,5l0,0
								C457.1,694.9,454.8,692.7,454.8,689.9z M434,689.9c0-2.8,2.2-5,5-5l0,0c2.8,0,5,2.2,5,5l0,0c0,2.8-2.2,5-5,5l0,0
								C436.2,694.9,434,692.7,434,689.9z M413.1,689.9c0-2.8,2.2-5,5-5l0,0c2.8,0,5,2.2,5,5l0,0c0,2.8-2.2,5-5,5l0,0
								C415.3,694.9,413.1,692.7,413.1,689.9z M392.2,689.9c0-2.8,2.2-5,5-5l0,0c2.8,0,5,2.2,5,5l0,0c0,2.8-2.2,5-5,5l0,0
								C394.5,694.9,392.2,692.7,392.2,689.9z M371.4,689.9c0-2.8,2.2-5,5-5l0,0c2.8,0,5,2.2,5,5l0,0c0,2.8-2.2,5-5,5l0,0
								C373.6,694.9,371.4,692.7,371.4,689.9z M350.5,689.9c0-2.8,2.2-5,5-5l0,0c2.8,0,5,2.2,5,5l0,0c0,2.8-2.2,5-5,5l0,0
								C352.7,694.9,350.5,692.7,350.5,689.9z M329.6,689.9c0-2.8,2.2-5,5-5l0,0c2.8,0,5,2.2,5,5l0,0c0,2.8-2.2,5-5,5l0,0
								C331.9,694.9,329.6,692.7,329.6,689.9z"/>
						</g>
						<g>
							<path class="st1" d="M501.6,694.9c-1.3,0-2.6-0.5-3.5-1.5c-0.2-0.2-0.4-0.5-0.6-0.8c-0.2-0.3-0.3-0.6-0.5-0.9
								c-0.1-0.3-0.2-0.6-0.3-0.9c-0.1-0.3-0.1-0.7-0.1-1c0-0.3,0-0.7,0.1-1c0.1-0.3,0.2-0.6,0.3-0.9c0.1-0.3,0.3-0.6,0.5-0.9
								c0.2-0.3,0.4-0.5,0.6-0.8c0.2-0.2,0.5-0.4,0.8-0.6c0.3-0.2,0.6-0.3,0.9-0.5c0.3-0.1,0.6-0.2,0.9-0.3c0.7-0.1,1.3-0.1,2,0
								c0.3,0.1,0.6,0.2,0.9,0.3c0.3,0.1,0.6,0.3,0.9,0.5c0.3,0.2,0.5,0.4,0.8,0.6c0.2,0.2,0.4,0.5,0.6,0.8c0.2,0.3,0.3,0.6,0.5,0.9
								c0.1,0.3,0.2,0.6,0.3,0.9c0.1,0.3,0.1,0.6,0.1,1c0,0.3,0,0.7-0.1,1c-0.1,0.3-0.2,0.6-0.3,0.9c-0.1,0.3-0.3,0.6-0.5,0.9
								c-0.2,0.3-0.4,0.5-0.6,0.8c-0.2,0.2-0.5,0.4-0.8,0.6c-0.3,0.2-0.6,0.3-0.9,0.5c-0.3,0.1-0.6,0.2-0.9,0.3
								C502.2,694.9,501.9,694.9,501.6,694.9z"/>
						</g>
						<g>
							<path class="st1" d="M496.6,765.3c0-2.8,2.2-5,5-5l0,0c2.8,0,5,2.2,5,5l0,0c0,2.8-2.2,5-5,5l0,0
								C498.8,770.3,496.6,768.1,496.6,765.3z M496.6,746.5c0-2.8,2.2-5,5-5l0,0c2.8,0,5,2.2,5,5l0,0c0,2.8-2.2,5-5,5l0,0
								C498.8,751.5,496.6,749.2,496.6,746.5z M496.6,727.6c0-2.8,2.2-5,5-5l0,0c2.8,0,5,2.2,5,5l0,0c0,2.8-2.2,5-5,5l0,0
								C498.8,732.6,496.6,730.4,496.6,727.6z M496.6,708.8c0-2.8,2.2-5,5-5l0,0c2.8,0,5,2.2,5,5l0,0c0,2.8-2.2,5-5,5l0,0
								C498.8,713.8,496.6,711.5,496.6,708.8z"/>
						</g>
						<g>
							<path class="st1" d="M501.6,789.2c-0.3,0-0.7,0-1-0.1c-0.3-0.1-0.6-0.2-0.9-0.3c-0.3-0.1-0.6-0.3-0.9-0.5
								c-0.3-0.2-0.5-0.4-0.8-0.6c-0.2-0.2-0.4-0.5-0.6-0.8c-0.2-0.3-0.3-0.6-0.5-0.9c-0.1-0.3-0.2-0.6-0.3-0.9
								c-0.1-0.3-0.1-0.7-0.1-1c0-0.3,0-0.7,0.1-1c0.1-0.3,0.2-0.6,0.3-0.9c0.1-0.3,0.3-0.6,0.5-0.9c0.2-0.3,0.4-0.5,0.6-0.8
								c0.2-0.2,0.5-0.4,0.8-0.6s0.6-0.3,0.9-0.5c0.3-0.1,0.6-0.2,0.9-0.3c1.6-0.3,3.4,0.2,4.5,1.4c0.2,0.2,0.4,0.5,0.6,0.8
								c0.2,0.3,0.3,0.6,0.5,0.9c0.1,0.3,0.2,0.6,0.3,0.9c0.1,0.3,0.1,0.7,0.1,1c0,0.3,0,0.6-0.1,1c-0.1,0.3-0.2,0.6-0.3,0.9
								c-0.1,0.3-0.3,0.6-0.5,0.9c-0.2,0.3-0.4,0.5-0.6,0.8C504.2,788.7,502.9,789.2,501.6,789.2z"/>
						</g>
						<g>
							<path class="st1" d="M759.8,784.2c0-2.8,2.2-5,5-5l0,0c2.8,0,5,2.2,5,5l0,0c0,2.8-2.2,5-5,5l0,0
								C762,789.2,759.8,787,759.8,784.2z M739.5,784.2c0-2.8,2.2-5,5-5l0,0c2.8,0,5,2.2,5,5l0,0c0,2.8-2.2,5-5,5l0,0
								C741.8,789.2,739.5,787,739.5,784.2z M719.3,784.2c0-2.8,2.2-5,5-5l0,0c2.8,0,5,2.2,5,5l0,0c0,2.8-2.2,5-5,5l0,0
								C721.5,789.2,719.3,787,719.3,784.2z M699.1,784.2c0-2.8,2.2-5,5-5l0,0c2.8,0,5,2.2,5,5l0,0c0,2.8-2.2,5-5,5l0,0
								C701.3,789.2,699.1,787,699.1,784.2z M678.8,784.2c0-2.8,2.2-5,5-5l0,0c2.8,0,5,2.2,5,5l0,0c0,2.8-2.2,5-5,5l0,0
								C681,789.2,678.8,787,678.8,784.2z M658.6,784.2c0-2.8,2.2-5,5-5l0,0c2.8,0,5,2.2,5,5l0,0c0,2.8-2.2,5-5,5l0,0
								C660.8,789.2,658.6,787,658.6,784.2z M638.3,784.2c0-2.8,2.2-5,5-5l0,0c2.8,0,5,2.2,5,5l0,0c0,2.8-2.2,5-5,5l0,0
								C640.5,789.2,638.3,787,638.3,784.2z M618.1,784.2c0-2.8,2.2-5,5-5l0,0c2.8,0,5,2.2,5,5l0,0c0,2.8-2.2,5-5,5l0,0
								C620.3,789.2,618.1,787,618.1,784.2z M597.8,784.2c0-2.8,2.2-5,5-5l0,0c2.8,0,5,2.2,5,5l0,0c0,2.8-2.2,5-5,5l0,0
								C600.1,789.2,597.8,787,597.8,784.2z M577.6,784.2c0-2.8,2.2-5,5-5l0,0c2.8,0,5,2.2,5,5l0,0c0,2.8-2.2,5-5,5l0,0
								C579.8,789.2,577.6,787,577.6,784.2z M557.3,784.2c0-2.8,2.2-5,5-5l0,0c2.8,0,5,2.2,5,5l0,0c0,2.8-2.2,5-5,5l0,0
								C559.6,789.2,557.3,787,557.3,784.2z M537.1,784.2c0-2.8,2.2-5,5-5l0,0c2.8,0,5,2.2,5,5l0,0c0,2.8-2.2,5-5,5l0,0
								C539.3,789.2,537.1,787,537.1,784.2z M516.8,784.2c0-2.8,2.2-5,5-5l0,0c2.8,0,5,2.2,5,5l0,0c0,2.8-2.2,5-5,5l0,0
								C519.1,789.2,516.8,787,516.8,784.2z"/>
						</g>
						<g>
							<path class="st1" d="M785,789.2c-1.3,0-2.6-0.5-3.5-1.5c-0.2-0.2-0.4-0.5-0.6-0.8c-0.2-0.3-0.3-0.6-0.5-0.9
								c-0.1-0.3-0.2-0.6-0.3-0.9c-0.1-0.3-0.1-0.7-0.1-1c0-0.3,0-0.7,0.1-1c0.1-0.3,0.2-0.6,0.3-0.9c0.1-0.3,0.3-0.6,0.5-0.9
								c0.2-0.3,0.4-0.5,0.6-0.8c0.2-0.2,0.5-0.4,0.8-0.6s0.6-0.3,0.9-0.5c0.3-0.1,0.6-0.2,0.9-0.3c0.6-0.1,1.3-0.1,2,0
								c0.3,0.1,0.6,0.2,0.9,0.3c0.3,0.1,0.6,0.3,0.9,0.5c0.3,0.2,0.5,0.4,0.8,0.6c0.2,0.2,0.4,0.5,0.6,0.8c0.2,0.3,0.3,0.6,0.5,0.9
								c0.1,0.3,0.2,0.6,0.3,0.9c0.1,0.3,0.1,0.7,0.1,1c0,0.3,0,0.6-0.1,1c-0.1,0.3-0.2,0.6-0.3,0.9c-0.1,0.3-0.3,0.6-0.5,0.9
								c-0.2,0.3-0.4,0.5-0.6,0.8C787.6,788.7,786.4,789.2,785,789.2z"/>
						</g>
						<g>
							<path class="st1" d="M780,951.9c0-2.8,2.2-5,5-5l0,0c2.8,0,5,2.2,5,5l0,0c0,2.8-2.2,5-5,5l0,0
								C782.3,956.9,780,954.6,780,951.9z M780,930.9c0-2.8,2.2-5,5-5l0,0c2.8,0,5,2.2,5,5l0,0c0,2.8-2.2,5-5,5l0,0
								C782.3,935.9,780,933.7,780,930.9z M780,910c0-2.8,2.2-5,5-5l0,0c2.8,0,5,2.2,5,5l0,0c0,2.8-2.2,5-5,5l0,0
								C782.3,915,780,912.7,780,910z M780,889c0-2.8,2.2-5,5-5l0,0c2.8,0,5,2.2,5,5l0,0c0,2.8-2.2,5-5,5l0,0
								C782.3,894,780,891.8,780,889z M780,868c0-2.8,2.2-5,5-5l0,0c2.8,0,5,2.2,5,5l0,0c0,2.8-2.2,5-5,5l0,0
								C782.3,873,780,870.8,780,868z M780,847.1c0-2.8,2.2-5,5-5l0,0c2.8,0,5,2.2,5,5l0,0c0,2.8-2.2,5-5,5l0,0
								C782.3,852.1,780,849.8,780,847.1z M780,826.1c0-2.8,2.2-5,5-5l0,0c2.8,0,5,2.2,5,5l0,0c0,2.8-2.2,5-5,5l0,0
								C782.3,831.1,780,828.9,780,826.1z M780,805.2c0-2.8,2.2-5,5-5l0,0c2.8,0,5,2.2,5,5l0,0c0,2.8-2.2,5-5,5l0,0
								C782.3,810.2,780,807.9,780,805.2z"/>
						</g>
						<g>
							<path class="st1" d="M785,977.8c-1.3,0-2.6-0.5-3.5-1.5c-0.9-0.9-1.5-2.2-1.5-3.5c0-1.3,0.5-2.6,1.5-3.5
								c0.2-0.2,0.5-0.4,0.8-0.6s0.6-0.3,0.9-0.5c0.3-0.1,0.6-0.2,0.9-0.3c0.6-0.1,1.3-0.1,2,0c0.3,0.1,0.6,0.2,0.9,0.3
								c0.3,0.1,0.6,0.3,0.9,0.5c0.3,0.2,0.5,0.4,0.8,0.6c0.2,0.2,0.4,0.5,0.6,0.8c0.2,0.3,0.3,0.6,0.5,0.9c0.1,0.3,0.2,0.6,0.3,0.9
								c0.1,0.3,0.1,0.7,0.1,1c0,0.3,0,0.7-0.1,1c-0.1,0.3-0.2,0.6-0.3,0.9c-0.1,0.3-0.3,0.6-0.5,0.9c-0.2,0.3-0.4,0.5-0.6,0.8
								c-0.2,0.2-0.5,0.4-0.8,0.6c-0.3,0.2-0.6,0.3-0.9,0.5c-0.3,0.1-0.6,0.2-0.9,0.3C785.7,977.8,785.4,977.8,785,977.8z"/>
						</g>
						<g>
							<path class="st1" d="M1042.6,972.8c0-2.8,2.2-5,5-5l0,0c2.8,0,5,2.2,5,5l0,0c0,2.8-2.2,5-5,5l0,0
								C1044.9,977.8,1042.6,975.6,1042.6,972.8z M1022.4,972.8c0-2.8,2.2-5,5-5l0,0c2.8,0,5,2.2,5,5l0,0c0,2.8-2.2,5-5,5l0,0
								C1024.7,977.8,1022.4,975.6,1022.4,972.8z M1002.2,972.8c0-2.8,2.2-5,5-5l0,0c2.8,0,5,2.2,5,5l0,0c0,2.8-2.2,5-5,5l0,0
								C1004.5,977.8,1002.2,975.6,1002.2,972.8z M982,972.8c0-2.8,2.2-5,5-5l0,0c2.8,0,5,2.2,5,5l0,0c0,2.8-2.2,5-5,5l0,0
								C984.3,977.8,982,975.6,982,972.8z M961.8,972.8c0-2.8,2.2-5,5-5l0,0c2.8,0,5,2.2,5,5l0,0c0,2.8-2.2,5-5,5l0,0
								C964.1,977.8,961.8,975.6,961.8,972.8z M941.6,972.8c0-2.8,2.2-5,5-5l0,0c2.8,0,5,2.2,5,5l0,0c0,2.8-2.2,5-5,5l0,0
								C943.9,977.8,941.6,975.6,941.6,972.8z M921.4,972.8c0-2.8,2.2-5,5-5l0,0c2.8,0,5,2.2,5,5l0,0c0,2.8-2.2,5-5,5l0,0
								C923.7,977.8,921.4,975.6,921.4,972.8z M901.2,972.8c0-2.8,2.2-5,5-5l0,0c2.8,0,5,2.2,5,5l0,0c0,2.8-2.2,5-5,5l0,0
								C903.5,977.8,901.2,975.6,901.2,972.8z M881,972.8c0-2.8,2.2-5,5-5l0,0c2.8,0,5,2.2,5,5l0,0c0,2.8-2.2,5-5,5l0,0
								C883.3,977.8,881,975.6,881,972.8z M860.8,972.8c0-2.8,2.2-5,5-5l0,0c2.8,0,5,2.2,5,5l0,0c0,2.8-2.2,5-5,5l0,0
								C863.1,977.8,860.8,975.6,860.8,972.8z M840.6,972.8c0-2.8,2.2-5,5-5l0,0c2.8,0,5,2.2,5,5l0,0c0,2.8-2.2,5-5,5l0,0
								C842.9,977.8,840.6,975.6,840.6,972.8z M820.4,972.8c0-2.8,2.2-5,5-5l0,0c2.8,0,5,2.2,5,5l0,0c0,2.8-2.2,5-5,5l0,0
								C822.7,977.8,820.4,975.6,820.4,972.8z M800.2,972.8c0-2.8,2.2-5,5-5l0,0c2.8,0,5,2.2,5,5l0,0c0,2.8-2.2,5-5,5l0,0
								C802.5,977.8,800.2,975.6,800.2,972.8z"/>
						</g>
						<g>
							<path class="st1" d="M1067.8,977.8c-0.3,0-0.6,0-1-0.1c-0.3-0.1-0.6-0.2-0.9-0.3c-0.3-0.1-0.6-0.3-0.9-0.5
								c-0.3-0.2-0.5-0.4-0.8-0.6c-0.9-0.9-1.5-2.2-1.5-3.5c0-0.3,0-0.7,0.1-1c0.1-0.3,0.2-0.6,0.3-0.9c0.1-0.3,0.3-0.6,0.5-0.9
								c0.2-0.3,0.4-0.5,0.6-0.8c0.2-0.2,0.5-0.4,0.8-0.6c0.3-0.2,0.6-0.3,0.9-0.5c0.3-0.1,0.6-0.2,0.9-0.3c0.7-0.1,1.3-0.1,2,0
								c0.3,0.1,0.6,0.2,0.9,0.3c0.3,0.1,0.6,0.3,0.9,0.5c0.3,0.2,0.5,0.4,0.8,0.6c0.2,0.2,0.4,0.5,0.6,0.8c0.2,0.3,0.3,0.6,0.5,0.9
								c0.1,0.3,0.2,0.6,0.3,0.9c0.1,0.3,0.1,0.7,0.1,1c0,1.3-0.5,2.6-1.5,3.5c-0.2,0.2-0.5,0.4-0.8,0.6c-0.3,0.2-0.6,0.3-0.9,0.5
								c-0.3,0.1-0.6,0.2-0.9,0.3C1068.5,977.8,1068.1,977.8,1067.8,977.8z"/>
						</g>
						<g>
							<path class="st1" d="M1062.8,1141.1c0-2.8,2.2-5,5-5l0,0c2.8,0,5,2.2,5,5l0,0c0,2.8-2.2,5-5,5l0,0
								C1065.1,1146.1,1062.8,1143.9,1062.8,1141.1z M1062.8,1120.1c0-2.8,2.2-5,5-5l0,0c2.8,0,5,2.2,5,5l0,0c0,2.8-2.2,5-5,5l0,0
								C1065.1,1125.1,1062.8,1122.9,1062.8,1120.1z M1062.8,1099.1c0-2.8,2.2-5,5-5l0,0c2.8,0,5,2.2,5,5l0,0c0,2.8-2.2,5-5,5l0,0
								C1065.1,1104.1,1062.8,1101.8,1062.8,1099.1z M1062.8,1078c0-2.8,2.2-5,5-5l0,0c2.8,0,5,2.2,5,5l0,0c0,2.8-2.2,5-5,5l0,0
								C1065.1,1083,1062.8,1080.8,1062.8,1078z M1062.8,1057c0-2.8,2.2-5,5-5l0,0c2.8,0,5,2.2,5,5l0,0c0,2.8-2.2,5-5,5l0,0
								C1065.1,1062,1062.8,1059.8,1062.8,1057z M1062.8,1036c0-2.8,2.2-5,5-5l0,0c2.8,0,5,2.2,5,5l0,0c0,2.8-2.2,5-5,5l0,0
								C1065.1,1041,1062.8,1038.7,1062.8,1036z M1062.8,1014.9c0-2.8,2.2-5,5-5l0,0c2.8,0,5,2.2,5,5l0,0c0,2.8-2.2,5-5,5l0,0
								C1065.1,1019.9,1062.8,1017.7,1062.8,1014.9z M1062.8,993.9c0-2.8,2.2-5,5-5l0,0c2.8,0,5,2.2,5,5l0,0c0,2.8-2.2,5-5,5l0,0
								C1065.1,998.9,1062.8,996.6,1062.8,993.9z"/>
						</g>
						<g>
							<path class="st1" d="M1067.8,1167.2c-0.3,0-0.6,0-1-0.1c-0.3-0.1-0.6-0.2-0.9-0.3c-0.3-0.1-0.6-0.3-0.9-0.5
								c-0.3-0.2-0.5-0.4-0.8-0.6c-0.2-0.2-0.4-0.5-0.6-0.8c-0.2-0.3-0.3-0.6-0.5-0.9c-0.1-0.3-0.2-0.6-0.3-0.9
								c-0.1-0.3-0.1-0.6-0.1-1c0-0.3,0-0.7,0.1-1c0.1-0.3,0.2-0.6,0.3-0.9c0.1-0.3,0.3-0.6,0.5-0.9c0.2-0.3,0.4-0.5,0.6-0.8
								c0.2-0.2,0.5-0.4,0.8-0.6c0.3-0.2,0.6-0.3,0.9-0.5c0.3-0.1,0.6-0.2,0.9-0.3c0.6-0.1,1.3-0.1,2,0c0.3,0.1,0.6,0.2,0.9,0.3
								c0.3,0.1,0.6,0.3,0.9,0.5c0.3,0.2,0.5,0.4,0.8,0.6c0.2,0.2,0.4,0.5,0.6,0.8c0.2,0.3,0.3,0.6,0.5,0.9c0.1,0.3,0.2,0.6,0.3,0.9
								c0.1,0.3,0.1,0.6,0.1,1c0,0.3,0,0.7-0.1,1c-0.1,0.3-0.2,0.6-0.3,0.9c-0.1,0.3-0.3,0.6-0.5,0.9c-0.2,0.3-0.4,0.5-0.6,0.8
								C1070.4,1166.6,1069.1,1167.2,1067.8,1167.2z"/>
						</g>
						<g>
							<path class="st1" d="M1044,1162.2c0-2.8,2.2-5,5-5l0,0c2.8,0,5,2.2,5,5l0,0c0,2.8-2.2,5-5,5l0,0
								C1046.2,1167.2,1044,1164.9,1044,1162.2z M1025.1,1162.2c0-2.8,2.2-5,5-5l0,0c2.8,0,5,2.2,5,5l0,0c0,2.8-2.2,5-5,5l0,0
								C1027.4,1167.2,1025.1,1164.9,1025.1,1162.2z M1006.3,1162.2c0-2.8,2.2-5,5-5l0,0c2.8,0,5,2.2,5,5l0,0c0,2.8-2.2,5-5,5l0,0
								C1008.5,1167.2,1006.3,1164.9,1006.3,1162.2z M987.4,1162.2c0-2.8,2.2-5,5-5l0,0c2.8,0,5,2.2,5,5l0,0c0,2.8-2.2,5-5,5l0,0
								C989.6,1167.2,987.4,1164.9,987.4,1162.2z"/>
						</g>
						<g>
							<path class="st1" d="M973.6,1167.2c-1.3,0-2.6-0.5-3.5-1.5c-0.2-0.2-0.4-0.5-0.6-0.8c-0.2-0.3-0.3-0.6-0.5-0.9
								c-0.1-0.3-0.2-0.6-0.3-0.9c-0.1-0.3-0.1-0.6-0.1-1c0-0.3,0-0.7,0.1-1c0.1-0.3,0.2-0.6,0.3-0.9c0.1-0.3,0.3-0.6,0.5-0.9
								c0.2-0.3,0.4-0.5,0.6-0.8c0.2-0.2,0.5-0.4,0.8-0.6c0.3-0.2,0.6-0.3,0.9-0.5c0.3-0.1,0.6-0.2,0.9-0.3c1.6-0.3,3.3,0.2,4.5,1.4
								c0.2,0.2,0.4,0.5,0.6,0.8c0.2,0.3,0.3,0.6,0.5,0.9c0.1,0.3,0.2,0.6,0.3,0.9c0.1,0.3,0.1,0.6,0.1,1c0,0.3,0,0.7-0.1,1
								c-0.1,0.3-0.2,0.6-0.3,0.9c-0.1,0.3-0.3,0.6-0.5,0.9c-0.2,0.3-0.4,0.5-0.6,0.8C976.2,1166.6,974.9,1167.2,973.6,1167.2z"/>
						</g>
						<g>
							<path class="st1" d="M968.6,1237c0-2.8,2.2-5,5-5l0,0c2.8,0,5,2.2,5,5l0,0c0,2.8-2.2,5-5,5l0,0
								C970.8,1242,968.6,1239.8,968.6,1237z M968.6,1218.3c0-2.8,2.2-5,5-5l0,0c2.8,0,5,2.2,5,5l0,0c0,2.8-2.2,5-5,5l0,0
								C970.8,1223.3,968.6,1221.1,968.6,1218.3z M968.6,1199.6c0-2.8,2.2-5,5-5l0,0c2.8,0,5,2.2,5,5l0,0c0,2.8-2.2,5-5,5l0,0
								C970.8,1204.6,968.6,1202.4,968.6,1199.6z M968.6,1180.9c0-2.8,2.2-5,5-5l0,0c2.8,0,5,2.2,5,5l0,0c0,2.8-2.2,5-5,5l0,0
								C970.8,1185.9,968.6,1183.6,968.6,1180.9z"/>
						</g>
						<g>
							<path class="st1" d="M973.6,1260.8c-0.3,0-0.6,0-1-0.1c-0.3-0.1-0.6-0.2-0.9-0.3c-0.3-0.1-0.6-0.3-0.9-0.5
								c-0.3-0.2-0.5-0.4-0.8-0.6c-0.9-0.9-1.5-2.2-1.5-3.5c0-1.3,0.5-2.6,1.5-3.5c0.2-0.2,0.5-0.4,0.8-0.6c0.3-0.2,0.6-0.3,0.9-0.5
								c0.3-0.1,0.6-0.2,0.9-0.3c0.6-0.1,1.3-0.1,2,0c0.3,0.1,0.6,0.2,0.9,0.3c0.3,0.1,0.6,0.3,0.9,0.5c0.3,0.2,0.5,0.4,0.8,0.6
								c0.9,0.9,1.5,2.2,1.5,3.5c0,1.3-0.5,2.6-1.5,3.5c-0.2,0.2-0.5,0.4-0.8,0.6c-0.3,0.2-0.6,0.3-0.9,0.5
								c-0.3,0.1-0.6,0.2-0.9,0.3C974.2,1260.7,973.9,1260.8,973.6,1260.8z"/>
						</g>
						<g>
							<path class="st1" d="M1231.1,1255.8c0-2.8,2.2-5,5-5l0,0c2.8,0,5,2.2,5,5l0,0c0,2.8-2.2,5-5,5l0,0
								C1233.4,1260.8,1231.1,1258.5,1231.1,1255.8z M1210.9,1255.8c0-2.8,2.2-5,5-5l0,0c2.8,0,5,2.2,5,5l0,0c0,2.8-2.2,5-5,5l0,0
								C1213.2,1260.8,1210.9,1258.5,1210.9,1255.8z M1190.7,1255.8c0-2.8,2.2-5,5-5l0,0c2.8,0,5,2.2,5,5l0,0c0,2.8-2.2,5-5,5l0,0
								C1193,1260.8,1190.7,1258.5,1190.7,1255.8z M1170.5,1255.8c0-2.8,2.2-5,5-5l0,0c2.8,0,5,2.2,5,5l0,0c0,2.8-2.2,5-5,5l0,0
								C1172.8,1260.8,1170.5,1258.5,1170.5,1255.8z M1150.3,1255.8c0-2.8,2.2-5,5-5l0,0c2.8,0,5,2.2,5,5l0,0c0,2.8-2.2,5-5,5l0,0
								C1152.6,1260.8,1150.3,1258.5,1150.3,1255.8z M1130.1,1255.8c0-2.8,2.2-5,5-5l0,0c2.8,0,5,2.2,5,5l0,0c0,2.8-2.2,5-5,5l0,0
								C1132.4,1260.8,1130.1,1258.5,1130.1,1255.8z M1110,1255.8c0-2.8,2.2-5,5-5l0,0c2.8,0,5,2.2,5,5l0,0c0,2.8-2.2,5-5,5l0,0
								C1112.2,1260.8,1110,1258.5,1110,1255.8z M1089.8,1255.8c0-2.8,2.2-5,5-5l0,0c2.8,0,5,2.2,5,5l0,0c0,2.8-2.2,5-5,5l0,0
								C1092,1260.8,1089.8,1258.5,1089.8,1255.8z M1069.5,1255.8c0-2.8,2.2-5,5-5l0,0c2.8,0,5,2.2,5,5l0,0c0,2.8-2.2,5-5,5l0,0
								C1071.8,1260.8,1069.5,1258.5,1069.5,1255.8z M1049.4,1255.8c0-2.8,2.2-5,5-5l0,0c2.8,0,5,2.2,5,5l0,0c0,2.8-2.2,5-5,5l0,0
								C1051.6,1260.8,1049.4,1258.5,1049.4,1255.8z M1029.2,1255.8c0-2.8,2.2-5,5-5l0,0c2.8,0,5,2.2,5,5l0,0c0,2.8-2.2,5-5,5l0,0
								C1031.4,1260.8,1029.2,1258.5,1029.2,1255.8z M1009,1255.8c0-2.8,2.2-5,5-5l0,0c2.8,0,5,2.2,5,5l0,0c0,2.8-2.2,5-5,5l0,0
								C1011.2,1260.8,1009,1258.5,1009,1255.8z M988.8,1255.8c0-2.8,2.2-5,5-5l0,0c2.8,0,5,2.2,5,5l0,0c0,2.8-2.2,5-5,5l0,0
								C991,1260.8,988.8,1258.5,988.8,1255.8z"/>
						</g>
						<g>
							<path class="st1" d="M1256.3,1260.8c-0.3,0-0.7,0-1-0.1c-0.3-0.1-0.6-0.2-0.9-0.3c-0.3-0.1-0.6-0.3-0.9-0.5
								c-0.3-0.2-0.5-0.4-0.8-0.6c-0.9-0.9-1.5-2.2-1.5-3.5c0-1.3,0.5-2.6,1.5-3.5c0.2-0.2,0.5-0.4,0.8-0.6c0.3-0.2,0.6-0.3,0.9-0.5
								c0.3-0.1,0.6-0.2,0.9-0.3c0.6-0.1,1.3-0.1,2,0c0.3,0.1,0.6,0.2,0.9,0.3c0.3,0.1,0.6,0.3,0.9,0.5c0.3,0.2,0.5,0.4,0.8,0.6
								c0.9,0.9,1.5,2.2,1.5,3.5c0,1.3-0.5,2.6-1.5,3.5c-0.2,0.2-0.5,0.4-0.8,0.6c-0.3,0.2-0.6,0.3-0.9,0.5
								c-0.3,0.1-0.6,0.2-0.9,0.3C1257,1260.7,1256.7,1260.8,1256.3,1260.8z"/>
						</g>
						<g>
							<path class="st1" d="M1251.3,1234.8c0-2.8,2.2-5,5-5l0,0c2.8,0,5,2.2,5,5l0,0c0,2.8-2.2,5-5,5l0,0
								C1253.6,1239.8,1251.3,1237.6,1251.3,1234.8z M1251.3,1213.9c0-2.8,2.2-5,5-5l0,0c2.8,0,5,2.2,5,5l0,0c0,2.8-2.2,5-5,5l0,0
								C1253.6,1218.9,1251.3,1216.6,1251.3,1213.9z M1251.3,1192.9c0-2.8,2.2-5,5-5l0,0c2.8,0,5,2.2,5,5l0,0c0,2.8-2.2,5-5,5l0,0
								C1253.6,1197.9,1251.3,1195.7,1251.3,1192.9z M1251.3,1171.9c0-2.8,2.2-5,5-5l0,0c2.8,0,5,2.2,5,5l0,0c0,2.8-2.2,5-5,5l0,0
								C1253.6,1176.9,1251.3,1174.7,1251.3,1171.9z M1251.3,1151c0-2.8,2.2-5,5-5l0,0c2.8,0,5,2.2,5,5l0,0c0,2.8-2.2,5-5,5l0,0
								C1253.6,1156,1251.3,1153.7,1251.3,1151z M1251.3,1130c0-2.8,2.2-5,5-5l0,0c2.8,0,5,2.2,5,5l0,0c0,2.8-2.2,5-5,5l0,0
								C1253.6,1135,1251.3,1132.8,1251.3,1130z M1251.3,1109.1c0-2.8,2.2-5,5-5l0,0c2.8,0,5,2.2,5,5l0,0c0,2.8-2.2,5-5,5l0,0
								C1253.6,1114.1,1251.3,1111.8,1251.3,1109.1z M1251.3,1088.1c0-2.8,2.2-5,5-5l0,0c2.8,0,5,2.2,5,5l0,0c0,2.8-2.2,5-5,5l0,0
								C1253.6,1093.1,1251.3,1090.9,1251.3,1088.1z"/>
						</g>
						<g>
							<path class="st1" d="M1256.3,1072.1c-0.3,0-0.7,0-1-0.1c-0.3-0.1-0.6-0.2-0.9-0.3c-0.3-0.1-0.6-0.3-0.9-0.5
								c-0.3-0.2-0.5-0.4-0.8-0.6c-0.2-0.2-0.4-0.5-0.6-0.8c-0.2-0.3-0.3-0.6-0.5-0.9c-0.1-0.3-0.2-0.6-0.3-0.9
								c-0.1-0.3-0.1-0.7-0.1-1s0-0.7,0.1-1c0.1-0.3,0.2-0.6,0.3-0.9c0.1-0.3,0.3-0.6,0.5-0.9c0.2-0.3,0.4-0.5,0.6-0.8
								c0.2-0.2,0.5-0.4,0.8-0.6c0.3-0.2,0.6-0.3,0.9-0.5c0.3-0.1,0.6-0.2,0.9-0.3c0.6-0.1,1.3-0.1,2,0c0.3,0.1,0.6,0.2,0.9,0.3
								c0.3,0.1,0.6,0.3,0.9,0.5c0.3,0.2,0.5,0.4,0.8,0.6c0.2,0.2,0.4,0.5,0.6,0.8c0.2,0.3,0.3,0.6,0.5,0.9c0.1,0.3,0.2,0.6,0.3,0.9
								c0.1,0.3,0.1,0.6,0.1,1s0,0.7-0.1,1c-0.1,0.3-0.2,0.6-0.3,0.9c-0.1,0.3-0.3,0.6-0.5,0.9c-0.2,0.3-0.4,0.5-0.6,0.8
								c-0.2,0.2-0.5,0.4-0.8,0.6c-0.3,0.2-0.6,0.3-0.9,0.5c-0.3,0.1-0.6,0.2-0.9,0.3C1257,1072.1,1256.7,1072.1,1256.3,1072.1z"/>
						</g>
						<g>
							<path class="st1" d="M1232.5,1067.1c0-2.8,2.2-5,5-5l0,0c2.8,0,5,2.2,5,5l0,0c0,2.8-2.2,5-5,5l0,0
								C1234.7,1072.1,1232.5,1069.9,1232.5,1067.1z M1213.6,1067.1c0-2.8,2.2-5,5-5l0,0c2.8,0,5,2.2,5,5l0,0c0,2.8-2.2,5-5,5l0,0
								C1215.9,1072.1,1213.6,1069.9,1213.6,1067.1z M1194.8,1067.1c0-2.8,2.2-5,5-5l0,0c2.8,0,5,2.2,5,5l0,0c0,2.8-2.2,5-5,5l0,0
								C1197,1072.1,1194.8,1069.9,1194.8,1067.1z M1175.9,1067.1c0-2.8,2.2-5,5-5l0,0c2.8,0,5,2.2,5,5l0,0c0,2.8-2.2,5-5,5l0,0
								C1178.2,1072.1,1175.9,1069.9,1175.9,1067.1z"/>
						</g>
						<g>
							<path class="st1" d="M1162.1,1072.1c-0.3,0-0.7,0-1-0.1c-0.3-0.1-0.6-0.2-0.9-0.3c-0.3-0.1-0.6-0.3-0.9-0.5
								c-0.3-0.2-0.5-0.4-0.8-0.6c-0.2-0.2-0.4-0.5-0.6-0.8c-0.2-0.3-0.3-0.6-0.5-0.9c-0.1-0.3-0.2-0.6-0.3-0.9
								c-0.1-0.3-0.1-0.7-0.1-1s0-0.7,0.1-1c0.1-0.3,0.2-0.6,0.3-0.9c0.1-0.3,0.3-0.6,0.5-0.9c0.2-0.3,0.4-0.5,0.6-0.8
								c0.2-0.2,0.5-0.4,0.8-0.6c0.3-0.2,0.6-0.3,0.9-0.5c0.3-0.1,0.6-0.2,0.9-0.3c0.7-0.1,1.3-0.1,2,0c0.3,0.1,0.6,0.2,0.9,0.3
								c0.3,0.1,0.6,0.3,0.9,0.5c0.3,0.2,0.5,0.4,0.8,0.6c0.2,0.2,0.4,0.5,0.6,0.8c0.2,0.3,0.3,0.6,0.4,0.9c0.1,0.3,0.2,0.6,0.3,0.9
								c0.1,0.3,0.1,0.6,0.1,1s0,0.7-0.1,1c-0.1,0.3-0.2,0.6-0.3,0.9c-0.1,0.3-0.3,0.6-0.4,0.9c-0.2,0.3-0.4,0.5-0.6,0.8
								c-0.2,0.2-0.5,0.4-0.8,0.6c-0.3,0.2-0.6,0.3-0.9,0.5c-0.3,0.1-0.6,0.2-0.9,0.3C1162.7,1072.1,1162.4,1072.1,1162.1,1072.1z"
								/>
						</g>
						<g>
							<path class="st1" d="M1157.1,1046.2c0-2.8,2.2-5,5-5l0,0c2.8,0,5,2.2,5,5l0,0c0,2.8-2.2,5-5,5l0,0
								C1159.3,1051.2,1157.1,1049,1157.1,1046.2z M1157.1,1025.2c0-2.8,2.2-5,5-5l0,0c2.8,0,5,2.2,5,5l0,0c0,2.8-2.2,5-5,5l0,0
								C1159.3,1030.2,1157.1,1028,1157.1,1025.2z M1157.1,1004.3c0-2.8,2.2-5,5-5l0,0c2.8,0,5,2.2,5,5l0,0c0,2.8-2.2,5-5,5l0,0
								C1159.3,1009.3,1157.1,1007,1157.1,1004.3z M1157.1,983.3c0-2.8,2.2-5,5-5l0,0c2.8,0,5,2.2,5,5l0,0c0,2.8-2.2,5-5,5l0,0
								C1159.3,988.3,1157.1,986.1,1157.1,983.3z M1157.1,962.4c0-2.8,2.2-5,5-5l0,0c2.8,0,5,2.2,5,5l0,0c0,2.8-2.2,5-5,5l0,0
								C1159.3,967.4,1157.1,965.1,1157.1,962.4z M1157.1,941.4c0-2.8,2.2-5,5-5l0,0c2.8,0,5,2.2,5,5l0,0c0,2.8-2.2,5-5,5l0,0
								C1159.3,946.4,1157.1,944.2,1157.1,941.4z M1157.1,920.4c0-2.8,2.2-5,5-5l0,0c2.8,0,5,2.2,5,5l0,0c0,2.8-2.2,5-5,5l0,0
								C1159.3,925.4,1157.1,923.2,1157.1,920.4z M1157.1,899.5c0-2.8,2.2-5,5-5l0,0c2.8,0,5,2.2,5,5l0,0c0,2.8-2.2,5-5,5l0,0
								C1159.3,904.5,1157.1,902.2,1157.1,899.5z"/>
						</g>
						<g>
							<path class="st1" d="M1162.1,883.5c-1.3,0-2.6-0.5-3.5-1.5c-0.2-0.2-0.4-0.5-0.6-0.8s-0.3-0.6-0.5-0.9
								c-0.1-0.3-0.2-0.6-0.3-0.9c-0.1-0.3-0.1-0.7-0.1-1c0-1.3,0.5-2.6,1.5-3.5c0.2-0.2,0.5-0.4,0.8-0.6c0.3-0.2,0.6-0.3,0.9-0.5
								c0.3-0.1,0.6-0.2,0.9-0.3c0.7-0.1,1.3-0.1,2,0c0.3,0.1,0.6,0.2,0.9,0.3c0.3,0.1,0.6,0.3,0.9,0.5c0.3,0.2,0.5,0.4,0.8,0.6
								c0.9,0.9,1.5,2.2,1.5,3.5c0,0.3,0,0.7-0.1,1c-0.1,0.3-0.2,0.6-0.3,0.9c-0.1,0.3-0.3,0.6-0.5,0.9c-0.2,0.3-0.4,0.5-0.6,0.8
								c-0.2,0.2-0.5,0.4-0.8,0.6c-0.3,0.2-0.6,0.3-0.9,0.5c-0.3,0.1-0.6,0.2-0.9,0.3C1162.7,883.5,1162.4,883.5,1162.1,883.5z"/>
						</g>
						<g>
							<path class="st1" d="M1136.1,878.5c0-2.8,2.2-5,5-5l0,0c2.8,0,5,2.2,5,5l0,0c0,2.8-2.2,5-5,5l0,0
								C1138.4,883.5,1136.1,881.3,1136.1,878.5z M1115.2,878.5c0-2.8,2.2-5,5-5l0,0c2.8,0,5,2.2,5,5l0,0c0,2.8-2.2,5-5,5l0,0
								C1117.4,883.5,1115.2,881.3,1115.2,878.5z M1094.2,878.5c0-2.8,2.2-5,5-5l0,0c2.8,0,5,2.2,5,5l0,0c0,2.8-2.2,5-5,5l0,0
								C1096.5,883.5,1094.2,881.3,1094.2,878.5z M1073.3,878.5c0-2.8,2.2-5,5-5l0,0c2.8,0,5,2.2,5,5l0,0c0,2.8-2.2,5-5,5l0,0
								C1075.5,883.5,1073.3,881.3,1073.3,878.5z M1052.3,878.5c0-2.8,2.2-5,5-5l0,0c2.8,0,5,2.2,5,5l0,0c0,2.8-2.2,5-5,5l0,0
								C1054.6,883.5,1052.3,881.3,1052.3,878.5z M1031.4,878.5c0-2.8,2.2-5,5-5l0,0c2.8,0,5,2.2,5,5l0,0c0,2.8-2.2,5-5,5l0,0
								C1033.6,883.5,1031.4,881.3,1031.4,878.5z M1010.5,878.5c0-2.8,2.2-5,5-5l0,0c2.8,0,5,2.2,5,5l0,0c0,2.8-2.2,5-5,5l0,0
								C1012.7,883.5,1010.5,881.3,1010.5,878.5z M989.5,878.5c0-2.8,2.2-5,5-5l0,0c2.8,0,5,2.2,5,5l0,0c0,2.8-2.2,5-5,5l0,0
								C991.8,883.5,989.5,881.3,989.5,878.5z"/>
						</g>
						<g>
							<path class="st1" d="M973.6,883.5c-1.3,0-2.6-0.5-3.5-1.5c-0.2-0.2-0.4-0.5-0.6-0.8c-0.2-0.3-0.3-0.6-0.5-0.9
								c-0.1-0.3-0.2-0.6-0.3-0.9c-0.1-0.3-0.1-0.7-0.1-1c0-1.3,0.5-2.6,1.5-3.5c0.2-0.2,0.5-0.4,0.8-0.6c0.3-0.2,0.6-0.3,0.9-0.5
								c0.3-0.1,0.6-0.2,0.9-0.3c1.6-0.3,3.3,0.2,4.5,1.4c0.9,0.9,1.5,2.2,1.5,3.5c0,1.3-0.5,2.6-1.5,3.5
								C976.2,883,974.9,883.5,973.6,883.5z"/>
						</g>
						<g>
							<path class="st1" d="M968.6,858.3c0-2.8,2.2-5,5-5l0,0c2.8,0,5,2.2,5,5l0,0c0,2.8-2.2,5-5,5l0,0
								C970.8,863.3,968.6,861.1,968.6,858.3z M968.6,838.1c0-2.8,2.2-5,5-5l0,0c2.8,0,5,2.2,5,5l0,0c0,2.8-2.2,5-5,5l0,0
								C970.8,843.1,968.6,840.9,968.6,838.1z M968.6,817.9c0-2.8,2.2-5,5-5l0,0c2.8,0,5,2.2,5,5l0,0c0,2.8-2.2,5-5,5l0,0
								C970.8,822.9,968.6,820.6,968.6,817.9z M968.6,797.7c0-2.8,2.2-5,5-5l0,0c2.8,0,5,2.2,5,5l0,0c0,2.8-2.2,5-5,5l0,0
								C970.8,802.7,968.6,800.4,968.6,797.7z M968.6,777.5c0-2.8,2.2-5,5-5l0,0c2.8,0,5,2.2,5,5l0,0c0,2.8-2.2,5-5,5l0,0
								C970.8,782.5,968.6,780.2,968.6,777.5z M968.6,757.3c0-2.8,2.2-5,5-5l0,0c2.8,0,5,2.2,5,5l0,0c0,2.8-2.2,5-5,5l0,0
								C970.8,762.3,968.6,760,968.6,757.3z M968.6,737c0-2.8,2.2-5,5-5l0,0c2.8,0,5,2.2,5,5l0,0c0,2.8-2.2,5-5,5l0,0
								C970.8,742,968.6,739.8,968.6,737z M968.6,716.8c0-2.8,2.2-5,5-5l0,0c2.8,0,5,2.2,5,5l0,0c0,2.8-2.2,5-5,5l0,0
								C970.8,721.8,968.6,719.6,968.6,716.8z M968.6,696.6c0-2.8,2.2-5,5-5l0,0c2.8,0,5,2.2,5,5l0,0c0,2.8-2.2,5-5,5l0,0
								C970.8,701.6,968.6,699.4,968.6,696.6z M968.6,676.4c0-2.8,2.2-5,5-5l0,0c2.8,0,5,2.2,5,5l0,0c0,2.8-2.2,5-5,5l0,0
								C970.8,681.4,968.6,679.2,968.6,676.4z M968.6,656.2c0-2.8,2.2-5,5-5l0,0c2.8,0,5,2.2,5,5l0,0c0,2.8-2.2,5-5,5l0,0
								C970.8,661.2,968.6,659,968.6,656.2z M968.6,636c0-2.8,2.2-5,5-5l0,0c2.8,0,5,2.2,5,5l0,0c0,2.8-2.2,5-5,5l0,0
								C970.8,641,968.6,638.8,968.6,636z M968.6,615.8c0-2.8,2.2-5,5-5l0,0c2.8,0,5,2.2,5,5l0,0c0,2.8-2.2,5-5,5l0,0
								C970.8,620.8,968.6,618.5,968.6,615.8z"/>
						</g>
						<g>
							<path class="st1" d="M973.6,600.6c-0.3,0-0.6,0-1-0.1c-0.3-0.1-0.6-0.2-0.9-0.3c-0.3-0.1-0.6-0.3-0.9-0.5
								c-0.3-0.2-0.5-0.4-0.8-0.6c-0.2-0.2-0.4-0.5-0.6-0.8c-0.2-0.3-0.3-0.6-0.5-0.9c-0.1-0.3-0.2-0.6-0.3-0.9
								c-0.1-0.3-0.1-0.6-0.1-1c0-1.3,0.5-2.6,1.5-3.5c0.2-0.2,0.5-0.4,0.8-0.6c0.3-0.2,0.6-0.3,0.9-0.5c0.3-0.1,0.6-0.2,0.9-0.3
								c0.6-0.1,1.3-0.1,2,0c0.3,0.1,0.6,0.2,0.9,0.3c0.3,0.1,0.6,0.3,0.9,0.5c0.3,0.2,0.5,0.4,0.8,0.6c0.2,0.2,0.4,0.5,0.6,0.8
								c0.2,0.3,0.3,0.6,0.5,0.9c0.1,0.3,0.2,0.6,0.3,0.9c0.1,0.3,0.1,0.7,0.1,1c0,0.3,0,0.7-0.1,1c-0.1,0.3-0.2,0.6-0.3,0.9
								c-0.1,0.3-0.3,0.6-0.5,0.9c-0.2,0.3-0.4,0.5-0.6,0.8C976.2,600,974.9,600.6,973.6,600.6z"/>
						</g>
						<g>
							<path class="st1" d="M1230.2,595.6c0-2.8,2.2-5,5-5l0,0c2.8,0,5,2.2,5,5l0,0c0,2.8-2.2,5-5,5l0,0
								C1232.4,600.6,1230.2,598.3,1230.2,595.6z M1210,595.6c0-2.8,2.2-5,5-5l0,0c2.8,0,5,2.2,5,5l0,0c0,2.8-2.2,5-5,5l0,0
								C1212.3,600.6,1210,598.3,1210,595.6z M1189.9,595.6c0-2.8,2.2-5,5-5l0,0c2.8,0,5,2.2,5,5l0,0c0,2.8-2.2,5-5,5l0,0
								C1192.2,600.6,1189.9,598.3,1189.9,595.6z M1169.8,595.6c0-2.8,2.2-5,5-5l0,0c2.8,0,5,2.2,5,5l0,0c0,2.8-2.2,5-5,5l0,0
								C1172,600.6,1169.8,598.3,1169.8,595.6z M1149.7,595.6c0-2.8,2.2-5,5-5l0,0c2.8,0,5,2.2,5,5l0,0c0,2.8-2.2,5-5,5l0,0
								C1151.9,600.6,1149.7,598.3,1149.7,595.6z M1129.5,595.6c0-2.8,2.2-5,5-5l0,0c2.8,0,5,2.2,5,5l0,0c0,2.8-2.2,5-5,5l0,0
								C1131.8,600.6,1129.5,598.3,1129.5,595.6z M1109.4,595.6c0-2.8,2.2-5,5-5l0,0c2.8,0,5,2.2,5,5l0,0c0,2.8-2.2,5-5,5l0,0
								C1111.7,600.6,1109.4,598.3,1109.4,595.6z M1089.3,595.6c0-2.8,2.2-5,5-5l0,0c2.8,0,5,2.2,5,5l0,0c0,2.8-2.2,5-5,5l0,0
								C1091.5,600.6,1089.3,598.3,1089.3,595.6z M1069.2,595.6c0-2.8,2.2-5,5-5l0,0c2.8,0,5,2.2,5,5l0,0c0,2.8-2.2,5-5,5l0,0
								C1071.4,600.6,1069.2,598.3,1069.2,595.6z M1049.1,595.6c0-2.8,2.2-5,5-5l0,0c2.8,0,5,2.2,5,5l0,0c0,2.8-2.2,5-5,5l0,0
								C1051.3,600.6,1049.1,598.3,1049.1,595.6z M1028.9,595.6c0-2.8,2.2-5,5-5l0,0c2.8,0,5,2.2,5,5l0,0c0,2.8-2.2,5-5,5l0,0
								C1031.2,600.6,1028.9,598.3,1028.9,595.6z M1008.8,595.6c0-2.8,2.2-5,5-5l0,0c2.8,0,5,2.2,5,5l0,0c0,2.8-2.2,5-5,5l0,0
								C1011,600.6,1008.8,598.3,1008.8,595.6z M988.7,595.6c0-2.8,2.2-5,5-5l0,0c2.8,0,5,2.2,5,5l0,0c0,2.8-2.2,5-5,5l0,0
								C990.9,600.6,988.7,598.3,988.7,595.6z"/>
						</g>
						<g>
							<path class="st1" d="M1255.3,600.6c-0.3,0-0.7,0-1-0.1c-0.3-0.1-0.6-0.1-0.9-0.3c-0.3-0.1-0.6-0.3-0.9-0.5
								c-0.3-0.2-0.5-0.4-0.8-0.6c-0.2-0.2-0.4-0.5-0.6-0.8c-0.2-0.3-0.3-0.6-0.5-0.9c-0.1-0.3-0.2-0.6-0.3-0.9
								c-0.1-0.3-0.1-0.6-0.1-1c0-1.3,0.5-2.6,1.5-3.5c0.2-0.2,0.5-0.4,0.8-0.6c0.3-0.2,0.6-0.3,0.9-0.5c0.3-0.1,0.6-0.2,0.9-0.3
								c0.7-0.1,1.3-0.1,2,0c0.3,0.1,0.6,0.2,0.9,0.3c0.3,0.1,0.6,0.3,0.9,0.5c0.3,0.2,0.5,0.4,0.8,0.6c0.9,0.9,1.5,2.2,1.5,3.5
								c0,0.3,0,0.7-0.1,1c-0.1,0.3-0.2,0.6-0.3,0.9c-0.1,0.3-0.3,0.6-0.5,0.9c-0.2,0.3-0.4,0.5-0.6,0.8c-0.2,0.2-0.5,0.4-0.8,0.6
								c-0.3,0.2-0.6,0.3-0.9,0.5c-0.3,0.1-0.6,0.2-0.9,0.3C1256,600.5,1255.6,600.6,1255.3,600.6z"/>
						</g>
						<g>
							<path class="st1" d="M1250.3,671c0-2.8,2.2-5,5-5l0,0c2.8,0,5,2.2,5,5l0,0c0,2.8-2.2,5-5,5l0,0
								C1252.5,676,1250.3,673.8,1250.3,671z M1250.3,652.2c0-2.8,2.2-5,5-5l0,0c2.8,0,5,2.2,5,5l0,0c0,2.8-2.2,5-5,5l0,0
								C1252.5,657.2,1250.3,654.9,1250.3,652.2z M1250.3,633.3c0-2.8,2.2-5,5-5l0,0c2.8,0,5,2.2,5,5l0,0c0,2.8-2.2,5-5,5l0,0
								C1252.5,638.3,1250.3,636.1,1250.3,633.3z M1250.3,614.5c0-2.8,2.2-5,5-5l0,0c2.8,0,5,2.2,5,5l0,0c0,2.8-2.2,5-5,5l0,0
								C1252.5,619.5,1250.3,617.2,1250.3,614.5z"/>
						</g>
						<g>
							<path class="st1" d="M1255.3,694.9c-0.3,0-0.7,0-1-0.1c-0.3-0.1-0.6-0.2-0.9-0.3c-0.3-0.1-0.6-0.3-0.9-0.5
								c-0.3-0.2-0.5-0.4-0.8-0.6c-0.2-0.2-0.4-0.5-0.6-0.8c-0.2-0.3-0.3-0.6-0.5-0.9c-0.1-0.3-0.2-0.6-0.3-0.9
								c-0.1-0.3-0.1-0.7-0.1-1c0-0.3,0-0.7,0.1-1c0.1-0.3,0.2-0.6,0.3-0.9c0.1-0.3,0.3-0.6,0.5-0.9c0.2-0.3,0.4-0.5,0.6-0.8
								c0.2-0.2,0.5-0.4,0.8-0.6c0.3-0.2,0.6-0.3,0.9-0.5c0.3-0.1,0.6-0.2,0.9-0.3c0.7-0.1,1.3-0.1,2,0c0.3,0.1,0.6,0.2,0.9,0.3
								c0.3,0.1,0.6,0.3,0.9,0.5c0.3,0.2,0.5,0.4,0.8,0.6c0.2,0.2,0.4,0.5,0.6,0.8c0.2,0.3,0.3,0.6,0.5,0.9c0.1,0.3,0.2,0.6,0.3,0.9
								c0.1,0.3,0.1,0.6,0.1,1c0,0.3,0,0.7-0.1,1c-0.1,0.3-0.2,0.6-0.3,0.9c-0.1,0.3-0.3,0.6-0.5,0.9c-0.2,0.3-0.4,0.5-0.6,0.8
								c-0.2,0.2-0.5,0.4-0.8,0.6c-0.3,0.2-0.6,0.3-0.9,0.5c-0.3,0.1-0.6,0.2-0.9,0.3C1256,694.9,1255.6,694.9,1255.3,694.9z"/>
						</g>
						<g>
							<path class="st1" d="M1229.5,689.9c0-2.8,2.2-5,5-5l0,0c2.8,0,5,2.2,5,5l0,0c0,2.8-2.2,5-5,5l0,0
								C1231.8,694.9,1229.5,692.7,1229.5,689.9z M1208.7,689.9c0-2.8,2.2-5,5-5l0,0c2.8,0,5,2.2,5,5l0,0c0,2.8-2.2,5-5,5l0,0
								C1211,694.9,1208.7,692.7,1208.7,689.9z M1188,689.9c0-2.8,2.2-5,5-5l0,0c2.8,0,5,2.2,5,5l0,0c0,2.8-2.2,5-5,5l0,0
								C1190.2,694.9,1188,692.7,1188,689.9z M1167.2,689.9c0-2.8,2.2-5,5-5l0,0c2.8,0,5,2.2,5,5l0,0c0,2.8-2.2,5-5,5l0,0
								C1169.4,694.9,1167.2,692.7,1167.2,689.9z M1146.4,689.9c0-2.8,2.2-5,5-5l0,0c2.8,0,5,2.2,5,5l0,0c0,2.8-2.2,5-5,5l0,0
								C1148.6,694.9,1146.4,692.7,1146.4,689.9z M1125.6,689.9c0-2.8,2.2-5,5-5l0,0c2.8,0,5,2.2,5,5l0,0c0,2.8-2.2,5-5,5l0,0
								C1127.8,694.9,1125.6,692.7,1125.6,689.9z M1104.8,689.9c0-2.8,2.2-5,5-5l0,0c2.8,0,5,2.2,5,5l0,0c0,2.8-2.2,5-5,5l0,0
								C1107.1,694.9,1104.8,692.7,1104.8,689.9z M1084,689.9c0-2.8,2.2-5,5-5l0,0c2.8,0,5,2.2,5,5l0,0c0,2.8-2.2,5-5,5l0,0
								C1086.3,694.9,1084,692.7,1084,689.9z"/>
						</g>
						<g>
							<path class="st1" d="M1068.3,694.9c-0.3,0-0.6,0-1-0.1c-0.3-0.1-0.6-0.2-0.9-0.3c-0.3-0.1-0.6-0.3-0.9-0.5
								c-0.3-0.2-0.5-0.4-0.8-0.6c-0.2-0.2-0.4-0.5-0.6-0.8c-0.2-0.3-0.3-0.6-0.5-0.9c-0.1-0.3-0.2-0.6-0.3-0.9
								c-0.1-0.3-0.1-0.7-0.1-1c0-1.3,0.5-2.6,1.5-3.5c0.2-0.2,0.5-0.4,0.8-0.6c0.3-0.2,0.6-0.3,0.9-0.5c0.3-0.1,0.6-0.2,0.9-0.3
								c1.6-0.3,3.4,0.2,4.5,1.4c0.2,0.2,0.4,0.5,0.6,0.8c0.2,0.3,0.3,0.6,0.5,0.9c0.1,0.3,0.2,0.6,0.3,0.9c0.1,0.3,0.1,0.6,0.1,1
								c0,0.3,0,0.7-0.1,1c-0.1,0.3-0.2,0.6-0.3,0.9c-0.1,0.3-0.3,0.6-0.5,0.9c-0.2,0.3-0.4,0.5-0.6,0.8c-0.2,0.2-0.5,0.4-0.8,0.6
								c-0.3,0.2-0.6,0.3-0.9,0.5c-0.3,0.1-0.6,0.2-0.9,0.3C1068.9,694.9,1068.6,694.9,1068.3,694.9z"/>
						</g>
						<g>
							<path class="st1" d="M1063.3,765.3c0-2.8,2.2-5,5-5l0,0c2.8,0,5,2.2,5,5l0,0c0,2.8-2.2,5-5,5l0,0
								C1065.5,770.3,1063.3,768.1,1063.3,765.3z M1063.3,746.5c0-2.8,2.2-5,5-5l0,0c2.8,0,5,2.2,5,5l0,0c0,2.8-2.2,5-5,5l0,0
								C1065.5,751.5,1063.3,749.2,1063.3,746.5z M1063.3,727.6c0-2.8,2.2-5,5-5l0,0c2.8,0,5,2.2,5,5l0,0c0,2.8-2.2,5-5,5l0,0
								C1065.5,732.6,1063.3,730.4,1063.3,727.6z M1063.3,708.8c0-2.8,2.2-5,5-5l0,0c2.8,0,5,2.2,5,5l0,0c0,2.8-2.2,5-5,5l0,0
								C1065.5,713.8,1063.3,711.5,1063.3,708.8z"/>
						</g>
						<g>
							<path class="st1" d="M1068.3,789.2c-0.3,0-0.6,0-1-0.1c-0.3-0.1-0.6-0.2-0.9-0.3c-0.3-0.1-0.6-0.3-0.9-0.5
								c-0.3-0.2-0.5-0.4-0.8-0.6c-0.2-0.2-0.4-0.5-0.6-0.8c-0.2-0.3-0.3-0.6-0.5-0.9c-0.1-0.3-0.2-0.6-0.3-0.9
								c-0.1-0.3-0.1-0.7-0.1-1c0-0.3,0-0.7,0.1-1c0.1-0.3,0.2-0.6,0.3-0.9c0.1-0.3,0.3-0.6,0.5-0.9c0.2-0.3,0.4-0.5,0.6-0.8
								c0.2-0.2,0.5-0.4,0.8-0.6c0.3-0.2,0.6-0.3,0.9-0.5c0.3-0.1,0.6-0.2,0.9-0.3c1.6-0.3,3.3,0.2,4.5,1.4c0.2,0.2,0.4,0.5,0.6,0.8
								c0.2,0.3,0.3,0.6,0.5,0.9c0.1,0.3,0.2,0.6,0.3,0.9c0.1,0.3,0.1,0.7,0.1,1c0,0.3,0,0.6-0.1,1c-0.1,0.3-0.2,0.6-0.3,0.9
								c-0.1,0.3-0.3,0.6-0.5,0.9c-0.2,0.3-0.4,0.5-0.6,0.8C1070.9,788.7,1069.6,789.2,1068.3,789.2z"/>
						</g>
						<g>
							<path class="st1" d="M1324.4,784.2c0-2.8,2.2-5,5-5l0,0c2.8,0,5,2.2,5,5l0,0c0,2.8-2.2,5-5,5l0,0
								C1326.6,789.2,1324.4,787,1324.4,784.2z M1304.3,784.2c0-2.8,2.2-5,5-5l0,0c2.8,0,5,2.2,5,5l0,0c0,2.8-2.2,5-5,5l0,0
								C1306.5,789.2,1304.3,787,1304.3,784.2z M1284.2,784.2c0-2.8,2.2-5,5-5l0,0c2.8,0,5,2.2,5,5l0,0c0,2.8-2.2,5-5,5l0,0
								C1286.5,789.2,1284.2,787,1284.2,784.2z M1264.1,784.2c0-2.8,2.2-5,5-5l0,0c2.8,0,5,2.2,5,5l0,0c0,2.8-2.2,5-5,5l0,0
								C1266.4,789.2,1264.1,787,1264.1,784.2z M1244,784.2c0-2.8,2.2-5,5-5l0,0c2.8,0,5,2.2,5,5l0,0c0,2.8-2.2,5-5,5l0,0
								C1246.3,789.2,1244,787,1244,784.2z M1224,784.2c0-2.8,2.2-5,5-5l0,0c2.8,0,5,2.2,5,5l0,0c0,2.8-2.2,5-5,5l0,0
								C1226.2,789.2,1224,787,1224,784.2z M1203.9,784.2c0-2.8,2.2-5,5-5l0,0c2.8,0,5,2.2,5,5l0,0c0,2.8-2.2,5-5,5l0,0
								C1206.1,789.2,1203.9,787,1203.9,784.2z M1183.8,784.2c0-2.8,2.2-5,5-5l0,0c2.8,0,5,2.2,5,5l0,0c0,2.8-2.2,5-5,5l0,0
								C1186,789.2,1183.8,787,1183.8,784.2z M1163.7,784.2c0-2.8,2.2-5,5-5l0,0c2.8,0,5,2.2,5,5l0,0c0,2.8-2.2,5-5,5l0,0
								C1165.9,789.2,1163.7,787,1163.7,784.2z M1143.6,784.2c0-2.8,2.2-5,5-5l0,0c2.8,0,5,2.2,5,5l0,0c0,2.8-2.2,5-5,5l0,0
								C1145.9,789.2,1143.6,787,1143.6,784.2z M1123.5,784.2c0-2.8,2.2-5,5-5l0,0c2.8,0,5,2.2,5,5l0,0c0,2.8-2.2,5-5,5l0,0
								C1125.8,789.2,1123.5,787,1123.5,784.2z M1103.4,784.2c0-2.8,2.2-5,5-5l0,0c2.8,0,5,2.2,5,5l0,0c0,2.8-2.2,5-5,5l0,0
								C1105.7,789.2,1103.4,787,1103.4,784.2z M1083.4,784.2c0-2.8,2.2-5,5-5l0,0c2.8,0,5,2.2,5,5l0,0c0,2.8-2.2,5-5,5l0,0
								C1085.6,789.2,1083.4,787,1083.4,784.2z"/>
						</g>
						<g>
							<path class="st1" d="M1349.5,789.2c-1.3,0-2.6-0.5-3.5-1.5c-0.2-0.2-0.4-0.5-0.6-0.8c-0.2-0.3-0.3-0.6-0.5-0.9
								c-0.1-0.3-0.2-0.6-0.3-0.9c-0.1-0.3-0.1-0.7-0.1-1c0-1.3,0.5-2.6,1.5-3.5c1.2-1.2,2.9-1.7,4.5-1.4c0.3,0.1,0.6,0.2,0.9,0.3
								c0.3,0.1,0.6,0.3,0.9,0.5c0.3,0.2,0.5,0.4,0.8,0.6c0.9,0.9,1.5,2.2,1.5,3.5c0,0.3,0,0.6-0.1,1c-0.1,0.3-0.2,0.6-0.3,0.9
								c-0.1,0.3-0.3,0.6-0.5,0.9c-0.2,0.3-0.4,0.5-0.6,0.8c-0.2,0.2-0.5,0.4-0.8,0.6c-0.3,0.2-0.6,0.3-0.9,0.4
								c-0.3,0.1-0.6,0.2-0.9,0.3C1350.1,789.2,1349.8,789.2,1349.5,789.2z"/>
						</g>
						<g>
							<path class="st1" d="M1344.5,951.9c0-2.8,2.2-5,5-5l0,0c2.8,0,5,2.2,5,5l0,0c0,2.8-2.2,5-5,5l0,0
								C1346.7,956.9,1344.5,954.6,1344.5,951.9z M1344.5,930.9c0-2.8,2.2-5,5-5l0,0c2.8,0,5,2.2,5,5l0,0c0,2.8-2.2,5-5,5l0,0
								C1346.7,935.9,1344.5,933.7,1344.5,930.9z M1344.5,910c0-2.8,2.2-5,5-5l0,0c2.8,0,5,2.2,5,5l0,0c0,2.8-2.2,5-5,5l0,0
								C1346.7,915,1344.5,912.7,1344.5,910z M1344.5,889c0-2.8,2.2-5,5-5l0,0c2.8,0,5,2.2,5,5l0,0c0,2.8-2.2,5-5,5l0,0
								C1346.7,894,1344.5,891.8,1344.5,889z M1344.5,868c0-2.8,2.2-5,5-5l0,0c2.8,0,5,2.2,5,5l0,0c0,2.8-2.2,5-5,5l0,0
								C1346.7,873,1344.5,870.8,1344.5,868z M1344.5,847.1c0-2.8,2.2-5,5-5l0,0c2.8,0,5,2.2,5,5l0,0c0,2.8-2.2,5-5,5l0,0
								C1346.7,852.1,1344.5,849.8,1344.5,847.1z M1344.5,826.1c0-2.8,2.2-5,5-5l0,0c2.8,0,5,2.2,5,5l0,0c0,2.8-2.2,5-5,5l0,0
								C1346.7,831.1,1344.5,828.9,1344.5,826.1z M1344.5,805.2c0-2.8,2.2-5,5-5l0,0c2.8,0,5,2.2,5,5l0,0c0,2.8-2.2,5-5,5l0,0
								C1346.7,810.2,1344.5,807.9,1344.5,805.2z"/>
						</g>
						<g>
							<path class="st1" d="M1349.5,977.8c-0.3,0-0.7,0-1-0.1c-0.3-0.1-0.6-0.2-0.9-0.3c-0.3-0.1-0.6-0.3-0.9-0.5
								c-0.3-0.2-0.5-0.4-0.8-0.6c-0.2-0.2-0.4-0.5-0.6-0.8c-0.2-0.3-0.3-0.6-0.5-0.9c-0.1-0.3-0.2-0.6-0.3-0.9
								c-0.1-0.3-0.1-0.6-0.1-1c0-0.3,0-0.7,0.1-1c0.1-0.3,0.2-0.6,0.3-0.9c0.1-0.3,0.3-0.6,0.5-0.9c0.2-0.3,0.4-0.5,0.6-0.8
								c0.2-0.2,0.5-0.4,0.8-0.6c0.3-0.2,0.6-0.3,0.9-0.5c0.3-0.1,0.6-0.2,0.9-0.3c0.7-0.1,1.3-0.1,2,0c0.3,0.1,0.6,0.2,0.9,0.3
								c0.3,0.1,0.6,0.3,0.9,0.5c0.3,0.2,0.5,0.4,0.8,0.6c0.2,0.2,0.4,0.5,0.6,0.8c0.2,0.3,0.3,0.6,0.5,0.9c0.1,0.3,0.2,0.6,0.3,0.9
								c0.1,0.3,0.1,0.7,0.1,1c0,1.3-0.5,2.6-1.5,3.5C1352.1,977.3,1350.8,977.8,1349.5,977.8z"/>
						</g>
						<g>
							<path class="st1" d="M1419.7,972.8c0-2.8,2.2-5,5-5l0,0c2.8,0,5,2.2,5,5l0,0c0,2.8-2.2,5-5,5l0,0
								C1422,977.8,1419.7,975.6,1419.7,972.8z M1400.9,972.8c0-2.8,2.2-5,5-5l0,0c2.8,0,5,2.2,5,5l0,0c0,2.8-2.2,5-5,5l0,0
								C1403.1,977.8,1400.9,975.6,1400.9,972.8z M1382.1,972.8c0-2.8,2.2-5,5-5l0,0c2.8,0,5,2.2,5,5l0,0c0,2.8-2.2,5-5,5l0,0
								C1384.3,977.8,1382.1,975.6,1382.1,972.8z M1363.3,972.8c0-2.8,2.2-5,5-5l0,0c2.8,0,5,2.2,5,5l0,0c0,2.8-2.2,5-5,5l0,0
								C1365.5,977.8,1363.3,975.6,1363.3,972.8z"/>
						</g>
						<g>
							<path class="st1" d="M1443.5,977.8c-0.3,0-0.7,0-1-0.1c-0.3-0.1-0.6-0.2-0.9-0.3c-0.3-0.1-0.6-0.3-0.9-0.5
								c-0.3-0.2-0.5-0.4-0.8-0.6c-0.9-0.9-1.5-2.2-1.5-3.5c0-0.3,0-0.7,0.1-1c0.1-0.3,0.2-0.6,0.3-0.9c0.1-0.3,0.3-0.6,0.5-0.9
								c0.2-0.3,0.4-0.5,0.6-0.8c0.2-0.2,0.5-0.4,0.8-0.6c0.3-0.2,0.6-0.3,0.9-0.5c0.3-0.1,0.6-0.2,0.9-0.3c0.6-0.1,1.3-0.1,2,0
								c0.3,0.1,0.6,0.2,0.9,0.3c0.3,0.1,0.6,0.3,0.9,0.5c0.3,0.2,0.5,0.4,0.8,0.6s0.4,0.5,0.6,0.8c0.2,0.3,0.3,0.6,0.5,0.9
								c0.1,0.3,0.2,0.6,0.3,0.9c0.1,0.3,0.1,0.7,0.1,1c0,0.3,0,0.7-0.1,1c-0.1,0.3-0.2,0.6-0.3,0.9c-0.1,0.3-0.3,0.6-0.5,0.9
								c-0.2,0.3-0.4,0.5-0.6,0.8c-0.2,0.2-0.5,0.4-0.8,0.6c-0.3,0.2-0.6,0.3-0.9,0.5c-0.3,0.1-0.6,0.2-0.9,0.3
								C1444.2,977.8,1443.8,977.8,1443.5,977.8z"/>
						</g>
						<g>
							<path class="st1" d="M1438.5,953c0-2.8,2.2-5,5-5l0,0c2.8,0,5,2.2,5,5l0,0c0,2.8-2.2,5-5,5l0,0
								C1440.8,958,1438.5,955.8,1438.5,953z M1438.5,933.2c0-2.8,2.2-5,5-5l0,0c2.8,0,5,2.2,5,5l0,0c0,2.8-2.2,5-5,5l0,0
								C1440.8,938.2,1438.5,936,1438.5,933.2z M1438.5,913.4c0-2.8,2.2-5,5-5l0,0c2.8,0,5,2.2,5,5l0,0c0,2.8-2.2,5-5,5l0,0
								C1440.8,918.4,1438.5,916.1,1438.5,913.4z M1438.5,893.6c0-2.8,2.2-5,5-5l0,0c2.8,0,5,2.2,5,5l0,0c0,2.8-2.2,5-5,5l0,0
								C1440.8,898.6,1438.5,896.3,1438.5,893.6z M1438.5,873.7c0-2.8,2.2-5,5-5l0,0c2.8,0,5,2.2,5,5l0,0c0,2.8-2.2,5-5,5l0,0
								C1440.8,878.7,1438.5,876.5,1438.5,873.7z M1438.5,853.9c0-2.8,2.2-5,5-5l0,0c2.8,0,5,2.2,5,5l0,0c0,2.8-2.2,5-5,5l0,0
								C1440.8,858.9,1438.5,856.7,1438.5,853.9z M1438.5,834.1c0-2.8,2.2-5,5-5l0,0c2.8,0,5,2.2,5,5l0,0c0,2.8-2.2,5-5,5l0,0
								C1440.8,839.1,1438.5,836.9,1438.5,834.1z M1438.5,814.3c0-2.8,2.2-5,5-5l0,0c2.8,0,5,2.2,5,5l0,0c0,2.8-2.2,5-5,5l0,0
								C1440.8,819.3,1438.5,817,1438.5,814.3z M1438.5,794.5c0-2.8,2.2-5,5-5l0,0c2.8,0,5,2.2,5,5l0,0c0,2.8-2.2,5-5,5l0,0
								C1440.8,799.5,1438.5,797.2,1438.5,794.5z M1438.5,774.6c0-2.8,2.2-5,5-5l0,0c2.8,0,5,2.2,5,5l0,0c0,2.8-2.2,5-5,5l0,0
								C1440.8,779.6,1438.5,777.4,1438.5,774.6z M1438.5,754.8c0-2.8,2.2-5,5-5l0,0c2.8,0,5,2.2,5,5l0,0c0,2.8-2.2,5-5,5l0,0
								C1440.8,759.8,1438.5,757.6,1438.5,754.8z M1438.5,735c0-2.8,2.2-5,5-5l0,0c2.8,0,5,2.2,5,5l0,0c0,2.8-2.2,5-5,5l0,0
								C1440.8,740,1438.5,737.8,1438.5,735z M1438.5,715.2c0-2.8,2.2-5,5-5l0,0c2.8,0,5,2.2,5,5l0,0c0,2.8-2.2,5-5,5l0,0
								C1440.8,720.2,1438.5,718,1438.5,715.2z M1438.5,695.4c0-2.8,2.2-5,5-5l0,0c2.8,0,5,2.2,5,5l0,0c0,2.8-2.2,5-5,5l0,0
								C1440.8,700.4,1438.5,698.1,1438.5,695.4z M1438.5,675.6c0-2.8,2.2-5,5-5l0,0c2.8,0,5,2.2,5,5l0,0c0,2.8-2.2,5-5,5l0,0
								C1440.8,680.6,1438.5,678.3,1438.5,675.6z M1438.5,655.8c0-2.8,2.2-5,5-5l0,0c2.8,0,5,2.2,5,5l0,0c0,2.8-2.2,5-5,5l0,0
								C1440.8,660.8,1438.5,658.5,1438.5,655.8z M1438.5,635.9c0-2.8,2.2-5,5-5l0,0c2.8,0,5,2.2,5,5l0,0c0,2.8-2.2,5-5,5l0,0
								C1440.8,640.9,1438.5,638.7,1438.5,635.9z M1438.5,616.1c0-2.8,2.2-5,5-5l0,0c2.8,0,5,2.2,5,5l0,0c0,2.8-2.2,5-5,5l0,0
								C1440.8,621.1,1438.5,618.9,1438.5,616.1z"/>
						</g>
						<g>
							<path class="st1" d="M1443.5,601.3c-0.3,0-0.7,0-1-0.1c-0.3-0.1-0.6-0.2-0.9-0.3c-0.3-0.1-0.6-0.3-0.9-0.5
								c-0.3-0.2-0.5-0.4-0.8-0.6c-0.2-0.2-0.4-0.5-0.6-0.8c-0.2-0.3-0.3-0.6-0.5-0.9c-0.1-0.3-0.2-0.6-0.3-0.9
								c-0.1-0.3-0.1-0.6-0.1-1s0-0.7,0.1-1c0.1-0.3,0.2-0.6,0.3-0.9c0.1-0.3,0.3-0.6,0.5-0.9c0.2-0.3,0.4-0.5,0.6-0.8
								c0.2-0.2,0.5-0.4,0.8-0.6c0.3-0.2,0.6-0.3,0.9-0.5c0.3-0.1,0.6-0.2,0.9-0.3c0.6-0.1,1.3-0.1,2,0c0.3,0.1,0.6,0.2,0.9,0.3
								c0.3,0.1,0.6,0.3,0.9,0.5c0.3,0.2,0.5,0.4,0.8,0.6c0.2,0.2,0.4,0.5,0.6,0.8c0.2,0.3,0.3,0.6,0.5,0.9c0.1,0.3,0.2,0.6,0.3,0.9
								c0.1,0.3,0.1,0.7,0.1,1s0,0.6-0.1,1c-0.1,0.3-0.2,0.6-0.3,0.9c-0.1,0.3-0.3,0.6-0.5,0.9c-0.2,0.3-0.4,0.5-0.6,0.8
								c-0.2,0.2-0.5,0.4-0.8,0.6c-0.3,0.2-0.6,0.3-0.9,0.5c-0.3,0.1-0.6,0.2-0.9,0.3C1444.2,601.3,1443.8,601.3,1443.5,601.3z"/>
						</g>
						<g>
							<path class="st1" d="M1419.7,596.3c0-2.8,2.2-5,5-5l0,0c2.8,0,5,2.2,5,5l0,0c0,2.8-2.2,5-5,5l0,0
								C1422,601.3,1419.7,599,1419.7,596.3z M1400.9,596.3c0-2.8,2.2-5,5-5l0,0c2.8,0,5,2.2,5,5l0,0c0,2.8-2.2,5-5,5l0,0
								C1403.1,601.3,1400.9,599,1400.9,596.3z M1382.1,596.3c0-2.8,2.2-5,5-5l0,0c2.8,0,5,2.2,5,5l0,0c0,2.8-2.2,5-5,5l0,0
								C1384.3,601.3,1382.1,599,1382.1,596.3z M1363.3,596.3c0-2.8,2.2-5,5-5l0,0c2.8,0,5,2.2,5,5l0,0c0,2.8-2.2,5-5,5l0,0
								C1365.5,601.3,1363.3,599,1363.3,596.3z"/>
						</g>
						<g>
							<path class="st1" d="M1349.5,601.3c-1.3,0-2.6-0.5-3.5-1.5c-0.2-0.2-0.4-0.5-0.6-0.8c-0.2-0.3-0.3-0.6-0.5-0.9
								c-0.1-0.3-0.2-0.6-0.3-0.9c-0.1-0.3-0.1-0.6-0.1-1s0-0.7,0.1-1c0.1-0.3,0.2-0.6,0.3-0.9c0.1-0.3,0.3-0.6,0.5-0.9
								c0.2-0.3,0.4-0.5,0.6-0.8c1.2-1.2,2.9-1.7,4.5-1.4c0.3,0.1,0.6,0.2,0.9,0.3c0.3,0.1,0.6,0.3,0.9,0.5c0.3,0.2,0.5,0.4,0.8,0.6
								c0.9,0.9,1.5,2.2,1.5,3.5c0,0.3,0,0.6-0.1,1c-0.1,0.3-0.2,0.6-0.3,0.9c-0.1,0.3-0.3,0.6-0.5,0.9c-0.2,0.3-0.4,0.5-0.6,0.8
								c-0.2,0.2-0.5,0.4-0.8,0.6c-0.3,0.2-0.6,0.3-0.9,0.5c-0.3,0.1-0.6,0.2-0.9,0.3C1350.1,601.3,1349.8,601.3,1349.5,601.3z"/>
						</g>
						<g>
							<path class="st1" d="M1344.5,575.4c0-2.8,2.2-5,5-5l0,0c2.8,0,5,2.2,5,5l0,0c0,2.8-2.2,5-5,5l0,0
								C1346.7,580.4,1344.5,578.1,1344.5,575.4z M1344.5,554.5c0-2.8,2.2-5,5-5l0,0c2.8,0,5,2.2,5,5l0,0c0,2.8-2.2,5-5,5l0,0
								C1346.7,559.5,1344.5,557.2,1344.5,554.5z M1344.5,533.5c0-2.8,2.2-5,5-5l0,0c2.8,0,5,2.2,5,5l0,0c0,2.8-2.2,5-5,5l0,0
								C1346.7,538.5,1344.5,536.3,1344.5,533.5z M1344.5,512.6c0-2.8,2.2-5,5-5l0,0c2.8,0,5,2.2,5,5l0,0c0,2.8-2.2,5-5,5l0,0
								C1346.7,517.6,1344.5,515.4,1344.5,512.6z M1344.5,491.7c0-2.8,2.2-5,5-5l0,0c2.8,0,5,2.2,5,5l0,0c0,2.8-2.2,5-5,5l0,0
								C1346.7,496.7,1344.5,494.5,1344.5,491.7z M1344.5,470.8c0-2.8,2.2-5,5-5l0,0c2.8,0,5,2.2,5,5l0,0c0,2.8-2.2,5-5,5l0,0
								C1346.7,475.8,1344.5,473.6,1344.5,470.8z M1344.5,449.9c0-2.8,2.2-5,5-5l0,0c2.8,0,5,2.2,5,5l0,0c0,2.8-2.2,5-5,5l0,0
								C1346.7,454.9,1344.5,452.7,1344.5,449.9z M1344.5,429c0-2.8,2.2-5,5-5l0,0c2.8,0,5,2.2,5,5l0,0c0,2.8-2.2,5-5,5l0,0
								C1346.7,434,1344.5,431.8,1344.5,429z"/>
						</g>
						<g>
							<path class="st1" d="M1349.5,413.1c-1.3,0-2.6-0.5-3.5-1.5c-0.2-0.2-0.4-0.5-0.6-0.8c-0.2-0.3-0.3-0.6-0.5-0.9
								c-0.1-0.3-0.2-0.6-0.3-0.9c-0.1-0.3-0.1-0.7-0.1-1c0-0.3,0-0.7,0.1-1c0.1-0.3,0.2-0.6,0.3-0.9c0.1-0.3,0.3-0.6,0.5-0.9
								c0.2-0.3,0.4-0.5,0.6-0.8c1.2-1.2,2.9-1.7,4.5-1.4c0.3,0.1,0.6,0.2,0.9,0.3c0.3,0.1,0.6,0.3,0.9,0.5c0.3,0.2,0.5,0.4,0.8,0.6
								c0.2,0.2,0.4,0.5,0.6,0.8c0.2,0.3,0.3,0.6,0.5,0.9c0.1,0.3,0.2,0.6,0.3,0.9c0.1,0.3,0.1,0.7,0.1,1c0,0.3,0,0.6-0.1,1
								c-0.1,0.3-0.2,0.6-0.3,0.9c-0.1,0.3-0.3,0.6-0.5,0.9c-0.2,0.3-0.4,0.5-0.6,0.8c-0.2,0.2-0.5,0.4-0.8,0.6
								c-0.3,0.2-0.6,0.3-0.9,0.5c-0.3,0.1-0.6,0.2-0.9,0.3C1350.1,413,1349.8,413.1,1349.5,413.1z"/>
						</g>
						<g>
							<path class="st1" d="M1512.3,408.1c0-2.8,2.2-5,5-5l0,0c2.8,0,5,2.2,5,5l0,0c0,2.8-2.2,5-5,5l0,0
								C1514.6,413.1,1512.3,410.8,1512.3,408.1z M1491.4,408.1c0-2.8,2.2-5,5-5l0,0c2.8,0,5,2.2,5,5l0,0c0,2.8-2.2,5-5,5l0,0
								C1493.6,413.1,1491.4,410.8,1491.4,408.1z M1470.4,408.1c0-2.8,2.2-5,5-5l0,0c2.8,0,5,2.2,5,5l0,0c0,2.8-2.2,5-5,5l0,0
								C1472.6,413.1,1470.4,410.8,1470.4,408.1z M1449.4,408.1c0-2.8,2.2-5,5-5l0,0c2.8,0,5,2.2,5,5l0,0c0,2.8-2.2,5-5,5l0,0
								C1451.6,413.1,1449.4,410.8,1449.4,408.1z M1428.4,408.1c0-2.8,2.2-5,5-5l0,0c2.8,0,5,2.2,5,5l0,0c0,2.8-2.2,5-5,5l0,0
								C1430.6,413.1,1428.4,410.8,1428.4,408.1z M1407.4,408.1c0-2.8,2.2-5,5-5l0,0c2.8,0,5,2.2,5,5l0,0c0,2.8-2.2,5-5,5l0,0
								C1409.7,413.1,1407.4,410.8,1407.4,408.1z M1386.5,408.1c0-2.8,2.2-5,5-5l0,0c2.8,0,5,2.2,5,5l0,0c0,2.8-2.2,5-5,5l0,0
								C1388.7,413.1,1386.5,410.8,1386.5,408.1z M1365.5,408.1c0-2.8,2.2-5,5-5l0,0c2.8,0,5,2.2,5,5l0,0c0,2.8-2.2,5-5,5l0,0
								C1367.7,413.1,1365.5,410.8,1365.5,408.1z"/>
						</g>
						<g>
							<path class="st1" d="M1538.3,413.1c-0.3,0-0.6,0-1-0.1c-0.3-0.1-0.6-0.2-0.9-0.3c-0.3-0.1-0.6-0.3-0.9-0.5
								c-0.3-0.2-0.5-0.4-0.8-0.6c-0.2-0.2-0.4-0.5-0.6-0.8c-0.2-0.3-0.3-0.6-0.5-0.9c-0.1-0.3-0.2-0.6-0.3-0.9
								c-0.1-0.3-0.1-0.7-0.1-1c0-0.3,0-0.7,0.1-1c0.1-0.3,0.2-0.6,0.3-0.9c0.1-0.3,0.3-0.6,0.5-0.9s0.4-0.5,0.6-0.8
								c0.2-0.2,0.5-0.4,0.8-0.6c0.3-0.2,0.6-0.3,0.9-0.5c0.3-0.1,0.6-0.2,0.9-0.3c0.6-0.1,1.3-0.1,2,0c0.3,0.1,0.6,0.2,0.9,0.3
								c0.3,0.1,0.6,0.3,0.9,0.5c0.3,0.2,0.5,0.4,0.8,0.6c0.2,0.2,0.4,0.5,0.6,0.8c0.2,0.3,0.3,0.6,0.5,0.9c0.1,0.3,0.2,0.6,0.3,0.9
								c0.1,0.3,0.1,0.7,0.1,1c0,0.3,0,0.6-0.1,1c-0.1,0.3-0.2,0.6-0.3,0.9c-0.1,0.3-0.3,0.6-0.5,0.9c-0.2,0.3-0.4,0.5-0.6,0.8
								c-0.2,0.2-0.5,0.4-0.8,0.6c-0.3,0.2-0.6,0.3-0.9,0.5c-0.3,0.1-0.6,0.2-0.9,0.3C1539,413,1538.6,413.1,1538.3,413.1z"/>
						</g>
						<g>
							<path class="st1" d="M1533.3,387.8c0-2.8,2.2-5,5-5l0,0c2.8,0,5,2.2,5,5l0,0c0,2.8-2.2,5-5,5l0,0
								C1535.6,392.8,1533.3,390.6,1533.3,387.8z M1533.3,367.6c0-2.8,2.2-5,5-5l0,0c2.8,0,5,2.2,5,5l0,0c0,2.8-2.2,5-5,5l0,0
								C1535.6,372.6,1533.3,370.3,1533.3,367.6z M1533.3,347.3c0-2.8,2.2-5,5-5l0,0c2.8,0,5,2.2,5,5l0,0c0,2.8-2.2,5-5,5l0,0
								C1535.6,352.3,1533.3,350.1,1533.3,347.3z M1533.3,327.1c0-2.8,2.2-5,5-5l0,0c2.8,0,5,2.2,5,5l0,0c0,2.8-2.2,5-5,5l0,0
								C1535.6,332.1,1533.3,329.8,1533.3,327.1z M1533.3,306.8c0-2.8,2.2-5,5-5l0,0c2.8,0,5,2.2,5,5l0,0c0,2.8-2.2,5-5,5l0,0
								C1535.6,311.8,1533.3,309.6,1533.3,306.8z M1533.3,286.6c0-2.8,2.2-5,5-5l0,0c2.8,0,5,2.2,5,5l0,0c0,2.8-2.2,5-5,5l0,0
								C1535.6,291.6,1533.3,289.3,1533.3,286.6z M1533.3,266.3c0-2.8,2.2-5,5-5l0,0c2.8,0,5,2.2,5,5l0,0c0,2.8-2.2,5-5,5l0,0
								C1535.6,271.3,1533.3,269.1,1533.3,266.3z M1533.3,246.1c0-2.8,2.2-5,5-5l0,0c2.8,0,5,2.2,5,5l0,0c0,2.8-2.2,5-5,5l0,0
								C1535.6,251.1,1533.3,248.8,1533.3,246.1z M1533.3,225.8c0-2.8,2.2-5,5-5l0,0c2.8,0,5,2.2,5,5l0,0c0,2.8-2.2,5-5,5l0,0
								C1535.6,230.8,1533.3,228.6,1533.3,225.8z M1533.3,205.6c0-2.8,2.2-5,5-5l0,0c2.8,0,5,2.2,5,5l0,0c0,2.8-2.2,5-5,5l0,0
								C1535.6,210.6,1533.3,208.3,1533.3,205.6z M1533.3,185.3c0-2.8,2.2-5,5-5l0,0c2.8,0,5,2.2,5,5l0,0c0,2.8-2.2,5-5,5l0,0
								C1535.6,190.3,1533.3,188.1,1533.3,185.3z M1533.3,165.1c0-2.8,2.2-5,5-5l0,0c2.8,0,5,2.2,5,5l0,0c0,2.8-2.2,5-5,5l0,0
								C1535.6,170,1533.3,167.8,1533.3,165.1z M1533.3,144.8c0-2.8,2.2-5,5-5l0,0c2.8,0,5,2.2,5,5l0,0c0,2.8-2.2,5-5,5l0,0
								C1535.6,149.8,1533.3,147.6,1533.3,144.8z"/>
						</g>
						<g>
							<path class="st1" d="M1538.3,129.5c-0.3,0-0.6,0-1-0.1c-0.3-0.1-0.6-0.2-0.9-0.3c-0.3-0.1-0.6-0.3-0.9-0.5
								c-0.3-0.2-0.5-0.4-0.8-0.6c-0.2-0.2-0.4-0.5-0.6-0.8c-0.2-0.3-0.3-0.6-0.5-0.9c-0.1-0.3-0.2-0.6-0.3-0.9
								c-0.1-0.3-0.1-0.6-0.1-1c0-0.3,0-0.6,0.1-1c0.1-0.3,0.2-0.6,0.3-0.9c0.1-0.3,0.3-0.6,0.5-0.9c0.2-0.3,0.4-0.5,0.6-0.8
								c0.2-0.2,0.5-0.4,0.8-0.6c0.3-0.2,0.6-0.3,0.9-0.4c0.3-0.1,0.6-0.2,0.9-0.3c0.6-0.1,1.3-0.1,2,0c0.3,0.1,0.6,0.2,0.9,0.3
								c0.3,0.1,0.6,0.3,0.9,0.4c0.3,0.2,0.5,0.4,0.8,0.6c0.2,0.2,0.4,0.5,0.6,0.8c0.2,0.3,0.3,0.6,0.5,0.9c0.1,0.3,0.2,0.6,0.3,0.9
								c0.1,0.3,0.1,0.7,0.1,1c0,1.3-0.5,2.6-1.5,3.5c-0.2,0.2-0.5,0.4-0.8,0.6c-0.3,0.2-0.6,0.3-0.9,0.5c-0.3,0.1-0.6,0.2-0.9,0.3
								C1539,129.5,1538.6,129.5,1538.3,129.5z"/>
						</g>
						<g>
							<path class="st1" d="M1514.4,124.5c0-2.8,2.2-5,5-5l0,0c2.8,0,5,2.2,5,5l0,0c0,2.8-2.2,5-5,5l0,0
								C1516.6,129.5,1514.4,127.3,1514.4,124.5z M1495.4,124.5c0-2.8,2.2-5,5-5l0,0c2.8,0,5,2.2,5,5l0,0c0,2.8-2.2,5-5,5l0,0
								C1497.6,129.5,1495.4,127.3,1495.4,124.5z M1476.5,124.5c0-2.8,2.2-5,5-5l0,0c2.8,0,5,2.2,5,5l0,0c0,2.8-2.2,5-5,5l0,0
								C1478.7,129.5,1476.5,127.3,1476.5,124.5z M1457.5,124.5c0-2.8,2.2-5,5-5l0,0c2.8,0,5,2.2,5,5l0,0c0,2.8-2.2,5-5,5l0,0
								C1459.7,129.5,1457.5,127.3,1457.5,124.5z"/>
						</g>
					</g>
				</g>
			</g>
			<path class="st1" d="M313.8,1850c-0.3,0-0.6,0-1-0.1c-0.3-0.1-0.6-0.2-0.9-0.3c-0.3-0.1-0.6-0.3-0.9-0.5
				c-0.3-0.2-0.5-0.4-0.8-0.6c-0.2-0.2-0.4-0.5-0.6-0.8c-0.2-0.3-0.3-0.6-0.5-0.9c-0.1-0.3-0.2-0.6-0.3-0.9c-0.1-0.3-0.1-0.6-0.1-1
				s0-0.7,0.1-1c0.1-0.3,0.2-0.6,0.3-0.9c0.1-0.3,0.3-0.6,0.5-0.9c0.2-0.3,0.4-0.5,0.6-0.8c0.2-0.2,0.5-0.5,0.8-0.6
				c0.3-0.2,0.6-0.3,0.9-0.5c0.3-0.1,0.6-0.2,0.9-0.3c0.6-0.1,1.3-0.1,1.9,0c0.3,0.1,0.6,0.2,0.9,0.3c0.3,0.1,0.6,0.3,0.9,0.5
				s0.5,0.4,0.8,0.6c0.2,0.2,0.4,0.5,0.6,0.8c0.2,0.3,0.3,0.6,0.5,0.9c0.1,0.3,0.2,0.6,0.3,0.9c0.1,0.3,0.1,0.7,0.1,1s0,0.6-0.1,1
				c-0.1,0.3-0.2,0.6-0.3,0.9c-0.1,0.3-0.3,0.6-0.5,0.9c-0.2,0.3-0.4,0.5-0.6,0.8c-0.2,0.2-0.5,0.5-0.8,0.6
				c-0.3,0.2-0.6,0.3-0.9,0.5c-0.3,0.1-0.6,0.2-0.9,0.3C314.4,1850,314.1,1850,313.8,1850z"/>
			<path class="st1" d="M308.8,1825.9c0-2.8,2.2-5,5-5l0,0c2.8,0,5,2.2,5,5l0,0c0,2.8-2.2,5-5,5l0,0
				C311,1830.9,308.8,1828.6,308.8,1825.9z"/>
			<path class="st1" d="M308.8,1806.8c0-2.8,2.2-5,5-5l0,0c2.8,0,5,2.2,5,5l0,0c0,2.8-2.2,5-5,5l0,0
				C311,1811.8,308.8,1809.5,308.8,1806.8z"/>
			<path class="st1" d="M308.8,1787.6c0-2.8,2.2-5,5-5l0,0c2.8,0,5,2.2,5,5l0,0c0,2.8-2.2,5-5,5l0,0
				C311,1792.6,308.8,1790.4,308.8,1787.6z"/>
			<path class="st1" d="M308.8,1768.5c0-2.8,2.2-5,5-5l0,0c2.8,0,5,2.2,5,5l0,0c0,2.8-2.2,5-5,5l0,0
				C311,1773.5,308.8,1771.3,308.8,1768.5z"/>
			<path class="st1" d="M308.8,1749.4c0-2.8,2.2-5,5-5l0,0c2.8,0,5,2.2,5,5l0,0c0,2.8-2.2,5-5,5l0,0
				C311,1754.4,308.8,1752.2,308.8,1749.4z"/>
			<path class="st1" d="M308.8,1730.3c0-2.8,2.2-5,5-5l0,0c2.8,0,5,2.2,5,5l0,0c0,2.8-2.2,5-5,5l0,0
				C311,1735.3,308.8,1733,308.8,1730.3z"/>
			<path class="st1" d="M308.8,1711.1c0-2.8,2.2-5,5-5l0,0c2.8,0,5,2.2,5,5l0,0c0,2.8-2.2,5-5,5l0,0
				C311,1716.1,308.8,1713.9,308.8,1711.1z"/>
			<path class="st1" d="M308.8,1692c0-2.8,2.2-5,5-5l0,0c2.8,0,5,2.2,5,5l0,0c0,2.8-2.2,5-5,5l0,0C311,1697,308.8,1694.8,308.8,1692
				z"/>
			<path class="st1" d="M308.8,1672.9c0-2.8,2.2-5,5-5l0,0c2.8,0,5,2.2,5,5l0,0c0,2.8-2.2,5-5,5l0,0
				C311,1677.9,308.8,1675.7,308.8,1672.9z"/>
			<path class="st1" d="M308.8,1653.8c0-2.8,2.2-5,5-5l0,0c2.8,0,5,2.2,5,5l0,0c0,2.8-2.2,5-5,5l0,0
				C311,1658.8,308.8,1656.5,308.8,1653.8z"/>
			<path class="st1" d="M308.8,1634.6c0-2.8,2.2-5,5-5l0,0c2.8,0,5,2.2,5,5l0,0c0,2.8-2.2,5-5,5l0,0
				C311,1639.6,308.8,1637.4,308.8,1634.6z"/>
			<path class="st1" d="M308.8,1615.5c0-2.8,2.2-5,5-5l0,0c2.8,0,5,2.2,5,5l0,0c0,2.8-2.2,5-5,5l0,0
				C311,1620.5,308.8,1618.3,308.8,1615.5z"/>
			<path class="st1" d="M308.8,1596.4c0-2.8,2.2-5,5-5l0,0c2.8,0,5,2.2,5,5l0,0c0,2.8-2.2,5-5,5l0,0
				C311,1601.4,308.8,1599.2,308.8,1596.4z"/>
			<path class="st1" d="M308.8,1577.3c0-2.8,2.2-5,5-5l0,0c2.8,0,5,2.2,5,5l0,0c0,2.8-2.2,5-5,5l0,0
				C311,1582.3,308.8,1580.1,308.8,1577.3z"/>
			<path class="st1" d="M308.8,1558.2c0-2.8,2.2-5,5-5l0,0c2.8,0,5,2.2,5,5l0,0c0,2.8-2.2,5-5,5l0,0
				C311,1563.2,308.8,1560.9,308.8,1558.2z"/>
		</g>
		<path class="st1" d="M1443.5,129.5c-0.3,0-0.7,0-1-0.1c-0.3-0.1-0.6-0.2-0.9-0.3c-0.3-0.1-0.6-0.3-0.9-0.5
			c-0.3-0.2-0.5-0.4-0.8-0.6c-0.2-0.2-0.4-0.5-0.6-0.8c-0.2-0.3-0.3-0.6-0.5-0.9c-0.1-0.3-0.2-0.6-0.3-0.9c-0.1-0.3-0.1-0.6-0.1-1
			c0-1.3,0.5-2.6,1.5-3.5c0.2-0.2,0.5-0.4,0.8-0.6c0.3-0.2,0.6-0.3,0.9-0.4c0.3-0.1,0.6-0.2,0.9-0.3c0.6-0.1,1.3-0.1,2,0
			c0.3,0.1,0.6,0.2,0.9,0.3c0.3,0.1,0.6,0.3,0.9,0.4c0.3,0.2,0.5,0.4,0.8,0.6c0.9,0.9,1.5,2.2,1.5,3.5c0,0.3,0,0.7-0.1,1
			c-0.1,0.3-0.2,0.6-0.3,0.9c-0.1,0.3-0.3,0.6-0.5,0.9c-0.2,0.3-0.4,0.5-0.6,0.8c-0.2,0.2-0.5,0.4-0.8,0.6c-0.3,0.2-0.6,0.3-0.9,0.5
			c-0.3,0.1-0.6,0.2-0.9,0.3C1444.2,129.5,1443.9,129.5,1443.5,129.5z"/>
		<path class="st1" d="M1438.5,104.6c0-2.8,2.2-5,5-5l0,0c2.8,0,5,2.2,5,5l0,0c0,2.8-2.2,5-5,5l0,0
			C1440.8,109.6,1438.5,107.4,1438.5,104.6z"/>
		<path class="st1" d="M1438.5,84.7c0-2.8,2.2-5,5-5l0,0c2.8,0,5,2.2,5,5l0,0c0,2.8-2.2,5-5,5l0,0
			C1440.8,89.7,1438.5,87.5,1438.5,84.7z"/>
		<path class="st1" d="M1438.5,64.8c0-2.8,2.2-5,5-5l0,0c2.8,0,5,2.2,5,5l0,0c0,2.8-2.2,5-5,5l0,0
			C1440.8,69.8,1438.5,67.5,1438.5,64.8z"/>
		<path class="st1" d="M1438.5,44.8c0-2.8,2.2-5,5-5l0,0c2.8,0,5,2.2,5,5l0,0c0,2.8-2.2,5-5,5l0,0
			C1440.8,49.8,1438.5,47.6,1438.5,44.8z"/>
		<path class="st1" d="M1438.5,24.9c0-2.8,2.2-5,5-5l0,0c2.8,0,5,2.2,5,5l0,0c0,2.8-2.2,5-5,5l0,0
			C1440.8,29.9,1438.5,27.7,1438.5,24.9z"/>
		<path class="st1" d="M1443.5,10c-0.3,0-0.7,0-1-0.1c-0.3-0.1-0.6-0.2-0.9-0.3c-0.3-0.1-0.6-0.3-0.9-0.5c-0.3-0.2-0.5-0.4-0.8-0.6
			c-0.9-0.9-1.5-2.2-1.5-3.5c0-0.3,0-0.7,0.1-1c0.1-0.3,0.2-0.6,0.3-0.9c0.1-0.3,0.3-0.6,0.5-0.9c0.2-0.3,0.4-0.5,0.6-0.8
			c0.2-0.2,0.5-0.4,0.8-0.6c0.3-0.2,0.6-0.3,0.9-0.5c0.3-0.1,0.6-0.2,0.9-0.3c0.6-0.1,1.3-0.1,2,0c0.3,0.1,0.6,0.2,0.9,0.3
			c0.3,0.1,0.6,0.3,0.9,0.5c0.3,0.2,0.5,0.4,0.8,0.6c0.2,0.2,0.4,0.5,0.6,0.8c0.2,0.3,0.3,0.6,0.5,0.9c0.1,0.3,0.2,0.6,0.3,0.9
			c0.1,0.3,0.1,0.6,0.1,1c0,1.3-0.5,2.6-1.5,3.5c-0.2,0.2-0.5,0.4-0.8,0.6c-0.3,0.2-0.6,0.3-0.9,0.5c-0.3,0.1-0.6,0.2-0.9,0.3
			C1444.2,10,1443.9,10,1443.5,10z"/>
	</g>
</g>
</svg>
