<?xml version="1.0" encoding="utf-8"?>
<!-- Generator: Adobe Illustrator 23.0.1, SVG Export Plug-In . SVG Version: 6.00 Build 0)  -->
<svg version="1.1" xmlns="http://www.w3.org/2000/svg" xmlns:xlink="http://www.w3.org/1999/xlink" x="0px" y="0px" width="1850px"
	 height="1850px" viewBox="0 0 1850 1850" style="enable-background:new 0 0 1850 1850;" xml:space="preserve">
<style type="text/css">
	.st0{fill:#A49D96;}
	.st1{opacity:0.3;fill:none;stroke:#771D1D;stroke-width:9.2248;stroke-miterlimit:10;}
</style>
<g id="maze">
	<g>
		<g>
			<polygon class="st0" points="627.5,282.3 660.6,282.3 660.6,188.2 848.7,188.2 848.7,60.9 721.6,60.9 721.6,94 815.6,94 
				815.6,155.1 660.6,155.1 660.6,0 627.5,0 627.5,155.1 566.6,155.1 566.6,60.9 533.5,60.9 533.5,188.2 627.5,188.2 			"/>
			<polygon class="st0" points="1507.1,376.4 1507.1,155.1 1413.1,155.1 1413.1,0 1380,0 1380,188.2 1474,188.2 1474,343.3 
				1380,343.3 1380,376.4 			"/>
			<polygon class="st0" points="1568.1,658.7 1601.2,658.7 1601.2,564.6 1662.1,564.6 1662.1,658.7 1789.3,658.7 1789.3,531.5 
				1756.2,531.5 1756.2,625.6 1695.2,625.6 1695.2,531.5 1601.2,531.5 1601.2,188.2 1756.2,188.2 1756.2,376.4 1850,376.4 
				1850,343.3 1789.3,343.3 1789.3,94 1850,94 1850,60.9 1756.2,60.9 1756.2,155.1 1568.1,155.1 			"/>
			<rect x="533.5" y="1753.8" class="st0" width="33.1" height="96.2"/>
			<polygon class="st0" points="721.6,1753.8 627.5,1753.8 627.5,1786.9 721.6,1786.9 721.6,1850 754.7,1850 754.7,1599.8 
				815.6,1599.8 815.6,1692.8 848.7,1692.8 848.7,1566.7 721.6,1566.7 			"/>
			<rect x="815.6" y="1753.8" class="st0" width="33.1" height="96.2"/>
			<polygon class="st0" points="378.4,60.9 284.4,60.9 284.4,0 251.3,0 251.3,94 378.4,94 			"/>
			<polygon class="st0" points="0,1693.7 63.2,1693.7 63.2,1786.9 190.3,1786.9 190.3,1660.8 157.2,1660.8 157.2,1753.8 
				96.3,1753.8 96.3,1660.6 0,1660.6 			"/>
			<polygon class="st0" points="1850,1599.8 1505.3,1599.8 1505.3,1753.8 1505.3,1788.1 1505.3,1850 1472.3,1850 1472.3,1753.8 
				1472.3,1753.8 1472.3,1693.9 1411.3,1693.9 1411.3,1788.1 1284.2,1788.1 1284.2,1505.7 1096,1505.7 1096,1411.6 907.9,1411.6 
				907.9,1378.5 1129.1,1378.5 1129.1,1472.6 1317.2,1472.6 1317.2,1755 1378.2,1755 1378.2,1660.8 1472.3,1660.8 1472.3,1317.5 
				1378.2,1317.5 1378.2,1096.2 1505.3,1096.2 1505.3,1129.3 1411.3,1129.3 1411.3,1284.4 1505.3,1284.4 1505.3,1566.7 1850,1566.7 
							"/>
			<polygon class="st0" points="1850,1223.4 1787.5,1223.4 1787.5,1317.5 1693.5,1317.5 1693.5,1411.6 1660.4,1411.6 1660.4,1190.3 
				1693.5,1190.3 1693.5,1284.4 1754.4,1284.4 1754.4,1190.3 1850,1190.3 			"/>
			<rect x="1754.4" y="1660.8" class="st0" width="95.6" height="33.1"/>
			<rect x="1660.4" y="813.8" class="st0" width="189.6" height="33.1"/>
			<polygon class="st0" points="1693.5,1660.8 1566.3,1660.8 1566.3,1788.1 1599.4,1788.1 1599.4,1693.9 1660.4,1693.9 1660.4,1850 
				1693.5,1850 1693.5,1788.1 1787.5,1788.1 1787.5,1755 1693.5,1755 			"/>
			<polygon class="st0" points="1850,752.8 1599.4,752.8 1599.4,908 1787.5,908 1787.5,1096.2 1850,1096.2 1850,1129.3 
				1660.4,1129.3 1660.4,1096.2 1754.4,1096.2 1754.4,941.1 1693.5,941.1 1693.5,1035.2 1599.4,1035.2 1599.4,1472.6 1754.4,1472.6 
				1754.4,1378.5 1787.5,1378.5 1787.5,1505.7 1566.3,1505.7 1566.3,1223.4 1472.3,1223.4 1472.3,1190.3 1566.3,1190.3 
				1566.3,1035.2 1317.2,1035.2 1317.2,1317.5 1223.2,1317.5 1223.2,1378.5 1411.3,1378.5 1411.3,1599.8 1378.2,1599.8 
				1378.2,1411.6 1190.1,1411.6 1190.1,1317.5 907.9,1317.5 907.9,1129.3 847,1129.3 847,1472.6 1035.1,1472.6 1035.1,1566.7 
				1223.2,1566.7 1223.2,1788.1 1190.1,1788.1 1190.1,1599.8 1035.1,1599.8 1035.1,1660.8 1129.1,1660.8 1129.1,1850 1096,1850 
				1096,1693.9 1035.1,1693.9 1035.1,1788.1 907.9,1788.1 907.9,1660.8 941,1660.8 941,1755 1002,1755 1002,1505.7 941,1505.7 
				941,1599.8 907.9,1599.8 907.9,1505.7 658.8,1505.7 658.8,1693.9 470.7,1693.9 470.7,1788.1 343.6,1788.1 343.6,1505.7 
				155.5,1505.7 155.5,1472.6 376.7,1472.6 376.7,1755 437.6,1755 437.6,1660.8 625.8,1660.8 625.8,1505.7 531.7,1505.7 
				531.7,1472.6 813.9,1472.6 813.9,1223.4 625.8,1223.4 625.8,1096.2 658.8,1096.2 658.8,1190.3 813.9,1190.3 813.9,1035.2 
				752.9,1035.2 752.9,1129.3 719.8,1129.3 719.8,846.9 376.7,846.9 376.7,908 470.7,908 470.7,941.1 343.6,941.1 343.6,813.8 
				437.6,813.8 437.6,752.8 343.6,752.8 343.6,719.7 470.7,719.7 470.7,813.8 752.9,813.8 752.9,1002.1 941,1002.1 941,1035.2 
				847,1035.2 847,1096.2 1002,1096.2 1002,1002.1 1035.1,1002.1 1035.1,1129.3 941,1129.3 941,1284.4 1284.2,1284.4 1284.2,1035.2 
				1190.1,1035.2 1190.1,908 1284.2,908 1284.2,846.9 1002,846.9 1002,625.6 1223.2,625.6 1223.2,658.7 1035.1,658.7 1035.1,813.8 
				1317.2,813.8 1317.2,941.1 1223.2,941.1 1223.2,1002.1 1472.3,1002.1 1472.3,813.8 1505.3,813.8 1505.3,1002.1 1660.4,1002.1 
				1660.4,941.1 1566.3,941.1 1566.3,752.8 1472.3,752.8 1472.3,470.5 1411.3,470.5 1411.3,564.6 1378.2,564.6 1378.2,437.4 
				1505.3,437.4 1505.3,719.7 1850,719.7 			"/>
			<polygon class="st0" points="1850,470.5 1660.4,470.5 1660.4,249.2 1693.5,249.2 1693.5,437.4 1850,437.4 			"/>
			<polygon class="st0" points="0,846.9 157.2,846.9 157.2,907.9 63.2,907.9 63.2,941 190.3,941 190.3,719.7 0,719.7 0,752.8 
				157.2,752.8 157.2,813.8 0,813.8 			"/>
			<polygon class="st0" points="0,1223.4 190.3,1223.4 190.3,1129.3 345.4,1129.3 345.4,1190.3 251.3,1190.3 251.3,1317.5 
				472.5,1317.5 472.5,1190.3 439.4,1190.3 439.4,1284.4 284.4,1284.4 284.4,1223.4 378.4,1223.4 378.4,1129.3 472.5,1129.3 
				472.5,1096.2 157.2,1096.2 157.2,1190.3 0,1190.3 			"/>
			<polygon class="st0" points="0,188.2 96.3,188.2 96.3,94 157.2,94 157.2,282.3 251.3,282.3 251.3,343.3 96.3,343.3 96.3,249.2 
				63.2,249.2 63.2,658.7 251.3,658.7 251.3,1002.1 63.2,1002.1 63.2,1129.3 96.3,1129.3 96.3,1035.2 533.5,1035.2 533.5,1378.5 
				190.3,1378.5 190.3,1284.4 0,1284.4 0,1317.5 63.2,1317.5 63.2,1599.8 251.3,1599.8 251.3,1850 284.4,1850 284.4,1566.7 
				96.3,1566.7 96.3,1317.5 157.2,1317.5 157.2,1411.6 439.4,1411.6 439.4,1599.8 566.6,1599.8 566.6,1566.7 472.5,1566.7 
				472.5,1411.6 566.6,1411.6 566.6,1317.5 627.5,1317.5 627.5,1411.6 754.7,1411.6 754.7,1284.4 721.6,1284.4 721.6,1378.5 
				660.6,1378.5 660.6,1284.4 566.6,1284.4 566.6,941 627.5,941 627.5,1035.2 660.6,1035.2 660.6,907.9 533.5,907.9 533.5,1002.1 
				284.4,1002.1 284.4,625.6 96.3,625.6 96.3,376.4 251.3,376.4 251.3,531.5 190.3,531.5 190.3,437.4 157.2,437.4 157.2,564.6 
				345.4,564.6 345.4,658.7 533.5,658.7 533.5,752.8 566.6,752.8 566.6,625.6 378.4,625.6 378.4,531.5 284.4,531.5 284.4,282.3 
				345.4,282.3 345.4,470.5 439.4,470.5 439.4,564.6 627.5,564.6 627.5,752.8 815.6,752.8 815.6,941 1097.8,941 1097.8,1129.3 
				1191.9,1129.3 1191.9,1190.3 1003.8,1190.3 1003.8,1223.4 1224.9,1223.4 1224.9,1096.2 1130.9,1096.2 1130.9,907.9 848.7,907.9 
				848.7,719.7 660.6,719.7 660.6,531.5 566.6,531.5 566.6,376.4 627.5,376.4 627.5,470.5 721.6,470.5 721.6,658.7 909.7,658.7 
				909.7,846.9 942.8,846.9 942.8,625.6 754.7,625.6 754.7,437.4 660.6,437.4 660.6,376.4 754.7,376.4 754.7,282.3 909.7,282.3 
				909.7,343.3 815.6,343.3 815.6,564.6 1036.8,564.6 1036.8,437.4 909.7,437.4 909.7,470.5 1003.8,470.5 1003.8,531.5 848.7,531.5 
				848.7,376.4 1097.8,376.4 1097.8,564.6 1285.9,564.6 1285.9,658.7 1380,658.7 1380,719.7 1097.8,719.7 1097.8,752.8 1380,752.8 
				1380,941 1413.1,941 1413.1,625.6 1319,625.6 1319,531.5 1130.9,531.5 1130.9,343.3 942.8,343.3 942.8,94 1003.8,94 
				1003.8,282.3 1191.9,282.3 1191.9,470.5 1319,470.5 1319,282.3 1413.1,282.3 1413.1,249.2 1319,249.2 1319,60.9 1191.9,60.9 
				1191.9,94 1285.9,94 1285.9,155.1 1130.9,155.1 1130.9,0 1097.8,0 1097.8,188.2 1285.9,188.2 1285.9,437.4 1224.9,437.4 
				1224.9,249.2 1036.8,249.2 1036.8,60.9 909.7,60.9 909.7,249.2 721.6,249.2 721.6,343.3 533.5,343.3 533.5,531.5 472.5,531.5 
				472.5,282.3 566.6,282.3 566.6,249.2 472.5,249.2 472.5,0 439.4,0 439.4,155.1 251.3,155.1 251.3,188.2 439.4,188.2 439.4,437.4 
				378.4,437.4 378.4,249.2 190.3,249.2 190.3,60.9 63.2,60.9 63.2,155.1 0,155.1 			"/>
		</g>
		<polygon class="st0" points="1695.2,94 1507.1,94 1474,94 1474,94 1474,0 1507.1,0 1507.1,60.9 1695.2,60.9 		"/>
	</g>
</g>
<g id="solutionn">
	<g>
		<g>
			<polyline class="st1" points="313.8,1850 313.8,1538.7 125.2,1538.7 125.2,1444.4 408,1444.4 408,1633 596.5,1633 596.5,1538.7 
				502.3,1538.7 502.3,1444.4 785,1444.4 785,1255.8 596.5,1255.8 596.5,1067.1 690.8,1067.1 690.8,878.5 502.3,878.5 502.3,972.8 
				313.8,972.8 313.8,689.9 501.6,689.9 501.6,784.2 785,784.2 785,972.8 1067.8,972.8 1067.8,1162.2 973.6,1162.2 973.6,1255.8 
				1256.3,1255.8 1256.3,1067.1 1162.1,1067.1 1162.1,878.5 973.6,878.5 973.6,595.6 1255.3,595.6 1255.3,689.9 1068.3,689.9 
				1068.3,784.2 1349.5,784.2 1349.5,972.8 1443.5,972.8 1443.5,596.3 1349.5,596.3 1349.5,408.1 1538.3,408.1 1538.3,124.6 
				1443.5,124.6 1443.5,0 			"/>
		</g>
	</g>
</g>
</svg>
